<svg
  width="309"
  height="96"
  viewBox="0 0 309 96"
  fill="none"
  xmlns="http://www.w3.org/2000/svg"
>
<rect
    y="0.666992"
    width="308.098"
    height="94.9286"
    rx="17.4643"
    fill="url(#paint0_linear_126_63)"
    fill-opacity="0.1"
  />
<path
    d="M39.576 36.9903H43.916V38.1313H38.218V28.1003H39.576V36.9903ZM46.5994 31.0403V38.1313H45.3534V31.0403H46.5994ZM46.8794 28.8143C46.8794 28.9357 46.8537 29.05 46.8024 29.1573C46.7557 29.26 46.6904 29.3533 46.6064 29.4373C46.5271 29.5167 46.4337 29.5797 46.3264 29.6263C46.2191 29.673 46.1047 29.6963 45.9834 29.6963C45.8621 29.6963 45.7477 29.673 45.6404 29.6263C45.5377 29.5797 45.4444 29.5167 45.3604 29.4373C45.2811 29.3533 45.2181 29.26 45.1714 29.1573C45.1247 29.05 45.1014 28.9357 45.1014 28.8143C45.1014 28.693 45.1247 28.5787 45.1714 28.4713C45.2181 28.3593 45.2811 28.2637 45.3604 28.1843C45.4444 28.1003 45.5377 28.035 45.6404 27.9883C45.7477 27.9417 45.8621 27.9183 45.9834 27.9183C46.1047 27.9183 46.2191 27.9417 46.3264 27.9883C46.4337 28.035 46.5271 28.1003 46.6064 28.1843C46.6904 28.2637 46.7557 28.3593 46.8024 28.4713C46.8537 28.5787 46.8794 28.693 46.8794 28.8143ZM52.8554 32.2093C52.7994 32.312 52.7131 32.3633 52.5964 32.3633C52.5264 32.3633 52.4471 32.3377 52.3584 32.2863C52.2698 32.235 52.1601 32.179 52.0294 32.1183C51.9034 32.053 51.7518 31.9947 51.5744 31.9433C51.3971 31.8873 51.1871 31.8593 50.9444 31.8593C50.7344 31.8593 50.5454 31.8873 50.3774 31.9433C50.2094 31.9947 50.0648 32.067 49.9434 32.1603C49.8268 32.2537 49.7358 32.3633 49.6704 32.4893C49.6098 32.6107 49.5794 32.7437 49.5794 32.8883C49.5794 33.0703 49.6308 33.222 49.7334 33.3433C49.8408 33.4647 49.9808 33.5697 50.1534 33.6583C50.3261 33.747 50.5221 33.8263 50.7414 33.8963C50.9608 33.9617 51.1848 34.034 51.4134 34.1133C51.6468 34.188 51.8731 34.272 52.0924 34.3653C52.3118 34.4587 52.5078 34.5753 52.6804 34.7153C52.8531 34.8553 52.9908 35.028 53.0934 35.2333C53.2008 35.434 53.2544 35.6767 53.2544 35.9613C53.2544 36.288 53.1961 36.5913 53.0794 36.8713C52.9628 37.1467 52.7901 37.387 52.5614 37.5923C52.3328 37.793 52.0528 37.9517 51.7214 38.0683C51.3901 38.185 51.0074 38.2433 50.5734 38.2433C50.0788 38.2433 49.6308 38.164 49.2294 38.0053C48.8281 37.842 48.4874 37.6343 48.2074 37.3823L48.5014 36.9063C48.5388 36.8457 48.5831 36.799 48.6344 36.7663C48.6858 36.7337 48.7534 36.7173 48.8374 36.7173C48.9214 36.7173 49.0101 36.75 49.1034 36.8153C49.1968 36.8807 49.3088 36.953 49.4394 37.0323C49.5748 37.1117 49.7358 37.184 49.9224 37.2493C50.1138 37.3147 50.3518 37.3473 50.6364 37.3473C50.8791 37.3473 51.0914 37.317 51.2734 37.2563C51.4554 37.191 51.6071 37.1047 51.7284 36.9973C51.8498 36.89 51.9384 36.7663 51.9944 36.6263C52.0551 36.4863 52.0854 36.337 52.0854 36.1783C52.0854 35.9823 52.0318 35.8213 51.9244 35.6953C51.8218 35.5647 51.6841 35.455 51.5114 35.3663C51.3388 35.273 51.1404 35.1937 50.9164 35.1283C50.6971 35.0583 50.4708 34.986 50.2374 34.9113C50.0088 34.8367 49.7824 34.7527 49.5584 34.6593C49.3391 34.5613 49.1431 34.44 48.9704 34.2953C48.7978 34.1507 48.6578 33.9733 48.5504 33.7633C48.4478 33.5487 48.3964 33.2897 48.3964 32.9863C48.3964 32.7157 48.4524 32.4567 48.5644 32.2093C48.6764 31.9573 48.8398 31.738 49.0544 31.5513C49.2691 31.36 49.5328 31.2083 49.8454 31.0963C50.1581 30.9843 50.5151 30.9283 50.9164 30.9283C51.3831 30.9283 51.8008 31.003 52.1694 31.1523C52.5428 31.297 52.8648 31.4977 53.1354 31.7543L52.8554 32.2093ZM57.0148 38.2433C56.4548 38.2433 56.0231 38.087 55.7198 37.7743C55.4211 37.4617 55.2718 37.0113 55.2718 36.4233V32.0833H54.4178C54.3431 32.0833 54.2801 32.0623 54.2288 32.0203C54.1774 31.9737 54.1518 31.9037 54.1518 31.8103V31.3133L55.3138 31.1663L55.6008 28.9753C55.6101 28.9053 55.6404 28.8493 55.6917 28.8073C55.7431 28.7607 55.8084 28.7373 55.8878 28.7373H56.5178V31.1803H58.5478V32.0833H56.5178V36.3393C56.5178 36.638 56.5901 36.8597 56.7348 37.0043C56.8794 37.149 57.0661 37.2213 57.2948 37.2213C57.4254 37.2213 57.5374 37.205 57.6308 37.1723C57.7288 37.135 57.8128 37.0953 57.8828 37.0533C57.9528 37.0113 58.0111 36.974 58.0578 36.9413C58.1091 36.904 58.1534 36.8853 58.1908 36.8853C58.2561 36.8853 58.3144 36.925 58.3658 37.0043L58.7298 37.5993C58.5151 37.8 58.2561 37.9587 57.9528 38.0753C57.6494 38.1873 57.3368 38.2433 57.0148 38.2433ZM61.4744 31.0403V38.1313H60.2284V31.0403H61.4744ZM61.7544 28.8143C61.7544 28.9357 61.7287 29.05 61.6774 29.1573C61.6307 29.26 61.5654 29.3533 61.4814 29.4373C61.4021 29.5167 61.3087 29.5797 61.2014 29.6263C61.0941 29.673 60.9797 29.6963 60.8584 29.6963C60.7371 29.6963 60.6227 29.673 60.5154 29.6263C60.4127 29.5797 60.3194 29.5167 60.2354 29.4373C60.1561 29.3533 60.0931 29.26 60.0464 29.1573C59.9997 29.05 59.9764 28.9357 59.9764 28.8143C59.9764 28.693 59.9997 28.5787 60.0464 28.4713C60.0931 28.3593 60.1561 28.2637 60.2354 28.1843C60.3194 28.1003 60.4127 28.035 60.5154 27.9883C60.6227 27.9417 60.7371 27.9183 60.8584 27.9183C60.9797 27.9183 61.0941 27.9417 61.2014 27.9883C61.3087 28.035 61.4021 28.1003 61.4814 28.1843C61.5654 28.2637 61.6307 28.3593 61.6774 28.4713C61.7287 28.5787 61.7544 28.693 61.7544 28.8143ZM63.6704 38.1313V31.0403H64.4124C64.5898 31.0403 64.7018 31.1267 64.7484 31.2993L64.8464 32.0693C65.1544 31.7287 65.4974 31.4533 65.8754 31.2433C66.2581 31.0333 66.6991 30.9283 67.1984 30.9283C67.5858 30.9283 67.9264 30.9937 68.2204 31.1243C68.5191 31.2503 68.7664 31.4323 68.9624 31.6703C69.1631 31.9037 69.3148 32.186 69.4174 32.5173C69.5201 32.8487 69.5714 33.215 69.5714 33.6163V38.1313H68.3254V33.6163C68.3254 33.0797 68.2018 32.6643 67.9544 32.3703C67.7118 32.0717 67.3384 31.9223 66.8344 31.9223C66.4658 31.9223 66.1204 32.011 65.7984 32.1883C65.4811 32.3657 65.1871 32.606 64.9164 32.9093V38.1313H63.6704ZM73.8367 30.9213C74.1447 30.9213 74.4317 30.9563 74.6977 31.0263C74.9684 31.0917 75.2134 31.1897 75.4327 31.3203H77.3577V31.7823C77.3577 31.9363 77.2597 32.0343 77.0637 32.0763L76.2587 32.1883C76.4174 32.4917 76.4967 32.83 76.4967 33.2033C76.4967 33.5487 76.4291 33.8637 76.2937 34.1483C76.1631 34.4283 75.9787 34.6687 75.7407 34.8693C75.5074 35.07 75.2274 35.224 74.9007 35.3313C74.5787 35.4387 74.2241 35.4923 73.8367 35.4923C73.5054 35.4923 73.1927 35.4527 72.8987 35.3733C72.7494 35.4667 72.6351 35.567 72.5557 35.6743C72.4811 35.7817 72.4437 35.8867 72.4437 35.9893C72.4437 36.1573 72.5114 36.2857 72.6467 36.3743C72.7821 36.4583 72.9617 36.519 73.1857 36.5563C73.4097 36.5937 73.6641 36.617 73.9487 36.6263C74.2334 36.6357 74.5227 36.652 74.8167 36.6753C75.1154 36.694 75.4071 36.729 75.6917 36.7803C75.9764 36.8317 76.2307 36.9157 76.4547 37.0323C76.6787 37.149 76.8584 37.31 76.9937 37.5153C77.1291 37.7207 77.1967 37.9867 77.1967 38.3133C77.1967 38.6167 77.1197 38.9107 76.9657 39.1953C76.8164 39.48 76.5994 39.732 76.3147 39.9513C76.0301 40.1753 75.6824 40.3527 75.2717 40.4833C74.8611 40.6187 74.3967 40.6863 73.8787 40.6863C73.3607 40.6863 72.9057 40.635 72.5137 40.5323C72.1264 40.4297 71.8044 40.292 71.5477 40.1193C71.2911 39.9467 71.0974 39.746 70.9667 39.5173C70.8407 39.2933 70.7777 39.0577 70.7777 38.8103C70.7777 38.4603 70.8874 38.164 71.1067 37.9213C71.3307 37.674 71.6364 37.478 72.0237 37.3333C71.8231 37.24 71.6621 37.1163 71.5407 36.9623C71.4241 36.8037 71.3657 36.5937 71.3657 36.3323C71.3657 36.2297 71.3844 36.1247 71.4217 36.0173C71.4591 35.9053 71.5151 35.7957 71.5897 35.6883C71.6691 35.581 71.7647 35.4783 71.8767 35.3803C71.9887 35.2823 72.1194 35.196 72.2687 35.1213C71.9187 34.9253 71.6434 34.6663 71.4427 34.3443C71.2467 34.0177 71.1487 33.6373 71.1487 33.2033C71.1487 32.858 71.2141 32.5453 71.3447 32.2653C71.4801 31.9807 71.6667 31.7403 71.9047 31.5443C72.1427 31.3437 72.4251 31.1897 72.7517 31.0823C73.0831 30.975 73.4447 30.9213 73.8367 30.9213ZM76.0487 38.5163C76.0487 38.339 75.9997 38.1967 75.9017 38.0893C75.8037 37.982 75.6707 37.9003 75.5027 37.8443C75.3347 37.7837 75.1411 37.7393 74.9217 37.7113C74.7024 37.6833 74.4714 37.6647 74.2287 37.6553C73.9861 37.6413 73.7387 37.6273 73.4867 37.6133C73.2347 37.5993 72.9944 37.5737 72.7657 37.5363C72.4997 37.6623 72.2827 37.8163 72.1147 37.9983C71.9514 38.1803 71.8697 38.3973 71.8697 38.6493C71.8697 38.808 71.9094 38.955 71.9887 39.0903C72.0727 39.2303 72.1987 39.3493 72.3667 39.4473C72.5347 39.55 72.7447 39.6293 72.9967 39.6853C73.2534 39.746 73.5544 39.7763 73.8997 39.7763C74.2357 39.7763 74.5367 39.746 74.8027 39.6853C75.0687 39.6247 75.2927 39.5383 75.4747 39.4263C75.6614 39.3143 75.8037 39.1813 75.9017 39.0273C75.9997 38.8733 76.0487 38.703 76.0487 38.5163ZM73.8367 34.6663C74.0887 34.6663 74.3104 34.6313 74.5017 34.5613C74.6977 34.4913 74.8611 34.3933 74.9917 34.2673C75.1224 34.1413 75.2204 33.992 75.2857 33.8193C75.3511 33.642 75.3837 33.4483 75.3837 33.2383C75.3837 32.8043 75.2507 32.459 74.9847 32.2023C74.7234 31.9457 74.3407 31.8173 73.8367 31.8173C73.3374 31.8173 72.9547 31.9457 72.6887 32.2023C72.4274 32.459 72.2967 32.8043 72.2967 33.2383C72.2967 33.4483 72.3294 33.642 72.3947 33.8193C72.4647 33.992 72.5651 34.1413 72.6957 34.2673C72.8264 34.3933 72.9874 34.4913 73.1787 34.5613C73.3701 34.6313 73.5894 34.6663 73.8367 34.6663ZM84.1772 30.9283C84.6952 30.9283 85.1618 31.0147 85.5772 31.1873C85.9972 31.36 86.3518 31.605 86.6412 31.9223C86.9352 32.2397 87.1592 32.6247 87.3132 33.0773C87.4718 33.5253 87.5512 34.027 87.5512 34.5823C87.5512 35.1423 87.4718 35.6463 87.3132 36.0943C87.1592 36.5423 86.9352 36.925 86.6412 37.2423C86.3518 37.5597 85.9972 37.8047 85.5772 37.9773C85.1618 38.1453 84.6952 38.2293 84.1772 38.2293C83.6592 38.2293 83.1902 38.1453 82.7702 37.9773C82.3548 37.8047 82.0002 37.5597 81.7062 37.2423C81.4122 36.925 81.1858 36.5423 81.0272 36.0943C80.8685 35.6463 80.7892 35.1423 80.7892 34.5823C80.7892 34.027 80.8685 33.5253 81.0272 33.0773C81.1858 32.6247 81.4122 32.2397 81.7062 31.9223C82.0002 31.605 82.3548 31.36 82.7702 31.1873C83.1902 31.0147 83.6592 30.9283 84.1772 30.9283ZM84.1772 37.2563C84.8772 37.2563 85.3998 37.023 85.7452 36.5563C86.0905 36.085 86.2632 35.4293 86.2632 34.5893C86.2632 33.7447 86.0905 33.0867 85.7452 32.6153C85.3998 32.144 84.8772 31.9083 84.1772 31.9083C83.8225 31.9083 83.5145 31.969 83.2532 32.0903C82.9918 32.2117 82.7725 32.3867 82.5952 32.6153C82.4225 32.844 82.2918 33.1263 82.2032 33.4623C82.1192 33.7937 82.0772 34.1693 82.0772 34.5893C82.0772 35.0093 82.1192 35.385 82.2032 35.7163C82.2918 36.0477 82.4225 36.3277 82.5952 36.5563C82.7725 36.7803 82.9918 36.953 83.2532 37.0743C83.5145 37.1957 83.8225 37.2563 84.1772 37.2563ZM89.0865 38.1313V31.0403H89.8285C90.0058 31.0403 90.1178 31.1267 90.1645 31.2993L90.2625 32.0693C90.5705 31.7287 90.9135 31.4533 91.2915 31.2433C91.6741 31.0333 92.1151 30.9283 92.6145 30.9283C93.0018 30.9283 93.3425 30.9937 93.6365 31.1243C93.9351 31.2503 94.1825 31.4323 94.3785 31.6703C94.5791 31.9037 94.7308 32.186 94.8335 32.5173C94.9361 32.8487 94.9875 33.215 94.9875 33.6163V38.1313H93.7415V33.6163C93.7415 33.0797 93.6178 32.6643 93.3705 32.3703C93.1278 32.0717 92.7545 31.9223 92.2505 31.9223C91.8818 31.9223 91.5365 32.011 91.2145 32.1883C90.8971 32.3657 90.6031 32.606 90.3325 32.9093V38.1313H89.0865ZM106.601 28.1003V29.2413H103.36V38.1313H102.002V29.2413H98.7468V28.1003H106.601ZM109.224 30.9283C109.742 30.9283 110.209 31.0147 110.624 31.1873C111.044 31.36 111.399 31.605 111.688 31.9223C111.982 32.2397 112.206 32.6247 112.36 33.0773C112.519 33.5253 112.598 34.027 112.598 34.5823C112.598 35.1423 112.519 35.6463 112.36 36.0943C112.206 36.5423 111.982 36.925 111.688 37.2423C111.399 37.5597 111.044 37.8047 110.624 37.9773C110.209 38.1453 109.742 38.2293 109.224 38.2293C108.706 38.2293 108.237 38.1453 107.817 37.9773C107.402 37.8047 107.047 37.5597 106.753 37.2423C106.459 36.925 106.233 36.5423 106.074 36.0943C105.915 35.6463 105.836 35.1423 105.836 34.5823C105.836 34.027 105.915 33.5253 106.074 33.0773C106.233 32.6247 106.459 32.2397 106.753 31.9223C107.047 31.605 107.402 31.36 107.817 31.1873C108.237 31.0147 108.706 30.9283 109.224 30.9283ZM109.224 37.2563C109.924 37.2563 110.447 37.023 110.792 36.5563C111.137 36.085 111.31 35.4293 111.31 34.5893C111.31 33.7447 111.137 33.0867 110.792 32.6153C110.447 32.144 109.924 31.9083 109.224 31.9083C108.869 31.9083 108.561 31.969 108.3 32.0903C108.039 32.2117 107.819 32.3867 107.642 32.6153C107.469 32.844 107.339 33.1263 107.25 33.4623C107.166 33.7937 107.124 34.1693 107.124 34.5893C107.124 35.0093 107.166 35.385 107.25 35.7163C107.339 36.0477 107.469 36.3277 107.642 36.5563C107.819 36.7803 108.039 36.953 108.3 37.0743C108.561 37.1957 108.869 37.2563 109.224 37.2563ZM114.133 40.5323V31.0403H114.875C115.053 31.0403 115.165 31.1267 115.211 31.2993L115.316 32.1393C115.62 31.7707 115.965 31.4743 116.352 31.2503C116.744 31.0263 117.195 30.9143 117.703 30.9143C118.109 30.9143 118.478 30.9937 118.809 31.1523C119.141 31.3063 119.423 31.5373 119.656 31.8453C119.89 32.1487 120.069 32.5267 120.195 32.9793C120.321 33.432 120.384 33.9523 120.384 34.5403C120.384 35.063 120.314 35.5507 120.174 36.0033C120.034 36.4513 119.834 36.841 119.572 37.1723C119.311 37.499 118.989 37.758 118.606 37.9493C118.228 38.136 117.801 38.2293 117.325 38.2293C116.887 38.2293 116.511 38.157 116.198 38.0123C115.89 37.8677 115.617 37.6623 115.379 37.3963V40.5323H114.133ZM117.29 31.9223C116.884 31.9223 116.527 32.0157 116.219 32.2023C115.916 32.389 115.636 32.6527 115.379 32.9933V36.4233C115.608 36.7313 115.858 36.9483 116.128 37.0743C116.404 37.2003 116.709 37.2633 117.045 37.2633C117.703 37.2633 118.21 37.0277 118.564 36.5563C118.919 36.085 119.096 35.413 119.096 34.5403C119.096 34.0783 119.054 33.6817 118.97 33.3503C118.891 33.019 118.774 32.7483 118.62 32.5383C118.466 32.3237 118.277 32.1673 118.053 32.0693C117.829 31.9713 117.575 31.9223 117.29 31.9223ZM131.831 36.0593C131.906 36.0593 131.973 36.0897 132.034 36.1503L132.566 36.7313C132.155 37.2073 131.656 37.5783 131.068 37.8443C130.485 38.1103 129.78 38.2433 128.954 38.2433C128.231 38.2433 127.575 38.1197 126.987 37.8723C126.399 37.6203 125.897 37.2703 125.482 36.8223C125.067 36.3697 124.745 35.8283 124.516 35.1983C124.287 34.5683 124.173 33.8753 124.173 33.1193C124.173 32.3633 124.294 31.6703 124.537 31.0403C124.784 30.4103 125.13 29.869 125.573 29.4163C126.016 28.9637 126.546 28.6137 127.162 28.3663C127.783 28.1143 128.466 27.9883 129.213 27.9883C129.95 27.9883 130.585 28.1027 131.117 28.3313C131.654 28.56 132.13 28.8703 132.545 29.2623L132.104 29.8853C132.071 29.932 132.034 29.9717 131.992 30.0043C131.95 30.0323 131.889 30.0463 131.81 30.0463C131.749 30.0463 131.684 30.0253 131.614 29.9833C131.549 29.9367 131.469 29.8807 131.376 29.8153C131.283 29.75 131.173 29.68 131.047 29.6053C130.921 29.5307 130.772 29.4607 130.599 29.3953C130.426 29.33 130.226 29.2763 129.997 29.2343C129.768 29.1877 129.505 29.1643 129.206 29.1643C128.669 29.1643 128.177 29.2577 127.729 29.4443C127.286 29.6263 126.903 29.8877 126.581 30.2283C126.259 30.569 126.007 30.9843 125.825 31.4743C125.648 31.9643 125.559 32.5127 125.559 33.1193C125.559 33.7447 125.648 34.3023 125.825 34.7923C126.007 35.2823 126.252 35.6977 126.56 36.0383C126.873 36.3743 127.241 36.631 127.666 36.8083C128.091 36.9857 128.548 37.0743 129.038 37.0743C129.337 37.0743 129.605 37.058 129.843 37.0253C130.081 36.988 130.3 36.932 130.501 36.8573C130.706 36.7827 130.895 36.6893 131.068 36.5773C131.245 36.4607 131.423 36.323 131.6 36.1643C131.679 36.0943 131.756 36.0593 131.831 36.0593ZM140.526 28.1003V29.2063H135.71V32.5383H139.609V33.6023H135.71V37.0253H140.526V38.1313H134.345V28.1003H140.526ZM144.811 32.9793L141.5 28.1003H142.851C142.949 28.1003 143.021 28.1167 143.068 28.1493C143.114 28.182 143.156 28.2287 143.194 28.2893L145.812 32.3073C145.844 32.2093 145.893 32.102 145.959 31.9853L148.43 28.3173C148.472 28.252 148.516 28.2007 148.563 28.1633C148.614 28.1213 148.675 28.1003 148.745 28.1003H150.04L146.715 32.9163L150.152 38.1313H148.808C148.705 38.1313 148.623 38.1057 148.563 38.0543C148.507 37.9983 148.46 37.9377 148.423 37.8723L145.735 33.6653C145.702 33.7633 145.66 33.8567 145.609 33.9453L142.991 37.8723C142.949 37.9377 142.9 37.9983 142.844 38.0543C142.792 38.1057 142.718 38.1313 142.62 38.1313H141.36L144.811 32.9793ZM155.34 32.2093C155.284 32.312 155.197 32.3633 155.081 32.3633C155.011 32.3633 154.931 32.3377 154.843 32.2863C154.754 32.235 154.644 32.179 154.514 32.1183C154.388 32.053 154.236 31.9947 154.059 31.9433C153.881 31.8873 153.671 31.8593 153.429 31.8593C153.219 31.8593 153.03 31.8873 152.862 31.9433C152.694 31.9947 152.549 32.067 152.428 32.1603C152.311 32.2537 152.22 32.3633 152.155 32.4893C152.094 32.6107 152.064 32.7437 152.064 32.8883C152.064 33.0703 152.115 33.222 152.218 33.3433C152.325 33.4647 152.465 33.5697 152.638 33.6583C152.81 33.747 153.006 33.8263 153.226 33.8963C153.445 33.9617 153.669 34.034 153.898 34.1133C154.131 34.188 154.357 34.272 154.577 34.3653C154.796 34.4587 154.992 34.5753 155.165 34.7153C155.337 34.8553 155.475 35.028 155.578 35.2333C155.685 35.434 155.739 35.6767 155.739 35.9613C155.739 36.288 155.68 36.5913 155.564 36.8713C155.447 37.1467 155.274 37.387 155.046 37.5923C154.817 37.793 154.537 37.9517 154.206 38.0683C153.874 38.185 153.492 38.2433 153.058 38.2433C152.563 38.2433 152.115 38.164 151.714 38.0053C151.312 37.842 150.972 37.6343 150.692 37.3823L150.986 36.9063C151.023 36.8457 151.067 36.799 151.119 36.7663C151.17 36.7337 151.238 36.7173 151.322 36.7173C151.406 36.7173 151.494 36.75 151.588 36.8153C151.681 36.8807 151.793 36.953 151.924 37.0323C152.059 37.1117 152.22 37.184 152.407 37.2493C152.598 37.3147 152.836 37.3473 153.121 37.3473C153.363 37.3473 153.576 37.317 153.758 37.2563C153.94 37.191 154.091 37.1047 154.213 36.9973C154.334 36.89 154.423 36.7663 154.479 36.6263C154.539 36.4863 154.57 36.337 154.57 36.1783C154.57 35.9823 154.516 35.8213 154.409 35.6953C154.306 35.5647 154.168 35.455 153.996 35.3663C153.823 35.273 153.625 35.1937 153.401 35.1283C153.181 35.0583 152.955 34.986 152.722 34.9113C152.493 34.8367 152.267 34.7527 152.043 34.6593C151.823 34.5613 151.627 34.44 151.455 34.2953C151.282 34.1507 151.142 33.9733 151.035 33.7633C150.932 33.5487 150.881 33.2897 150.881 32.9863C150.881 32.7157 150.937 32.4567 151.049 32.2093C151.161 31.9573 151.324 31.738 151.539 31.5513C151.753 31.36 152.017 31.2083 152.33 31.0963C152.642 30.9843 152.999 30.9283 153.401 30.9283C153.867 30.9283 154.285 31.003 154.654 31.1523C155.027 31.297 155.349 31.4977 155.62 31.7543L155.34 32.2093ZM44.399 58.1003V59.2063H39.583V62.7133H43.699V63.8193H39.583V68.1313H38.218V58.1003H44.399ZM46.6059 61.0403V65.5623C46.6059 66.099 46.7295 66.5143 46.9769 66.8083C47.2242 67.1023 47.5975 67.2493 48.0969 67.2493C48.4609 67.2493 48.8039 67.163 49.1259 66.9903C49.4479 66.8177 49.7442 66.5773 50.0149 66.2693V61.0403H51.2609V68.1313H50.5189C50.3415 68.1313 50.2295 68.045 50.1829 67.8723L50.0849 67.1093C49.7769 67.45 49.4315 67.7253 49.0489 67.9353C48.6662 68.1407 48.2275 68.2433 47.7329 68.2433C47.3455 68.2433 47.0025 68.1803 46.7039 68.0543C46.4099 67.9237 46.1625 67.7417 45.9619 67.5083C45.7612 67.275 45.6095 66.9927 45.5069 66.6613C45.4089 66.33 45.3599 65.9637 45.3599 65.5623V61.0403H46.6059ZM54.6932 57.8203V68.1313H53.4472V57.8203H54.6932ZM58.2752 57.8203V68.1313H57.0292V57.8203H58.2752ZM63.3743 68.1313V58.1003H66.5733C67.1893 58.1003 67.7189 58.161 68.1623 58.2823C68.6103 58.4037 68.9766 58.5763 69.2613 58.8003C69.5506 59.0243 69.7629 59.2997 69.8983 59.6263C70.0383 59.9483 70.1083 60.3123 70.1083 60.7183C70.1083 60.9657 70.0686 61.2037 69.9893 61.4323C69.9146 61.661 69.7979 61.8733 69.6393 62.0693C69.4853 62.2653 69.2893 62.4403 69.0513 62.5943C68.8179 62.7483 68.5426 62.8743 68.2253 62.9723C68.9579 63.117 69.5109 63.3807 69.8843 63.7633C70.2576 64.146 70.4443 64.65 70.4443 65.2753C70.4443 65.7 70.3649 66.0873 70.2063 66.4373C70.0523 66.7873 69.8236 67.0883 69.5203 67.3403C69.2216 67.5923 68.8529 67.7883 68.4143 67.9283C67.9803 68.0637 67.4833 68.1313 66.9233 68.1313H63.3743ZM64.7323 63.5603V67.0533H66.9023C67.2896 67.0533 67.6209 67.009 67.8963 66.9203C68.1763 66.8317 68.4049 66.708 68.5823 66.5493C68.7643 66.386 68.8973 66.1947 68.9813 65.9753C69.0653 65.7513 69.1073 65.5063 69.1073 65.2403C69.1073 64.7223 68.9229 64.314 68.5543 64.0153C68.1903 63.712 67.6373 63.5603 66.8953 63.5603H64.7323ZM64.7323 62.5943H66.5243C66.9069 62.5943 67.2383 62.5523 67.5183 62.4683C67.7983 62.3843 68.0293 62.2677 68.2113 62.1183C68.3979 61.969 68.5356 61.7893 68.6243 61.5793C68.7129 61.3647 68.7573 61.1313 68.7573 60.8793C68.7573 60.2913 68.5799 59.8597 68.2253 59.5843C67.8706 59.309 67.3199 59.1713 66.5733 59.1713H64.7323V62.5943ZM75.0497 60.9283C75.4744 60.9283 75.8664 61.0007 76.2257 61.1453C76.585 61.2853 76.8954 61.4907 77.1567 61.7613C77.418 62.0273 77.621 62.3587 77.7657 62.7553C77.915 63.1473 77.9897 63.5953 77.9897 64.0993C77.9897 64.2953 77.9687 64.426 77.9267 64.4913C77.8847 64.5567 77.8054 64.5893 77.6887 64.5893H72.9707C72.98 65.0373 73.0407 65.427 73.1527 65.7583C73.2647 66.0897 73.4187 66.3673 73.6147 66.5913C73.8107 66.8107 74.044 66.9763 74.3147 67.0883C74.5854 67.1957 74.8887 67.2493 75.2247 67.2493C75.5374 67.2493 75.8057 67.2143 76.0297 67.1443C76.2584 67.0697 76.4544 66.9903 76.6177 66.9063C76.781 66.8223 76.9164 66.7453 77.0237 66.6753C77.1357 66.6007 77.2314 66.5633 77.3107 66.5633C77.4134 66.5633 77.4927 66.603 77.5487 66.6823L77.8987 67.1373C77.7447 67.324 77.5604 67.4873 77.3457 67.6273C77.131 67.7627 76.9 67.8747 76.6527 67.9633C76.41 68.052 76.158 68.1173 75.8967 68.1593C75.6354 68.206 75.3764 68.2293 75.1197 68.2293C74.6297 68.2293 74.177 68.1477 73.7617 67.9843C73.351 67.8163 72.994 67.5737 72.6907 67.2563C72.392 66.9343 72.1587 66.5377 71.9907 66.0663C71.8227 65.595 71.7387 65.0537 71.7387 64.4423C71.7387 63.9477 71.8134 63.4857 71.9627 63.0563C72.1167 62.627 72.336 62.256 72.6207 61.9433C72.9054 61.626 73.253 61.3787 73.6637 61.2013C74.0744 61.0193 74.5364 60.9283 75.0497 60.9283ZM75.0777 61.8453C74.4757 61.8453 74.002 62.0203 73.6567 62.3703C73.3114 62.7157 73.0967 63.1963 73.0127 63.8123H76.8697C76.8697 63.523 76.83 63.2593 76.7507 63.0213C76.6714 62.7787 76.5547 62.571 76.4007 62.3983C76.2467 62.221 76.0577 62.0857 75.8337 61.9923C75.6144 61.8943 75.3624 61.8453 75.0777 61.8453ZM85.9615 58.1003V59.2063H81.1455V62.5383H85.0445V63.6023H81.1455V67.0253H85.9615V68.1313H79.7805V58.1003H85.9615ZM92.5563 62.3003C92.5189 62.3517 92.4816 62.3913 92.4443 62.4193C92.4069 62.4473 92.3533 62.4613 92.2833 62.4613C92.2133 62.4613 92.1363 62.4333 92.0523 62.3773C91.9729 62.3167 91.8703 62.2513 91.7443 62.1813C91.6183 62.1113 91.4643 62.0483 91.2823 61.9923C91.1049 61.9317 90.8856 61.9013 90.6243 61.9013C90.2789 61.9013 89.9733 61.9643 89.7073 62.0903C89.4413 62.2117 89.2173 62.389 89.0353 62.6223C88.8579 62.8557 88.7226 63.138 88.6293 63.4693C88.5406 63.8007 88.4963 64.1717 88.4963 64.5823C88.4963 65.0117 88.5453 65.3943 88.6433 65.7303C88.7413 66.0617 88.8789 66.3417 89.0563 66.5703C89.2336 66.7943 89.4483 66.967 89.7003 67.0883C89.9569 67.205 90.2439 67.2633 90.5613 67.2633C90.8646 67.2633 91.1143 67.2283 91.3103 67.1583C91.5063 67.0837 91.6696 67.002 91.8003 66.9133C91.9309 66.8247 92.0383 66.7453 92.1223 66.6753C92.2063 66.6007 92.2903 66.5633 92.3743 66.5633C92.4816 66.5633 92.5609 66.603 92.6123 66.6823L92.9623 67.1373C92.6543 67.5153 92.2693 67.793 91.8073 67.9703C91.3453 68.143 90.8576 68.2293 90.3443 68.2293C89.9009 68.2293 89.4879 68.1477 89.1053 67.9843C88.7273 67.821 88.3983 67.5853 88.1183 67.2773C87.8383 66.9647 87.6166 66.582 87.4533 66.1293C87.2946 65.6767 87.2153 65.161 87.2153 64.5823C87.2153 64.055 87.2876 63.5673 87.4323 63.1193C87.5816 62.6713 87.7963 62.2863 88.0763 61.9643C88.3609 61.6377 88.7109 61.3833 89.1263 61.2013C89.5416 61.0193 90.0176 60.9283 90.5543 60.9283C91.0489 60.9283 91.4876 61.01 91.8703 61.1733C92.2529 61.332 92.5913 61.5583 92.8853 61.8523L92.5563 62.3003ZM97.1244 60.9283C97.6424 60.9283 98.1091 61.0147 98.5244 61.1873C98.9444 61.36 99.2991 61.605 99.5884 61.9223C99.8824 62.2397 100.106 62.6247 100.26 63.0773C100.419 63.5253 100.498 64.027 100.498 64.5823C100.498 65.1423 100.419 65.6463 100.26 66.0943C100.106 66.5423 99.8824 66.925 99.5884 67.2423C99.2991 67.5597 98.9444 67.8047 98.5244 67.9773C98.1091 68.1453 97.6424 68.2293 97.1244 68.2293C96.6064 68.2293 96.1374 68.1453 95.7174 67.9773C95.3021 67.8047 94.9474 67.5597 94.6534 67.2423C94.3594 66.925 94.1331 66.5423 93.9744 66.0943C93.8158 65.6463 93.7364 65.1423 93.7364 64.5823C93.7364 64.027 93.8158 63.5253 93.9744 63.0773C94.1331 62.6247 94.3594 62.2397 94.6534 61.9223C94.9474 61.605 95.3021 61.36 95.7174 61.1873C96.1374 61.0147 96.6064 60.9283 97.1244 60.9283ZM97.1244 67.2563C97.8244 67.2563 98.3471 67.023 98.6924 66.5563C99.0378 66.085 99.2104 65.4293 99.2104 64.5893C99.2104 63.7447 99.0378 63.0867 98.6924 62.6153C98.3471 62.144 97.8244 61.9083 97.1244 61.9083C96.7698 61.9083 96.4618 61.969 96.2004 62.0903C95.9391 62.2117 95.7198 62.3867 95.5424 62.6153C95.3698 62.844 95.2391 63.1263 95.1504 63.4623C95.0664 63.7937 95.0244 64.1693 95.0244 64.5893C95.0244 65.0093 95.0664 65.385 95.1504 65.7163C95.2391 66.0477 95.3698 66.3277 95.5424 66.5563C95.7198 66.7803 95.9391 66.953 96.2004 67.0743C96.4618 67.1957 96.7698 67.2563 97.1244 67.2563ZM106.094 62.2093C106.038 62.312 105.951 62.3633 105.835 62.3633C105.765 62.3633 105.685 62.3377 105.597 62.2863C105.508 62.235 105.398 62.179 105.268 62.1183C105.142 62.053 104.99 61.9947 104.813 61.9433C104.635 61.8873 104.425 61.8593 104.183 61.8593C103.973 61.8593 103.784 61.8873 103.616 61.9433C103.448 61.9947 103.303 62.067 103.182 62.1603C103.065 62.2537 102.974 62.3633 102.909 62.4893C102.848 62.6107 102.818 62.7437 102.818 62.8883C102.818 63.0703 102.869 63.222 102.972 63.3433C103.079 63.4647 103.219 63.5697 103.392 63.6583C103.564 63.747 103.76 63.8263 103.98 63.8963C104.199 63.9617 104.423 64.034 104.652 64.1133C104.885 64.188 105.111 64.272 105.331 64.3653C105.55 64.4587 105.746 64.5753 105.919 64.7153C106.091 64.8553 106.229 65.028 106.332 65.2333C106.439 65.434 106.493 65.6767 106.493 65.9613C106.493 66.288 106.434 66.5913 106.318 66.8713C106.201 67.1467 106.028 67.387 105.8 67.5923C105.571 67.793 105.291 67.9517 104.96 68.0683C104.628 68.185 104.246 68.2433 103.812 68.2433C103.317 68.2433 102.869 68.164 102.468 68.0053C102.066 67.842 101.726 67.6343 101.446 67.3823L101.74 66.9063C101.777 66.8457 101.821 66.799 101.873 66.7663C101.924 66.7337 101.992 66.7173 102.076 66.7173C102.16 66.7173 102.248 66.75 102.342 66.8153C102.435 66.8807 102.547 66.953 102.678 67.0323C102.813 67.1117 102.974 67.184 103.161 67.2493C103.352 67.3147 103.59 67.3473 103.875 67.3473C104.117 67.3473 104.33 67.317 104.512 67.2563C104.694 67.191 104.845 67.1047 104.967 66.9973C105.088 66.89 105.177 66.7663 105.233 66.6263C105.293 66.4863 105.324 66.337 105.324 66.1783C105.324 65.9823 105.27 65.8213 105.163 65.6953C105.06 65.5647 104.922 65.455 104.75 65.3663C104.577 65.273 104.379 65.1937 104.155 65.1283C103.935 65.0583 103.709 64.986 103.476 64.9113C103.247 64.8367 103.021 64.7527 102.797 64.6593C102.577 64.5613 102.381 64.44 102.209 64.2953C102.036 64.1507 101.896 63.9733 101.789 63.7633C101.686 63.5487 101.635 63.2897 101.635 62.9863C101.635 62.7157 101.691 62.4567 101.803 62.2093C101.915 61.9573 102.078 61.738 102.293 61.5513C102.507 61.36 102.771 61.2083 103.084 61.0963C103.396 60.9843 103.753 60.9283 104.155 60.9283C104.621 60.9283 105.039 61.003 105.408 61.1523C105.781 61.297 106.103 61.4977 106.374 61.7543L106.094 62.2093ZM110.183 70.2243C110.141 70.3177 110.087 70.3923 110.022 70.4483C109.961 70.5043 109.866 70.5323 109.735 70.5323H108.811L110.106 67.7183L107.18 61.0403H108.258C108.365 61.0403 108.449 61.0683 108.51 61.1243C108.571 61.1757 108.615 61.234 108.643 61.2993L110.54 65.7653C110.582 65.868 110.617 65.9707 110.645 66.0733C110.678 66.176 110.706 66.281 110.729 66.3883C110.762 66.281 110.794 66.176 110.827 66.0733C110.86 65.9707 110.897 65.8657 110.939 65.7583L112.78 61.2993C112.808 61.2247 112.855 61.164 112.92 61.1173C112.99 61.066 113.065 61.0403 113.144 61.0403H114.138L110.183 70.2243ZM119.328 62.2093C119.272 62.312 119.186 62.3633 119.069 62.3633C118.999 62.3633 118.92 62.3377 118.831 62.2863C118.742 62.235 118.633 62.179 118.502 62.1183C118.376 62.053 118.224 61.9947 118.047 61.9433C117.87 61.8873 117.66 61.8593 117.417 61.8593C117.207 61.8593 117.018 61.8873 116.85 61.9433C116.682 61.9947 116.537 62.067 116.416 62.1603C116.299 62.2537 116.208 62.3633 116.143 62.4893C116.082 62.6107 116.052 62.7437 116.052 62.8883C116.052 63.0703 116.103 63.222 116.206 63.3433C116.313 63.4647 116.453 63.5697 116.626 63.6583C116.799 63.747 116.995 63.8263 117.214 63.8963C117.433 63.9617 117.657 64.034 117.886 64.1133C118.119 64.188 118.346 64.272 118.565 64.3653C118.784 64.4587 118.98 64.5753 119.153 64.7153C119.326 64.8553 119.463 65.028 119.566 65.2333C119.673 65.434 119.727 65.6767 119.727 65.9613C119.727 66.288 119.669 66.5913 119.552 66.8713C119.435 67.1467 119.263 67.387 119.034 67.5923C118.805 67.793 118.525 67.9517 118.194 68.0683C117.863 68.185 117.48 68.2433 117.046 68.2433C116.551 68.2433 116.103 68.164 115.702 68.0053C115.301 67.842 114.96 67.6343 114.68 67.3823L114.974 66.9063C115.011 66.8457 115.056 66.799 115.107 66.7663C115.158 66.7337 115.226 66.7173 115.31 66.7173C115.394 66.7173 115.483 66.75 115.576 66.8153C115.669 66.8807 115.781 66.953 115.912 67.0323C116.047 67.1117 116.208 67.184 116.395 67.2493C116.586 67.3147 116.824 67.3473 117.109 67.3473C117.352 67.3473 117.564 67.317 117.746 67.2563C117.928 67.191 118.08 67.1047 118.201 66.9973C118.322 66.89 118.411 66.7663 118.467 66.6263C118.528 66.4863 118.558 66.337 118.558 66.1783C118.558 65.9823 118.504 65.8213 118.397 65.6953C118.294 65.5647 118.157 65.455 117.984 65.3663C117.811 65.273 117.613 65.1937 117.389 65.1283C117.17 65.0583 116.943 64.986 116.71 64.9113C116.481 64.8367 116.255 64.7527 116.031 64.6593C115.812 64.5613 115.616 64.44 115.443 64.2953C115.27 64.1507 115.13 63.9733 115.023 63.7633C114.92 63.5487 114.869 63.2897 114.869 62.9863C114.869 62.7157 114.925 62.4567 115.037 62.2093C115.149 61.9573 115.312 61.738 115.527 61.5513C115.742 61.36 116.005 61.2083 116.318 61.0963C116.631 60.9843 116.988 60.9283 117.389 60.9283C117.856 60.9283 118.273 61.003 118.642 61.1523C119.015 61.297 119.337 61.4977 119.608 61.7543L119.328 62.2093ZM123.487 68.2433C122.927 68.2433 122.496 68.087 122.192 67.7743C121.894 67.4617 121.744 67.0113 121.744 66.4233V62.0833H120.89C120.816 62.0833 120.753 62.0623 120.701 62.0203C120.65 61.9737 120.624 61.9037 120.624 61.8103V61.3133L121.786 61.1663L122.073 58.9753C122.083 58.9053 122.113 58.8493 122.164 58.8073C122.216 58.7607 122.281 58.7373 122.36 58.7373H122.99V61.1803H125.02V62.0833H122.99V66.3393C122.99 66.638 123.063 66.8597 123.207 67.0043C123.352 67.149 123.539 67.2213 123.767 67.2213C123.898 67.2213 124.01 67.205 124.103 67.1723C124.201 67.135 124.285 67.0953 124.355 67.0533C124.425 67.0113 124.484 66.974 124.53 66.9413C124.582 66.904 124.626 66.8853 124.663 66.8853C124.729 66.8853 124.787 66.925 124.838 67.0043L125.202 67.5993C124.988 67.8 124.729 67.9587 124.425 68.0753C124.122 68.1873 123.809 68.2433 123.487 68.2433ZM129.368 60.9283C129.793 60.9283 130.185 61.0007 130.544 61.1453C130.903 61.2853 131.214 61.4907 131.475 61.7613C131.736 62.0273 131.939 62.3587 132.084 62.7553C132.233 63.1473 132.308 63.5953 132.308 64.0993C132.308 64.2953 132.287 64.426 132.245 64.4913C132.203 64.5567 132.124 64.5893 132.007 64.5893H127.289C127.298 65.0373 127.359 65.427 127.471 65.7583C127.583 66.0897 127.737 66.3673 127.933 66.5913C128.129 66.8107 128.362 66.9763 128.633 67.0883C128.904 67.1957 129.207 67.2493 129.543 67.2493C129.856 67.2493 130.124 67.2143 130.348 67.1443C130.577 67.0697 130.773 66.9903 130.936 66.9063C131.099 66.8223 131.235 66.7453 131.342 66.6753C131.454 66.6007 131.55 66.5633 131.629 66.5633C131.732 66.5633 131.811 66.603 131.867 66.6823L132.217 67.1373C132.063 67.324 131.879 67.4873 131.664 67.6273C131.449 67.7627 131.218 67.8747 130.971 67.9633C130.728 68.052 130.476 68.1173 130.215 68.1593C129.954 68.206 129.695 68.2293 129.438 68.2293C128.948 68.2293 128.495 68.1477 128.08 67.9843C127.669 67.8163 127.312 67.5737 127.009 67.2563C126.71 66.9343 126.477 66.5377 126.309 66.0663C126.141 65.595 126.057 65.0537 126.057 64.4423C126.057 63.9477 126.132 63.4857 126.281 63.0563C126.435 62.627 126.654 62.256 126.939 61.9433C127.224 61.626 127.571 61.3787 127.982 61.2013C128.393 61.0193 128.855 60.9283 129.368 60.9283ZM129.396 61.8453C128.794 61.8453 128.32 62.0203 127.975 62.3703C127.63 62.7157 127.415 63.1963 127.331 63.8123H131.188C131.188 63.523 131.148 63.2593 131.069 63.0213C130.99 62.7787 130.873 62.571 130.719 62.3983C130.565 62.221 130.376 62.0857 130.152 61.9923C129.933 61.8943 129.681 61.8453 129.396 61.8453ZM133.903 68.1313V61.0403H134.645C134.822 61.0403 134.934 61.1267 134.981 61.2993L135.072 62.0273C135.333 61.7053 135.625 61.4417 135.947 61.2363C136.274 61.031 136.652 60.9283 137.081 60.9283C137.562 60.9283 137.949 61.0613 138.243 61.3273C138.542 61.5933 138.756 61.9527 138.887 62.4053C138.985 62.1487 139.113 61.927 139.272 61.7403C139.435 61.5537 139.617 61.3997 139.818 61.2783C140.019 61.157 140.231 61.0683 140.455 61.0123C140.684 60.9563 140.915 60.9283 141.148 60.9283C141.521 60.9283 141.853 60.989 142.142 61.1103C142.436 61.227 142.683 61.3997 142.884 61.6283C143.089 61.857 143.246 62.1393 143.353 62.4753C143.46 62.8067 143.514 63.187 143.514 63.6163V68.1313H142.268V63.6163C142.268 63.061 142.147 62.641 141.904 62.3563C141.661 62.067 141.309 61.9223 140.847 61.9223C140.642 61.9223 140.446 61.9597 140.259 62.0343C140.077 62.1043 139.916 62.2093 139.776 62.3493C139.636 62.4893 139.524 62.6667 139.44 62.8813C139.361 63.0913 139.321 63.3363 139.321 63.6163V68.1313H138.075V63.6163C138.075 63.047 137.961 62.6223 137.732 62.3423C137.503 62.0623 137.17 61.9223 136.731 61.9223C136.423 61.9223 136.136 62.0063 135.87 62.1743C135.609 62.3377 135.368 62.5617 135.149 62.8463V68.1313H133.903ZM148.108 68.1313V61.0403H148.822C148.957 61.0403 149.051 61.066 149.102 61.1173C149.153 61.1687 149.188 61.2573 149.207 61.3833L149.291 62.4893C149.534 61.9947 149.832 61.6097 150.187 61.3343C150.546 61.0543 150.966 60.9143 151.447 60.9143C151.643 60.9143 151.82 60.9377 151.979 60.9843C152.138 61.0263 152.285 61.087 152.42 61.1663L152.259 62.0973C152.226 62.214 152.154 62.2723 152.042 62.2723C151.977 62.2723 151.876 62.2513 151.741 62.2093C151.606 62.1627 151.417 62.1393 151.174 62.1393C150.74 62.1393 150.376 62.2653 150.082 62.5173C149.793 62.7693 149.55 63.1357 149.354 63.6163V68.1313H148.108ZM156.561 60.9283C156.986 60.9283 157.378 61.0007 157.737 61.1453C158.097 61.2853 158.407 61.4907 158.668 61.7613C158.93 62.0273 159.133 62.3587 159.277 62.7553C159.427 63.1473 159.501 63.5953 159.501 64.0993C159.501 64.2953 159.48 64.426 159.438 64.4913C159.396 64.5567 159.317 64.5893 159.2 64.5893H154.482C154.492 65.0373 154.552 65.427 154.664 65.7583C154.776 66.0897 154.93 66.3673 155.126 66.5913C155.322 66.8107 155.556 66.9763 155.826 67.0883C156.097 67.1957 156.4 67.2493 156.736 67.2493C157.049 67.2493 157.317 67.2143 157.541 67.1443C157.77 67.0697 157.966 66.9903 158.129 66.9063C158.293 66.8223 158.428 66.7453 158.535 66.6753C158.647 66.6007 158.743 66.5633 158.822 66.5633C158.925 66.5633 159.004 66.603 159.06 66.6823L159.41 67.1373C159.256 67.324 159.072 67.4873 158.857 67.6273C158.643 67.7627 158.412 67.8747 158.164 67.9633C157.922 68.052 157.67 68.1173 157.408 68.1593C157.147 68.206 156.888 68.2293 156.631 68.2293C156.141 68.2293 155.689 68.1477 155.273 67.9843C154.863 67.8163 154.506 67.5737 154.202 67.2563C153.904 66.9343 153.67 66.5377 153.502 66.0663C153.334 65.595 153.25 65.0537 153.25 64.4423C153.25 63.9477 153.325 63.4857 153.474 63.0563C153.628 62.627 153.848 62.256 154.132 61.9433C154.417 61.626 154.765 61.3787 155.175 61.2013C155.586 61.0193 156.048 60.9283 156.561 60.9283ZM156.589 61.8453C155.987 61.8453 155.514 62.0203 155.168 62.3703C154.823 62.7157 154.608 63.1963 154.524 63.8123H158.381C158.381 63.523 158.342 63.2593 158.262 63.0213C158.183 62.7787 158.066 62.571 157.912 62.3983C157.758 62.221 157.569 62.0857 157.345 61.9923C157.126 61.8943 156.874 61.8453 156.589 61.8453ZM162.482 57.8203V68.1313H161.236V57.8203H162.482ZM167.485 60.9283C167.91 60.9283 168.302 61.0007 168.661 61.1453C169.021 61.2853 169.331 61.4907 169.592 61.7613C169.854 62.0273 170.057 62.3587 170.201 62.7553C170.351 63.1473 170.425 63.5953 170.425 64.0993C170.425 64.2953 170.404 64.426 170.362 64.4913C170.32 64.5567 170.241 64.5893 170.124 64.5893H165.406C165.416 65.0373 165.476 65.427 165.588 65.7583C165.7 66.0897 165.854 66.3673 166.05 66.5913C166.246 66.8107 166.48 66.9763 166.75 67.0883C167.021 67.1957 167.324 67.2493 167.66 67.2493C167.973 67.2493 168.241 67.2143 168.465 67.1443C168.694 67.0697 168.89 66.9903 169.053 66.9063C169.217 66.8223 169.352 66.7453 169.459 66.6753C169.571 66.6007 169.667 66.5633 169.746 66.5633C169.849 66.5633 169.928 66.603 169.984 66.6823L170.334 67.1373C170.18 67.324 169.996 67.4873 169.781 67.6273C169.567 67.7627 169.336 67.8747 169.088 67.9633C168.846 68.052 168.594 68.1173 168.332 68.1593C168.071 68.206 167.812 68.2293 167.555 68.2293C167.065 68.2293 166.613 68.1477 166.197 67.9843C165.787 67.8163 165.43 67.5737 165.126 67.2563C164.828 66.9343 164.594 66.5377 164.426 66.0663C164.258 65.595 164.174 65.0537 164.174 64.4423C164.174 63.9477 164.249 63.4857 164.398 63.0563C164.552 62.627 164.772 62.256 165.056 61.9433C165.341 61.626 165.689 61.3787 166.099 61.2013C166.51 61.0193 166.972 60.9283 167.485 60.9283ZM167.513 61.8453C166.911 61.8453 166.438 62.0203 166.092 62.3703C165.747 62.7157 165.532 63.1963 165.448 63.8123H169.305C169.305 63.523 169.266 63.2593 169.186 63.0213C169.107 62.7787 168.99 62.571 168.836 62.3983C168.682 62.221 168.493 62.0857 168.269 61.9923C168.05 61.8943 167.798 61.8453 167.513 61.8453ZM177.228 68.1313H176.675C176.554 68.1313 176.456 68.1127 176.381 68.0753C176.306 68.038 176.257 67.9587 176.234 67.8373L176.094 67.1793C175.907 67.3473 175.725 67.499 175.548 67.6343C175.371 67.765 175.184 67.877 174.988 67.9703C174.792 68.059 174.582 68.1267 174.358 68.1733C174.139 68.22 173.894 68.2433 173.623 68.2433C173.348 68.2433 173.089 68.206 172.846 68.1313C172.608 68.052 172.4 67.9353 172.223 67.7813C172.046 67.6273 171.903 67.4337 171.796 67.2003C171.693 66.9623 171.642 66.6823 171.642 66.3603C171.642 66.0803 171.719 65.812 171.873 65.5553C172.027 65.294 172.274 65.063 172.615 64.8623C172.96 64.6617 173.411 64.4983 173.966 64.3723C174.521 64.2417 175.2 64.167 176.003 64.1483V63.5953C176.003 63.0447 175.884 62.6293 175.646 62.3493C175.413 62.0647 175.065 61.9223 174.603 61.9223C174.3 61.9223 174.043 61.962 173.833 62.0413C173.628 62.116 173.448 62.2023 173.294 62.3003C173.145 62.3937 173.014 62.48 172.902 62.5593C172.795 62.634 172.687 62.6713 172.58 62.6713C172.496 62.6713 172.421 62.6503 172.356 62.6083C172.295 62.5617 172.246 62.5057 172.209 62.4403L171.985 62.0413C172.377 61.6633 172.799 61.381 173.252 61.1943C173.705 61.0077 174.206 60.9143 174.757 60.9143C175.154 60.9143 175.506 60.9797 175.814 61.1103C176.122 61.241 176.381 61.423 176.591 61.6563C176.801 61.8897 176.96 62.172 177.067 62.5033C177.174 62.8347 177.228 63.1987 177.228 63.5953V68.1313ZM173.994 67.3683C174.213 67.3683 174.414 67.3473 174.596 67.3053C174.778 67.2587 174.948 67.1957 175.107 67.1163C175.27 67.0323 175.424 66.932 175.569 66.8153C175.718 66.6987 175.863 66.5657 176.003 66.4163V64.9393C175.429 64.958 174.941 65.0047 174.54 65.0793C174.139 65.1493 173.812 65.2427 173.56 65.3593C173.308 65.476 173.124 65.6137 173.007 65.7723C172.895 65.931 172.839 66.1083 172.839 66.3043C172.839 66.491 172.869 66.652 172.93 66.7873C172.991 66.9227 173.072 67.0347 173.175 67.1233C173.278 67.2073 173.399 67.2703 173.539 67.3123C173.679 67.3497 173.831 67.3683 173.994 67.3683ZM183.176 62.2093C183.12 62.312 183.033 62.3633 182.917 62.3633C182.847 62.3633 182.767 62.3377 182.679 62.2863C182.59 62.235 182.48 62.179 182.35 62.1183C182.224 62.053 182.072 61.9947 181.895 61.9433C181.717 61.8873 181.507 61.8593 181.265 61.8593C181.055 61.8593 180.866 61.8873 180.698 61.9433C180.53 61.9947 180.385 62.067 180.264 62.1603C180.147 62.2537 180.056 62.3633 179.991 62.4893C179.93 62.6107 179.9 62.7437 179.9 62.8883C179.9 63.0703 179.951 63.222 180.054 63.3433C180.161 63.4647 180.301 63.5697 180.474 63.6583C180.646 63.747 180.842 63.8263 181.062 63.8963C181.281 63.9617 181.505 64.034 181.734 64.1133C181.967 64.188 182.193 64.272 182.413 64.3653C182.632 64.4587 182.828 64.5753 183.001 64.7153C183.173 64.8553 183.311 65.028 183.414 65.2333C183.521 65.434 183.575 65.6767 183.575 65.9613C183.575 66.288 183.516 66.5913 183.4 66.8713C183.283 67.1467 183.11 67.387 182.882 67.5923C182.653 67.793 182.373 67.9517 182.042 68.0683C181.71 68.185 181.328 68.2433 180.894 68.2433C180.399 68.2433 179.951 68.164 179.55 68.0053C179.148 67.842 178.808 67.6343 178.528 67.3823L178.822 66.9063C178.859 66.8457 178.903 66.799 178.955 66.7663C179.006 66.7337 179.074 66.7173 179.158 66.7173C179.242 66.7173 179.33 66.75 179.424 66.8153C179.517 66.8807 179.629 66.953 179.76 67.0323C179.895 67.1117 180.056 67.184 180.243 67.2493C180.434 67.3147 180.672 67.3473 180.957 67.3473C181.199 67.3473 181.412 67.317 181.594 67.2563C181.776 67.191 181.927 67.1047 182.049 66.9973C182.17 66.89 182.259 66.7663 182.315 66.6263C182.375 66.4863 182.406 66.337 182.406 66.1783C182.406 65.9823 182.352 65.8213 182.245 65.6953C182.142 65.5647 182.004 65.455 181.832 65.3663C181.659 65.273 181.461 65.1937 181.237 65.1283C181.017 65.0583 180.791 64.986 180.558 64.9113C180.329 64.8367 180.103 64.7527 179.879 64.6593C179.659 64.5613 179.463 64.44 179.291 64.2953C179.118 64.1507 178.978 63.9733 178.871 63.7633C178.768 63.5487 178.717 63.2897 178.717 62.9863C178.717 62.7157 178.773 62.4567 178.885 62.2093C178.997 61.9573 179.16 61.738 179.375 61.5513C179.589 61.36 179.853 61.2083 180.166 61.0963C180.478 60.9843 180.835 60.9283 181.237 60.9283C181.703 60.9283 182.121 61.003 182.49 61.1523C182.863 61.297 183.185 61.4977 183.456 61.7543L183.176 62.2093ZM187.993 60.9283C188.418 60.9283 188.81 61.0007 189.169 61.1453C189.528 61.2853 189.839 61.4907 190.1 61.7613C190.361 62.0273 190.564 62.3587 190.709 62.7553C190.858 63.1473 190.933 63.5953 190.933 64.0993C190.933 64.2953 190.912 64.426 190.87 64.4913C190.828 64.5567 190.749 64.5893 190.632 64.5893H185.914C185.923 65.0373 185.984 65.427 186.096 65.7583C186.208 66.0897 186.362 66.3673 186.558 66.5913C186.754 66.8107 186.987 66.9763 187.258 67.0883C187.529 67.1957 187.832 67.2493 188.168 67.2493C188.481 67.2493 188.749 67.2143 188.973 67.1443C189.202 67.0697 189.398 66.9903 189.561 66.9063C189.724 66.8223 189.86 66.7453 189.967 66.6753C190.079 66.6007 190.175 66.5633 190.254 66.5633C190.357 66.5633 190.436 66.603 190.492 66.6823L190.842 67.1373C190.688 67.324 190.504 67.4873 190.289 67.6273C190.074 67.7627 189.843 67.8747 189.596 67.9633C189.353 68.052 189.101 68.1173 188.84 68.1593C188.579 68.206 188.32 68.2293 188.063 68.2293C187.573 68.2293 187.12 68.1477 186.705 67.9843C186.294 67.8163 185.937 67.5737 185.634 67.2563C185.335 66.9343 185.102 66.5377 184.934 66.0663C184.766 65.595 184.682 65.0537 184.682 64.4423C184.682 63.9477 184.757 63.4857 184.906 63.0563C185.06 62.627 185.279 62.256 185.564 61.9433C185.849 61.626 186.196 61.3787 186.607 61.2013C187.018 61.0193 187.48 60.9283 187.993 60.9283ZM188.021 61.8453C187.419 61.8453 186.945 62.0203 186.6 62.3703C186.255 62.7157 186.04 63.1963 185.956 63.8123H189.813C189.813 63.523 189.773 63.2593 189.694 63.0213C189.615 62.7787 189.498 62.571 189.344 62.3983C189.19 62.221 189.001 62.0857 188.777 61.9923C188.558 61.8943 188.306 61.8453 188.021 61.8453Z"
    fill="white"
  />
<circle cx="18.5" cy="33.6313" r="3.5" fill="#3CD2F9" />
<circle cx="18.5" cy="65.4297" r="3.5" fill="#3CD2F9" />
<defs>
<linearGradient
      id="paint0_linear_126_63"
      x1="154.049"
      y1="0.666992"
      x2="154.049"
      y2="95.5956"
      gradientUnits="userSpaceOnUse"
    >
<stop stop-color="#EFEFEF" />
<stop offset="0.604167" stop-color="#EFEFEF" stop-opacity="0.325" />
<stop offset="1" stop-color="#EFEFEF" stop-opacity="0.3" />
</linearGradient>
</defs>
</svg>
