<svg
  width="309"
  height="191"
  viewBox="0 0 309 191"
  fill="none"
  xmlns="http://www.w3.org/2000/svg"
>
<rect
    y="0.666992"
    width="308.098"
    height="189.929"
    rx="17.4643"
    fill="url(#paint0_linear_15_353)"
    fill-opacity="0.1"
  />
<path
    d="M38.392 40.1313V28.6673H42.048C42.752 28.6673 43.3573 28.7367 43.864 28.8753C44.376 29.014 44.7947 29.2113 45.12 29.4673C45.4507 29.7233 45.6933 30.038 45.848 30.4113C46.008 30.7793 46.088 31.1953 46.088 31.6593C46.088 31.942 46.0427 32.214 45.952 32.4753C45.8667 32.7367 45.7333 32.9793 45.552 33.2033C45.376 33.4273 45.152 33.6273 44.88 33.8033C44.6133 33.9793 44.2987 34.1233 43.936 34.2353C44.7733 34.4007 45.4053 34.702 45.832 35.1393C46.2587 35.5767 46.472 36.1527 46.472 36.8673C46.472 37.3527 46.3813 37.7953 46.2 38.1953C46.024 38.5953 45.7627 38.9393 45.416 39.2273C45.0747 39.5153 44.6533 39.7393 44.152 39.8993C43.656 40.054 43.088 40.1313 42.448 40.1313H38.392ZM39.944 34.9073V38.8993H42.424C42.8667 38.8993 43.2453 38.8487 43.56 38.7473C43.88 38.646 44.1413 38.5047 44.344 38.3233C44.552 38.1367 44.704 37.918 44.8 37.6673C44.896 37.4113 44.944 37.1313 44.944 36.8273C44.944 36.2353 44.7333 35.7687 44.312 35.4273C43.896 35.0807 43.264 34.9073 42.416 34.9073H39.944ZM39.944 33.8033H41.992C42.4293 33.8033 42.808 33.7553 43.128 33.6593C43.448 33.5633 43.712 33.43 43.92 33.2593C44.1333 33.0887 44.2907 32.8833 44.392 32.6433C44.4933 32.398 44.544 32.1313 44.544 31.8433C44.544 31.1713 44.3413 30.678 43.936 30.3633C43.5307 30.0487 42.9013 29.8913 42.048 29.8913H39.944V33.8033ZM49.7594 32.0273V37.1953C49.7594 37.8087 49.9007 38.2833 50.1834 38.6193C50.466 38.9553 50.8927 39.1233 51.4634 39.1233C51.8794 39.1233 52.2714 39.0247 52.6394 38.8273C53.0074 38.63 53.346 38.3553 53.6554 38.0033V32.0273H55.0794V40.1313H54.2314C54.0287 40.1313 53.9007 40.0327 53.8474 39.8353L53.7354 38.9633C53.3834 39.3527 52.9887 39.6673 52.5514 39.9073C52.114 40.142 51.6127 40.2593 51.0474 40.2593C50.6047 40.2593 50.2127 40.1873 49.8714 40.0433C49.5354 39.894 49.2527 39.686 49.0234 39.4193C48.794 39.1527 48.6207 38.83 48.5034 38.4513C48.3914 38.0727 48.3354 37.654 48.3354 37.1953V32.0273H49.7594ZM59.002 32.0273V40.1313H57.578V32.0273H59.002ZM59.322 29.4833C59.322 29.622 59.2927 29.7527 59.234 29.8753C59.1807 29.9927 59.106 30.0993 59.01 30.1953C58.9193 30.286 58.8127 30.358 58.69 30.4113C58.5673 30.4647 58.4367 30.4913 58.298 30.4913C58.1593 30.4913 58.0287 30.4647 57.906 30.4113C57.7887 30.358 57.682 30.286 57.586 30.1953C57.4953 30.0993 57.4233 29.9927 57.37 29.8753C57.3167 29.7527 57.29 29.622 57.29 29.4833C57.29 29.3447 57.3167 29.214 57.37 29.0913C57.4233 28.9633 57.4953 28.854 57.586 28.7633C57.682 28.6673 57.7887 28.5927 57.906 28.5393C58.0287 28.486 58.1593 28.4593 58.298 28.4593C58.4367 28.4593 58.5673 28.486 58.69 28.5393C58.8127 28.5927 58.9193 28.6673 59.01 28.7633C59.106 28.854 59.1807 28.9633 59.234 29.0913C59.2927 29.214 59.322 29.3447 59.322 29.4833ZM63.0958 28.3473V40.1313H61.6718V28.3473H63.0958ZM71.3095 40.1313C71.1068 40.1313 70.9788 40.0327 70.9255 39.8353L70.7975 38.8513C70.4508 39.2727 70.0535 39.6113 69.6055 39.8673C69.1628 40.118 68.6535 40.2433 68.0775 40.2433C67.6135 40.2433 67.1922 40.1553 66.8135 39.9793C66.4348 39.798 66.1122 39.534 65.8455 39.1873C65.5788 38.8407 65.3735 38.4087 65.2295 37.8913C65.0855 37.374 65.0135 36.7793 65.0135 36.1073C65.0135 35.51 65.0935 34.9553 65.2535 34.4433C65.4135 33.926 65.6428 33.478 65.9415 33.0993C66.2455 32.7207 66.6135 32.4247 67.0455 32.2113C67.4775 31.9927 67.9682 31.8833 68.5175 31.8833C69.0135 31.8833 69.4375 31.9687 69.7895 32.1393C70.1415 32.3047 70.4562 32.5393 70.7335 32.8433V28.3473H72.1575V40.1313H71.3095ZM68.5495 39.0913C69.0135 39.0913 69.4188 38.9847 69.7655 38.7713C70.1175 38.558 70.4402 38.2567 70.7335 37.8673V33.9473C70.4722 33.5953 70.1842 33.35 69.8695 33.2113C69.5602 33.0673 69.2162 32.9953 68.8375 32.9953C68.0802 32.9953 67.4988 33.2647 67.0935 33.8033C66.6882 34.342 66.4855 35.11 66.4855 36.1073C66.4855 36.6353 66.5308 37.0887 66.6215 37.4673C66.7122 37.8407 66.8455 38.15 67.0215 38.3953C67.1975 38.6353 67.4135 38.8113 67.6695 38.9233C67.9255 39.0353 68.2188 39.0913 68.5495 39.0913ZM76.127 32.0273V40.1313H74.703V32.0273H76.127ZM76.447 29.4833C76.447 29.622 76.4177 29.7527 76.359 29.8753C76.3057 29.9927 76.231 30.0993 76.135 30.1953C76.0443 30.286 75.9377 30.358 75.815 30.4113C75.6923 30.4647 75.5617 30.4913 75.423 30.4913C75.2843 30.4913 75.1537 30.4647 75.031 30.4113C74.9137 30.358 74.807 30.286 74.711 30.1953C74.6203 30.0993 74.5483 29.9927 74.495 29.8753C74.4417 29.7527 74.415 29.622 74.415 29.4833C74.415 29.3447 74.4417 29.214 74.495 29.0913C74.5483 28.9633 74.6203 28.854 74.711 28.7633C74.807 28.6673 74.9137 28.5927 75.031 28.5393C75.1537 28.486 75.2843 28.4593 75.423 28.4593C75.5617 28.4593 75.6923 28.486 75.815 28.5393C75.9377 28.5927 76.0443 28.6673 76.135 28.7633C76.231 28.854 76.3057 28.9633 76.359 29.0913C76.4177 29.214 76.447 29.3447 76.447 29.4833ZM78.6368 40.1313V32.0273H79.4848C79.6874 32.0273 79.8154 32.126 79.8688 32.3233L79.9808 33.2033C80.3328 32.814 80.7248 32.4993 81.1568 32.2593C81.5941 32.0193 82.0981 31.8993 82.6688 31.8993C83.1114 31.8993 83.5008 31.974 83.8368 32.1233C84.1781 32.2673 84.4608 32.4753 84.6848 32.7473C84.9141 33.014 85.0874 33.3367 85.2048 33.7153C85.3221 34.094 85.3808 34.5127 85.3808 34.9713V40.1313H83.9568V34.9713C83.9568 34.358 83.8154 33.8833 83.5328 33.5473C83.2554 33.206 82.8288 33.0353 82.2528 33.0353C81.8314 33.0353 81.4368 33.1367 81.0688 33.3393C80.7061 33.542 80.3701 33.8167 80.0608 34.1633V40.1313H78.6368ZM90.2554 31.8913C90.6074 31.8913 90.9354 31.9313 91.2394 32.0113C91.5487 32.086 91.8287 32.198 92.0794 32.3473H94.2794V32.8753C94.2794 33.0513 94.1674 33.1633 93.9434 33.2113L93.0234 33.3393C93.2047 33.686 93.2954 34.0727 93.2954 34.4993C93.2954 34.894 93.218 35.254 93.0634 35.5793C92.914 35.8993 92.7034 36.174 92.4314 36.4033C92.1647 36.6327 91.8447 36.8087 91.4714 36.9313C91.1034 37.054 90.698 37.1153 90.2554 37.1153C89.8767 37.1153 89.5194 37.07 89.1834 36.9793C89.0127 37.086 88.882 37.2007 88.7914 37.3233C88.706 37.446 88.6634 37.566 88.6634 37.6833C88.6634 37.8753 88.7407 38.022 88.8954 38.1233C89.05 38.2193 89.2554 38.2887 89.5114 38.3313C89.7674 38.374 90.058 38.4007 90.3834 38.4113C90.7087 38.422 91.0394 38.4407 91.3754 38.4673C91.7167 38.4887 92.05 38.5287 92.3754 38.5873C92.7007 38.646 92.9914 38.742 93.2474 38.8753C93.5034 39.0087 93.7087 39.1927 93.8634 39.4273C94.018 39.662 94.0954 39.966 94.0954 40.3393C94.0954 40.686 94.0074 41.022 93.8314 41.3473C93.6607 41.6727 93.4127 41.9607 93.0874 42.2113C92.762 42.4673 92.3647 42.67 91.8954 42.8193C91.426 42.974 90.8954 43.0513 90.3034 43.0513C89.7114 43.0513 89.1914 42.9927 88.7434 42.8753C88.3007 42.758 87.9327 42.6007 87.6394 42.4033C87.346 42.206 87.1247 41.9767 86.9754 41.7153C86.8314 41.4593 86.7594 41.19 86.7594 40.9073C86.7594 40.5073 86.8847 40.1687 87.1354 39.8913C87.3914 39.6087 87.7407 39.3847 88.1834 39.2193C87.954 39.1127 87.77 38.9713 87.6314 38.7953C87.498 38.614 87.4314 38.374 87.4314 38.0753C87.4314 37.958 87.4527 37.838 87.4954 37.7153C87.538 37.5873 87.602 37.462 87.6874 37.3393C87.778 37.2167 87.8874 37.0993 88.0154 36.9873C88.1434 36.8753 88.2927 36.7767 88.4634 36.6913C88.0634 36.4673 87.7487 36.1713 87.5194 35.8033C87.2954 35.43 87.1834 34.9953 87.1834 34.4993C87.1834 34.1047 87.258 33.7473 87.4074 33.4273C87.562 33.102 87.7754 32.8273 88.0474 32.6033C88.3194 32.374 88.642 32.198 89.0154 32.0753C89.394 31.9527 89.8074 31.8913 90.2554 31.8913ZM92.7834 40.5713C92.7834 40.3687 92.7274 40.206 92.6154 40.0833C92.5034 39.9607 92.3514 39.8673 92.1594 39.8033C91.9674 39.734 91.746 39.6833 91.4954 39.6513C91.2447 39.6193 90.9807 39.598 90.7034 39.5873C90.426 39.5713 90.1434 39.5553 89.8554 39.5393C89.5674 39.5233 89.2927 39.494 89.0314 39.4513C88.7274 39.5953 88.4794 39.7713 88.2874 39.9793C88.1007 40.1873 88.0074 40.4353 88.0074 40.7233C88.0074 40.9047 88.0527 41.0727 88.1434 41.2273C88.2394 41.3873 88.3834 41.5233 88.5754 41.6353C88.7674 41.7527 89.0074 41.8433 89.2954 41.9073C89.5887 41.9767 89.9327 42.0113 90.3274 42.0113C90.7114 42.0113 91.0554 41.9767 91.3594 41.9073C91.6634 41.838 91.9194 41.7393 92.1274 41.6113C92.3407 41.4833 92.5034 41.3313 92.6154 41.1553C92.7274 40.9793 92.7834 40.7847 92.7834 40.5713ZM90.2554 36.1713C90.5434 36.1713 90.7967 36.1313 91.0154 36.0513C91.2394 35.9713 91.426 35.8593 91.5754 35.7153C91.7247 35.5713 91.8367 35.4007 91.9114 35.2033C91.986 35.0007 92.0234 34.7793 92.0234 34.5393C92.0234 34.0433 91.8714 33.6487 91.5674 33.3553C91.2687 33.062 90.8314 32.9153 90.2554 32.9153C89.6847 32.9153 89.2474 33.062 88.9434 33.3553C88.6447 33.6487 88.4954 34.0433 88.4954 34.5393C88.4954 34.7793 88.5327 35.0007 88.6074 35.2033C88.6874 35.4007 88.802 35.5713 88.9514 35.7153C89.1007 35.8593 89.2847 35.9713 89.5034 36.0513C89.722 36.1313 89.9727 36.1713 90.2554 36.1713ZM101.249 40.2593C100.609 40.2593 100.116 40.0807 99.769 39.7233C99.4277 39.366 99.257 38.8513 99.257 38.1793V33.2193H98.281C98.1957 33.2193 98.1237 33.1953 98.065 33.1473C98.0063 33.094 97.977 33.014 97.977 32.9073V32.3393L99.305 32.1713L99.633 29.6673C99.6437 29.5873 99.6783 29.5233 99.737 29.4753C99.7957 29.422 99.8703 29.3953 99.961 29.3953H100.681V32.1873H103.001V33.2193H100.681V38.0833C100.681 38.4247 100.764 38.678 100.929 38.8433C101.094 39.0087 101.308 39.0913 101.569 39.0913C101.718 39.0913 101.846 39.0727 101.953 39.0353C102.065 38.9927 102.161 38.9473 102.241 38.8993C102.321 38.8513 102.388 38.8087 102.441 38.7713C102.5 38.7287 102.55 38.7073 102.593 38.7073C102.668 38.7073 102.734 38.7527 102.793 38.8433L103.209 39.5233C102.964 39.7527 102.668 39.934 102.321 40.0673C101.974 40.1953 101.617 40.2593 101.249 40.2593ZM107.97 31.8993C108.455 31.8993 108.903 31.982 109.314 32.1473C109.724 32.3073 110.079 32.542 110.378 32.8513C110.676 33.1553 110.908 33.534 111.074 33.9873C111.244 34.4353 111.33 34.9473 111.33 35.5233C111.33 35.7473 111.306 35.8967 111.258 35.9713C111.21 36.046 111.119 36.0833 110.986 36.0833H105.594C105.604 36.5953 105.674 37.0407 105.802 37.4193C105.93 37.798 106.106 38.1153 106.33 38.3713C106.554 38.622 106.82 38.8113 107.13 38.9393C107.439 39.062 107.786 39.1233 108.17 39.1233C108.527 39.1233 108.834 39.0833 109.09 39.0033C109.351 38.918 109.575 38.8273 109.762 38.7313C109.948 38.6353 110.103 38.5473 110.226 38.4673C110.354 38.382 110.463 38.3393 110.554 38.3393C110.671 38.3393 110.762 38.3847 110.826 38.4753L111.226 38.9953C111.05 39.2087 110.839 39.3953 110.594 39.5553C110.348 39.71 110.084 39.838 109.802 39.9393C109.524 40.0407 109.236 40.1153 108.938 40.1633C108.639 40.2167 108.343 40.2433 108.05 40.2433C107.49 40.2433 106.972 40.15 106.498 39.9633C106.028 39.7713 105.62 39.494 105.274 39.1313C104.932 38.7633 104.666 38.31 104.474 37.7713C104.282 37.2327 104.186 36.614 104.186 35.9153C104.186 35.35 104.271 34.822 104.442 34.3313C104.618 33.8407 104.868 33.4167 105.194 33.0593C105.519 32.6967 105.916 32.414 106.386 32.2113C106.855 32.0033 107.383 31.8993 107.97 31.8993ZM108.002 32.9473C107.314 32.9473 106.772 33.1473 106.378 33.5473C105.983 33.942 105.738 34.4913 105.642 35.1953H110.05C110.05 34.8647 110.004 34.5633 109.914 34.2913C109.823 34.014 109.69 33.7767 109.514 33.5793C109.338 33.3767 109.122 33.222 108.866 33.1153C108.615 33.0033 108.327 32.9473 108.002 32.9473ZM119.104 40.1313H118.472C118.334 40.1313 118.222 40.11 118.136 40.0673C118.051 40.0247 117.995 39.934 117.968 39.7953L117.808 39.0433C117.595 39.2353 117.387 39.4087 117.184 39.5633C116.982 39.7127 116.768 39.8407 116.544 39.9473C116.32 40.0487 116.08 40.126 115.824 40.1793C115.574 40.2327 115.294 40.2593 114.984 40.2593C114.67 40.2593 114.374 40.2167 114.096 40.1313C113.824 40.0407 113.587 39.9073 113.384 39.7313C113.182 39.5553 113.019 39.334 112.896 39.0673C112.779 38.7953 112.72 38.4753 112.72 38.1073C112.72 37.7873 112.808 37.4807 112.984 37.1873C113.16 36.8887 113.443 36.6247 113.832 36.3953C114.227 36.166 114.742 35.9793 115.376 35.8353C116.011 35.686 116.787 35.6007 117.704 35.5793V34.9473C117.704 34.318 117.568 33.8433 117.296 33.5233C117.03 33.198 116.632 33.0353 116.104 33.0353C115.758 33.0353 115.464 33.0807 115.224 33.1713C114.99 33.2567 114.784 33.3553 114.608 33.4673C114.438 33.574 114.288 33.6727 114.16 33.7633C114.038 33.8487 113.915 33.8913 113.792 33.8913C113.696 33.8913 113.611 33.8673 113.536 33.8193C113.467 33.766 113.411 33.702 113.368 33.6273L113.112 33.1713C113.56 32.7393 114.043 32.4167 114.56 32.2033C115.078 31.99 115.651 31.8833 116.28 31.8833C116.734 31.8833 117.136 31.958 117.488 32.1073C117.84 32.2567 118.136 32.4647 118.376 32.7313C118.616 32.998 118.798 33.3207 118.92 33.6993C119.043 34.078 119.104 34.494 119.104 34.9473V40.1313ZM115.408 39.2593C115.659 39.2593 115.888 39.2353 116.096 39.1873C116.304 39.134 116.499 39.062 116.68 38.9713C116.867 38.8753 117.043 38.7607 117.208 38.6273C117.379 38.494 117.544 38.342 117.704 38.1713V36.4833C117.048 36.5047 116.491 36.558 116.032 36.6433C115.574 36.7233 115.2 36.83 114.912 36.9633C114.624 37.0967 114.414 37.254 114.28 37.4353C114.152 37.6167 114.088 37.8193 114.088 38.0433C114.088 38.2567 114.123 38.4407 114.192 38.5953C114.262 38.75 114.355 38.878 114.472 38.9793C114.59 39.0753 114.728 39.1473 114.888 39.1953C115.048 39.238 115.222 39.2593 115.408 39.2593ZM121.262 40.1313V32.0273H122.11C122.312 32.0273 122.44 32.126 122.494 32.3233L122.598 33.1553C122.896 32.7873 123.23 32.486 123.598 32.2513C123.971 32.0167 124.403 31.8993 124.894 31.8993C125.443 31.8993 125.886 32.0513 126.222 32.3553C126.563 32.6593 126.808 33.07 126.958 33.5873C127.07 33.294 127.216 33.0407 127.398 32.8273C127.584 32.614 127.792 32.438 128.022 32.2993C128.251 32.1607 128.494 32.0593 128.75 31.9953C129.011 31.9313 129.275 31.8993 129.542 31.8993C129.968 31.8993 130.347 31.9687 130.678 32.1073C131.014 32.2407 131.296 32.438 131.526 32.6993C131.76 32.9607 131.939 33.2833 132.062 33.6673C132.184 34.046 132.246 34.4807 132.246 34.9713V40.1313H130.822V34.9713C130.822 34.3367 130.683 33.8567 130.406 33.5313C130.128 33.2007 129.726 33.0353 129.198 33.0353C128.963 33.0353 128.739 33.078 128.526 33.1633C128.318 33.2433 128.134 33.3633 127.974 33.5233C127.814 33.6833 127.686 33.886 127.59 34.1313C127.499 34.3713 127.454 34.6513 127.454 34.9713V40.1313H126.03V34.9713C126.03 34.3207 125.899 33.8353 125.638 33.5153C125.376 33.1953 124.995 33.0353 124.494 33.0353C124.142 33.0353 123.814 33.1313 123.51 33.3233C123.211 33.51 122.936 33.766 122.686 34.0913V40.1313H121.262ZM48.328 65.4033C48.328 66.262 48.192 67.0433 47.92 67.7473C47.648 68.4513 47.264 69.054 46.768 69.5553C46.272 70.0567 45.6773 70.446 44.984 70.7233C44.2907 70.9953 43.5227 71.1313 42.68 71.1313H38.392V59.6673H42.68C43.5227 59.6673 44.2907 59.806 44.984 60.0833C45.6773 60.3553 46.272 60.7447 46.768 61.2513C47.264 61.7527 47.648 62.3553 47.92 63.0593C48.192 63.7633 48.328 64.5447 48.328 65.4033ZM46.736 65.4033C46.736 64.6993 46.64 64.07 46.448 63.5153C46.256 62.9607 45.984 62.4913 45.632 62.1073C45.28 61.7233 44.8533 61.43 44.352 61.2273C43.8507 61.0247 43.2933 60.9233 42.68 60.9233H39.952V69.8753H42.68C43.2933 69.8753 43.8507 69.774 44.352 69.5713C44.8533 69.3687 45.28 69.078 45.632 68.6993C45.984 68.3153 46.256 67.846 46.448 67.2913C46.64 66.7367 46.736 66.1073 46.736 65.4033ZM59.5271 71.1313H58.3271C58.1885 71.1313 58.0765 71.0967 57.9911 71.0273C57.9058 70.958 57.8418 70.87 57.7991 70.7633L56.7271 67.9953H51.5831L50.5111 70.7633C50.4738 70.8593 50.4098 70.9447 50.3191 71.0193C50.2285 71.094 50.1165 71.1313 49.9831 71.1313H48.7831L53.3671 59.6673H54.9431L59.5271 71.1313ZM52.0151 66.8753H56.2951L54.4951 62.2113C54.3778 61.9233 54.2631 61.5633 54.1511 61.1313C54.0925 61.35 54.0338 61.5527 53.9751 61.7393C53.9218 61.9207 53.8685 62.0807 53.8151 62.2193L52.0151 66.8753ZM60.7461 73.8753V63.0273H61.5941C61.7968 63.0273 61.9248 63.126 61.9781 63.3233L62.0981 64.2833C62.4448 63.862 62.8395 63.5233 63.2821 63.2673C63.7301 63.0113 64.2448 62.8833 64.8261 62.8833C65.2901 62.8833 65.7115 62.974 66.0901 63.1553C66.4688 63.3313 66.7915 63.5953 67.0581 63.9473C67.3248 64.294 67.5301 64.726 67.6741 65.2433C67.8181 65.7607 67.8901 66.3553 67.8901 67.0273C67.8901 67.6247 67.8101 68.182 67.6501 68.6993C67.4901 69.2113 67.2608 69.6567 66.9621 70.0353C66.6635 70.4087 66.2955 70.7047 65.8581 70.9233C65.4261 71.1367 64.9381 71.2433 64.3941 71.2433C63.8928 71.2433 63.4635 71.1607 63.1061 70.9953C62.7541 70.83 62.4421 70.5953 62.1701 70.2913V73.8753H60.7461ZM64.3541 64.0353C63.8901 64.0353 63.4821 64.142 63.1301 64.3553C62.7835 64.5687 62.4635 64.87 62.1701 65.2593V69.1793C62.4315 69.5313 62.7168 69.7793 63.0261 69.9233C63.3408 70.0673 63.6901 70.1393 64.0741 70.1393C64.8261 70.1393 65.4048 69.87 65.8101 69.3313C66.2155 68.7927 66.4181 68.0247 66.4181 67.0273C66.4181 66.4993 66.3701 66.046 66.2741 65.6673C66.1835 65.2887 66.0501 64.9793 65.8741 64.7393C65.6981 64.494 65.4821 64.3153 65.2261 64.2033C64.9701 64.0913 64.6795 64.0353 64.3541 64.0353ZM69.5743 73.8753V63.0273H70.4223C70.6249 63.0273 70.7529 63.126 70.8063 63.3233L70.9263 64.2833C71.2729 63.862 71.6676 63.5233 72.1103 63.2673C72.5583 63.0113 73.0729 62.8833 73.6543 62.8833C74.1183 62.8833 74.5396 62.974 74.9183 63.1553C75.2969 63.3313 75.6196 63.5953 75.8863 63.9473C76.1529 64.294 76.3583 64.726 76.5023 65.2433C76.6463 65.7607 76.7183 66.3553 76.7183 67.0273C76.7183 67.6247 76.6383 68.182 76.4783 68.6993C76.3183 69.2113 76.0889 69.6567 75.7903 70.0353C75.4916 70.4087 75.1236 70.7047 74.6863 70.9233C74.2543 71.1367 73.7663 71.2433 73.2223 71.2433C72.7209 71.2433 72.2916 71.1607 71.9343 70.9953C71.5823 70.83 71.2703 70.5953 70.9983 70.2913V73.8753H69.5743ZM73.1823 64.0353C72.7183 64.0353 72.3103 64.142 71.9583 64.3553C71.6116 64.5687 71.2916 64.87 70.9983 65.2593V69.1793C71.2596 69.5313 71.5449 69.7793 71.8543 69.9233C72.1689 70.0673 72.5183 70.1393 72.9023 70.1393C73.6543 70.1393 74.2329 69.87 74.6383 69.3313C75.0436 68.7927 75.2463 68.0247 75.2463 67.0273C75.2463 66.4993 75.1983 66.046 75.1023 65.6673C75.0116 65.2887 74.8783 64.9793 74.7023 64.7393C74.5263 64.494 74.3103 64.3153 74.0543 64.2033C73.7983 64.0913 73.5076 64.0353 73.1823 64.0353ZM91.6561 65.4033C91.6561 66.262 91.5201 67.0433 91.2481 67.7473C90.9761 68.4513 90.5921 69.054 90.0961 69.5553C89.6001 70.0567 89.0055 70.446 88.3121 70.7233C87.6188 70.9953 86.8508 71.1313 86.0081 71.1313H81.7201V59.6673H86.0081C86.8508 59.6673 87.6188 59.806 88.3121 60.0833C89.0055 60.3553 89.6001 60.7447 90.0961 61.2513C90.5921 61.7527 90.9761 62.3553 91.2481 63.0593C91.5201 63.7633 91.6561 64.5447 91.6561 65.4033ZM90.0641 65.4033C90.0641 64.6993 89.9681 64.07 89.7761 63.5153C89.5841 62.9607 89.3121 62.4913 88.9601 62.1073C88.6081 61.7233 88.1815 61.43 87.6801 61.2273C87.1788 61.0247 86.6215 60.9233 86.0081 60.9233H83.2801V69.8753H86.0081C86.6215 69.8753 87.1788 69.774 87.6801 69.5713C88.1815 69.3687 88.6081 69.078 88.9601 68.6993C89.3121 68.3153 89.5841 67.846 89.7761 67.2913C89.9681 66.7367 90.0641 66.1073 90.0641 65.4033ZM96.751 62.8993C97.2363 62.8993 97.6843 62.982 98.095 63.1473C98.5057 63.3073 98.8603 63.542 99.159 63.8513C99.4577 64.1553 99.6897 64.534 99.855 64.9873C100.026 65.4353 100.111 65.9473 100.111 66.5233C100.111 66.7473 100.087 66.8967 100.039 66.9713C99.991 67.046 99.9003 67.0833 99.767 67.0833H94.375C94.3857 67.5953 94.455 68.0407 94.583 68.4193C94.711 68.798 94.887 69.1153 95.111 69.3713C95.335 69.622 95.6017 69.8113 95.911 69.9393C96.2203 70.062 96.567 70.1233 96.951 70.1233C97.3083 70.1233 97.615 70.0833 97.871 70.0033C98.1323 69.918 98.3563 69.8273 98.543 69.7313C98.7297 69.6353 98.8843 69.5473 99.007 69.4673C99.135 69.382 99.2443 69.3393 99.335 69.3393C99.4523 69.3393 99.543 69.3847 99.607 69.4753L100.007 69.9953C99.831 70.2087 99.6203 70.3953 99.375 70.5553C99.1297 70.71 98.8657 70.838 98.583 70.9393C98.3057 71.0407 98.0177 71.1153 97.719 71.1633C97.4203 71.2167 97.1243 71.2433 96.831 71.2433C96.271 71.2433 95.7537 71.15 95.279 70.9633C94.8097 70.7713 94.4017 70.494 94.055 70.1313C93.7137 69.7633 93.447 69.31 93.255 68.7713C93.063 68.2327 92.967 67.614 92.967 66.9153C92.967 66.35 93.0523 65.822 93.223 65.3313C93.399 64.8407 93.6497 64.4167 93.975 64.0593C94.3003 63.6967 94.6977 63.414 95.167 63.2113C95.6363 63.0033 96.1643 62.8993 96.751 62.8993ZM96.783 63.9473C96.095 63.9473 95.5537 64.1473 95.159 64.5473C94.7643 64.942 94.519 65.4913 94.423 66.1953H98.831C98.831 65.8647 98.7857 65.5633 98.695 65.2913C98.6043 65.014 98.471 64.7767 98.295 64.5793C98.119 64.3767 97.903 64.222 97.647 64.1153C97.3963 64.0033 97.1083 63.9473 96.783 63.9473ZM100.707 63.0273H101.875C101.987 63.0273 102.08 63.0567 102.155 63.1153C102.229 63.174 102.283 63.2433 102.315 63.3233L104.371 68.5393C104.445 68.7313 104.504 68.9233 104.547 69.1153C104.589 69.3073 104.629 69.4967 104.667 69.6833C104.709 69.4967 104.755 69.3073 104.803 69.1153C104.851 68.9233 104.912 68.7313 104.987 68.5393L107.067 63.3233C107.099 63.238 107.149 63.1687 107.219 63.1153C107.293 63.0567 107.384 63.0273 107.491 63.0273H108.602L105.299 71.1313H104.011L100.707 63.0273ZM112.923 62.8993C113.408 62.8993 113.856 62.982 114.267 63.1473C114.678 63.3073 115.032 63.542 115.331 63.8513C115.63 64.1553 115.862 64.534 116.027 64.9873C116.198 65.4353 116.283 65.9473 116.283 66.5233C116.283 66.7473 116.259 66.8967 116.211 66.9713C116.163 67.046 116.072 67.0833 115.939 67.0833H110.547C110.558 67.5953 110.627 68.0407 110.755 68.4193C110.883 68.798 111.059 69.1153 111.283 69.3713C111.507 69.622 111.774 69.8113 112.083 69.9393C112.392 70.062 112.739 70.1233 113.123 70.1233C113.48 70.1233 113.787 70.0833 114.043 70.0033C114.304 69.918 114.528 69.8273 114.715 69.7313C114.902 69.6353 115.056 69.5473 115.179 69.4673C115.307 69.382 115.416 69.3393 115.507 69.3393C115.624 69.3393 115.715 69.3847 115.779 69.4753L116.179 69.9953C116.003 70.2087 115.792 70.3953 115.547 70.5553C115.302 70.71 115.038 70.838 114.755 70.9393C114.478 71.0407 114.19 71.1153 113.891 71.1633C113.592 71.2167 113.296 71.2433 113.003 71.2433C112.443 71.2433 111.926 71.15 111.451 70.9633C110.982 70.7713 110.574 70.494 110.227 70.1313C109.886 69.7633 109.619 69.31 109.427 68.7713C109.235 68.2327 109.139 67.614 109.139 66.9153C109.139 66.35 109.224 65.822 109.395 65.3313C109.571 64.8407 109.822 64.4167 110.147 64.0593C110.472 63.6967 110.87 63.414 111.339 63.2113C111.808 63.0033 112.336 62.8993 112.923 62.8993ZM112.955 63.9473C112.267 63.9473 111.726 64.1473 111.331 64.5473C110.936 64.942 110.691 65.4913 110.595 66.1953H115.003C115.003 65.8647 114.958 65.5633 114.867 65.2913C114.776 65.014 114.643 64.7767 114.467 64.5793C114.291 64.3767 114.075 64.222 113.819 64.1153C113.568 64.0033 113.28 63.9473 112.955 63.9473ZM119.69 59.3473V71.1313H118.266V59.3473H119.69ZM125.479 62.8993C126.071 62.8993 126.605 62.998 127.079 63.1953C127.559 63.3927 127.965 63.6727 128.295 64.0353C128.631 64.398 128.887 64.838 129.063 65.3553C129.245 65.8673 129.335 66.4407 129.335 67.0753C129.335 67.7153 129.245 68.2913 129.063 68.8033C128.887 69.3153 128.631 69.7527 128.295 70.1153C127.965 70.478 127.559 70.758 127.079 70.9553C126.605 71.1473 126.071 71.2433 125.479 71.2433C124.887 71.2433 124.351 71.1473 123.871 70.9553C123.397 70.758 122.991 70.478 122.655 70.1153C122.319 69.7527 122.061 69.3153 121.879 68.8033C121.698 68.2913 121.607 67.7153 121.607 67.0753C121.607 66.4407 121.698 65.8673 121.879 65.3553C122.061 64.838 122.319 64.398 122.655 64.0353C122.991 63.6727 123.397 63.3927 123.871 63.1953C124.351 62.998 124.887 62.8993 125.479 62.8993ZM125.479 70.1313C126.279 70.1313 126.877 69.8647 127.271 69.3313C127.666 68.7927 127.863 68.0433 127.863 67.0833C127.863 66.118 127.666 65.366 127.271 64.8273C126.877 64.2887 126.279 64.0193 125.479 64.0193C125.074 64.0193 124.722 64.0887 124.423 64.2273C124.125 64.366 123.874 64.566 123.671 64.8273C123.474 65.0887 123.325 65.4113 123.223 65.7953C123.127 66.174 123.079 66.6033 123.079 67.0833C123.079 67.5633 123.127 67.9927 123.223 68.3713C123.325 68.75 123.474 69.07 123.671 69.3313C123.874 69.5873 124.125 69.7847 124.423 69.9233C124.722 70.062 125.074 70.1313 125.479 70.1313ZM131.09 73.8753V63.0273H131.938C132.141 63.0273 132.269 63.126 132.322 63.3233L132.442 64.2833C132.789 63.862 133.183 63.5233 133.626 63.2673C134.074 63.0113 134.589 62.8833 135.17 62.8833C135.634 62.8833 136.055 62.974 136.434 63.1553C136.813 63.3313 137.135 63.5953 137.402 63.9473C137.669 64.294 137.874 64.726 138.018 65.2433C138.162 65.7607 138.234 66.3553 138.234 67.0273C138.234 67.6247 138.154 68.182 137.994 68.6993C137.834 69.2113 137.605 69.6567 137.306 70.0353C137.007 70.4087 136.639 70.7047 136.202 70.9233C135.77 71.1367 135.282 71.2433 134.738 71.2433C134.237 71.2433 133.807 71.1607 133.45 70.9953C133.098 70.83 132.786 70.5953 132.514 70.2913V73.8753H131.09ZM134.698 64.0353C134.234 64.0353 133.826 64.142 133.474 64.3553C133.127 64.5687 132.807 64.87 132.514 65.2593V69.1793C132.775 69.5313 133.061 69.7793 133.37 69.9233C133.685 70.0673 134.034 70.1393 134.418 70.1393C135.17 70.1393 135.749 69.87 136.154 69.3313C136.559 68.7927 136.762 68.0247 136.762 67.0273C136.762 66.4993 136.714 66.046 136.618 65.6673C136.527 65.2887 136.394 64.9793 136.218 64.7393C136.042 64.494 135.826 64.3153 135.57 64.2033C135.314 64.0913 135.023 64.0353 134.698 64.0353ZM139.918 71.1313V63.0273H140.766C140.969 63.0273 141.097 63.126 141.15 63.3233L141.254 64.1553C141.553 63.7873 141.886 63.486 142.254 63.2513C142.627 63.0167 143.059 62.8993 143.55 62.8993C144.099 62.8993 144.542 63.0513 144.878 63.3553C145.219 63.6593 145.465 64.07 145.614 64.5873C145.726 64.294 145.873 64.0407 146.054 63.8273C146.241 63.614 146.449 63.438 146.678 63.2993C146.907 63.1607 147.15 63.0593 147.406 62.9953C147.667 62.9313 147.931 62.8993 148.198 62.8993C148.625 62.8993 149.003 62.9687 149.334 63.1073C149.67 63.2407 149.953 63.438 150.182 63.6993C150.417 63.9607 150.595 64.2833 150.718 64.6673C150.841 65.046 150.902 65.4807 150.902 65.9713V71.1313H149.478V65.9713C149.478 65.3367 149.339 64.8567 149.062 64.5313C148.785 64.2007 148.382 64.0353 147.854 64.0353C147.619 64.0353 147.395 64.078 147.182 64.1633C146.974 64.2433 146.79 64.3633 146.63 64.5233C146.47 64.6833 146.342 64.886 146.246 65.1313C146.155 65.3713 146.11 65.6513 146.11 65.9713V71.1313H144.686V65.9713C144.686 65.3207 144.555 64.8353 144.294 64.5153C144.033 64.1953 143.651 64.0353 143.15 64.0353C142.798 64.0353 142.47 64.1313 142.166 64.3233C141.867 64.51 141.593 64.766 141.342 65.0913V71.1313H139.918ZM156.267 62.8993C156.752 62.8993 157.2 62.982 157.611 63.1473C158.021 63.3073 158.376 63.542 158.675 63.8513C158.973 64.1553 159.205 64.534 159.371 64.9873C159.541 65.4353 159.627 65.9473 159.627 66.5233C159.627 66.7473 159.603 66.8967 159.555 66.9713C159.507 67.046 159.416 67.0833 159.283 67.0833H153.891C153.901 67.5953 153.971 68.0407 154.099 68.4193C154.227 68.798 154.403 69.1153 154.627 69.3713C154.851 69.622 155.117 69.8113 155.427 69.9393C155.736 70.062 156.083 70.1233 156.467 70.1233C156.824 70.1233 157.131 70.0833 157.387 70.0033C157.648 69.918 157.872 69.8273 158.059 69.7313C158.245 69.6353 158.4 69.5473 158.523 69.4673C158.651 69.382 158.76 69.3393 158.851 69.3393C158.968 69.3393 159.059 69.3847 159.123 69.4753L159.523 69.9953C159.347 70.2087 159.136 70.3953 158.891 70.5553C158.645 70.71 158.381 70.838 158.099 70.9393C157.821 71.0407 157.533 71.1153 157.235 71.1633C156.936 71.2167 156.64 71.2433 156.347 71.2433C155.787 71.2433 155.269 71.15 154.795 70.9633C154.325 70.7713 153.917 70.494 153.571 70.1313C153.229 69.7633 152.963 69.31 152.771 68.7713C152.579 68.2327 152.483 67.614 152.483 66.9153C152.483 66.35 152.568 65.822 152.739 65.3313C152.915 64.8407 153.165 64.4167 153.491 64.0593C153.816 63.6967 154.213 63.414 154.683 63.2113C155.152 63.0033 155.68 62.8993 156.267 62.8993ZM156.299 63.9473C155.611 63.9473 155.069 64.1473 154.675 64.5473C154.28 64.942 154.035 65.4913 153.939 66.1953H158.347C158.347 65.8647 158.301 65.5633 158.211 65.2913C158.12 65.014 157.987 64.7767 157.811 64.5793C157.635 64.3767 157.419 64.222 157.163 64.1153C156.912 64.0033 156.624 63.9473 156.299 63.9473ZM161.449 71.1313V63.0273H162.297C162.5 63.0273 162.628 63.126 162.681 63.3233L162.793 64.2033C163.145 63.814 163.537 63.4993 163.969 63.2593C164.407 63.0193 164.911 62.8993 165.481 62.8993C165.924 62.8993 166.313 62.974 166.649 63.1233C166.991 63.2673 167.273 63.4753 167.497 63.7473C167.727 64.014 167.9 64.3367 168.017 64.7153C168.135 65.094 168.193 65.5127 168.193 65.9713V71.1313H166.769V65.9713C166.769 65.358 166.628 64.8833 166.345 64.5473C166.068 64.206 165.641 64.0353 165.065 64.0353C164.644 64.0353 164.249 64.1367 163.881 64.3393C163.519 64.542 163.183 64.8167 162.873 65.1633V71.1313H161.449ZM172.796 71.2593C172.156 71.2593 171.663 71.0807 171.316 70.7233C170.975 70.366 170.804 69.8513 170.804 69.1793V64.2193H169.828C169.743 64.2193 169.671 64.1953 169.612 64.1473C169.553 64.094 169.524 64.014 169.524 63.9073V63.3393L170.852 63.1713L171.18 60.6673C171.191 60.5873 171.225 60.5233 171.284 60.4753C171.343 60.422 171.417 60.3953 171.508 60.3953H172.228V63.1873H174.548V64.2193H172.228V69.0833C172.228 69.4247 172.311 69.678 172.476 69.8433C172.641 70.0087 172.855 70.0913 173.116 70.0913C173.265 70.0913 173.393 70.0727 173.5 70.0353C173.612 69.9927 173.708 69.9473 173.788 69.8993C173.868 69.8513 173.935 69.8087 173.988 69.7713C174.047 69.7287 174.097 69.7073 174.14 69.7073C174.215 69.7073 174.281 69.7527 174.34 69.8433L174.756 70.5233C174.511 70.7527 174.215 70.934 173.868 71.0673C173.521 71.1953 173.164 71.2593 172.796 71.2593ZM39.944 100.827H44.904V102.131H38.392V90.6673H39.944V100.827ZM52.3388 102.131H51.7068C51.5681 102.131 51.4561 102.11 51.3708 102.067C51.2854 102.025 51.2294 101.934 51.2028 101.795L51.0428 101.043C50.8294 101.235 50.6214 101.409 50.4188 101.563C50.2161 101.713 50.0028 101.841 49.7788 101.947C49.5548 102.049 49.3148 102.126 49.0588 102.179C48.8081 102.233 48.5281 102.259 48.2188 102.259C47.9041 102.259 47.6081 102.217 47.3307 102.131C47.0588 102.041 46.8214 101.907 46.6188 101.731C46.4161 101.555 46.2534 101.334 46.1308 101.067C46.0134 100.795 45.9548 100.475 45.9548 100.107C45.9548 99.7873 46.0428 99.4807 46.2188 99.1873C46.3948 98.8887 46.6774 98.6247 47.0668 98.3953C47.4614 98.166 47.9761 97.9793 48.6108 97.8353C49.2454 97.686 50.0214 97.6007 50.9388 97.5793V96.9473C50.9388 96.318 50.8028 95.8433 50.5308 95.5233C50.2641 95.198 49.8668 95.0353 49.3388 95.0353C48.9921 95.0353 48.6988 95.0807 48.4588 95.1713C48.2241 95.2567 48.0188 95.3553 47.8428 95.4673C47.6721 95.574 47.5228 95.6727 47.3948 95.7633C47.2721 95.8487 47.1494 95.8913 47.0268 95.8913C46.9308 95.8913 46.8454 95.8673 46.7708 95.8193C46.7014 95.766 46.6454 95.702 46.6028 95.6273L46.3468 95.1713C46.7948 94.7393 47.2774 94.4167 47.7948 94.2033C48.3121 93.99 48.8854 93.8833 49.5148 93.8833C49.9681 93.8833 50.3708 93.958 50.7228 94.1073C51.0748 94.2567 51.3708 94.4647 51.6108 94.7313C51.8508 94.998 52.0321 95.3207 52.1548 95.6993C52.2774 96.078 52.3388 96.494 52.3388 96.9473V102.131ZM48.6428 101.259C48.8934 101.259 49.1228 101.235 49.3307 101.187C49.5388 101.134 49.7334 101.062 49.9148 100.971C50.1014 100.875 50.2774 100.761 50.4428 100.627C50.6134 100.494 50.7788 100.342 50.9388 100.171V98.4833C50.2828 98.5047 49.7254 98.558 49.2668 98.6433C48.8081 98.7233 48.4348 98.83 48.1468 98.9633C47.8588 99.0967 47.6481 99.254 47.5148 99.4353C47.3868 99.6167 47.3228 99.8193 47.3228 100.043C47.3228 100.257 47.3574 100.441 47.4268 100.595C47.4961 100.75 47.5894 100.878 47.7068 100.979C47.8241 101.075 47.9628 101.147 48.1228 101.195C48.2828 101.238 48.4561 101.259 48.6428 101.259ZM55.7281 94.0273V99.1953C55.7281 99.8087 55.8695 100.283 56.1521 100.619C56.4348 100.955 56.8615 101.123 57.4321 101.123C57.8481 101.123 58.2401 101.025 58.6081 100.827C58.9761 100.63 59.3148 100.355 59.6241 100.003V94.0273H61.0481V102.131H60.2001C59.9975 102.131 59.8695 102.033 59.8161 101.835L59.7041 100.963C59.3521 101.353 58.9575 101.667 58.5201 101.907C58.0828 102.142 57.5815 102.259 57.0161 102.259C56.5735 102.259 56.1815 102.187 55.8401 102.043C55.5041 101.894 55.2215 101.686 54.9921 101.419C54.7628 101.153 54.5895 100.83 54.4721 100.451C54.3601 100.073 54.3041 99.654 54.3041 99.1953V94.0273H55.7281ZM63.3868 102.131V94.0273H64.2348C64.4374 94.0273 64.5654 94.126 64.6188 94.3233L64.7308 95.2033C65.0828 94.814 65.4748 94.4993 65.9068 94.2593C66.3441 94.0193 66.8481 93.8993 67.4188 93.8993C67.8614 93.8993 68.2508 93.974 68.5868 94.1233C68.9281 94.2673 69.2108 94.4753 69.4348 94.7473C69.6641 95.014 69.8374 95.3367 69.9548 95.7153C70.0721 96.094 70.1308 96.5127 70.1308 96.9713V102.131H68.7068V96.9713C68.7068 96.358 68.5654 95.8833 68.2828 95.5473C68.0054 95.206 67.5788 95.0353 67.0028 95.0353C66.5814 95.0353 66.1868 95.1367 65.8188 95.3393C65.4561 95.542 65.1201 95.8167 64.8108 96.1633V102.131H63.3868ZM77.8054 95.4673C77.7627 95.526 77.72 95.5713 77.6774 95.6033C77.6347 95.6353 77.5734 95.6513 77.4934 95.6513C77.4134 95.6513 77.3254 95.6193 77.2294 95.5553C77.1387 95.486 77.0214 95.4113 76.8774 95.3313C76.7334 95.2513 76.5574 95.1793 76.3494 95.1153C76.1467 95.046 75.896 95.0113 75.5974 95.0113C75.2027 95.0113 74.8534 95.0833 74.5494 95.2273C74.2454 95.366 73.9894 95.5687 73.7814 95.8353C73.5787 96.102 73.424 96.4247 73.3174 96.8033C73.216 97.182 73.1654 97.606 73.1654 98.0753C73.1654 98.566 73.2214 99.0033 73.3334 99.3873C73.4454 99.766 73.6027 100.086 73.8054 100.347C74.008 100.603 74.2534 100.801 74.5414 100.939C74.8347 101.073 75.1627 101.139 75.5254 101.139C75.872 101.139 76.1574 101.099 76.3814 101.019C76.6054 100.934 76.792 100.841 76.9414 100.739C77.0907 100.638 77.2134 100.547 77.3094 100.467C77.4054 100.382 77.5014 100.339 77.5974 100.339C77.72 100.339 77.8107 100.385 77.8694 100.475L78.2694 100.995C77.9174 101.427 77.4774 101.745 76.9494 101.947C76.4214 102.145 75.864 102.243 75.2774 102.243C74.7707 102.243 74.2987 102.15 73.8614 101.963C73.4294 101.777 73.0534 101.507 72.7334 101.155C72.4134 100.798 72.16 100.361 71.9734 99.8433C71.792 99.326 71.7014 98.7367 71.7014 98.0753C71.7014 97.4727 71.784 96.9153 71.9494 96.4033C72.12 95.8913 72.3654 95.4513 72.6854 95.0833C73.0107 94.71 73.4107 94.4193 73.8854 94.2113C74.36 94.0033 74.904 93.8993 75.5174 93.8993C76.0827 93.8993 76.584 93.9927 77.0214 94.1793C77.4587 94.3607 77.8454 94.6193 78.1814 94.9553L77.8054 95.4673ZM79.7461 102.131V90.3473H81.1701V95.1153C81.5168 94.7473 81.9008 94.454 82.3221 94.2353C82.7435 94.0113 83.2288 93.8993 83.7781 93.8993C84.2208 93.8993 84.6101 93.974 84.9461 94.1233C85.2875 94.2673 85.5701 94.4753 85.7941 94.7473C86.0235 95.014 86.1968 95.3367 86.3141 95.7153C86.4315 96.094 86.4901 96.5127 86.4901 96.9713V102.131H85.0661V96.9713C85.0661 96.358 84.9248 95.8833 84.6421 95.5473C84.3648 95.206 83.9381 95.0353 83.3621 95.0353C82.9408 95.0353 82.5461 95.1367 82.1781 95.3393C81.8155 95.542 81.4795 95.8167 81.1701 96.1633V102.131H79.7461ZM90.2208 94.0273V102.131H88.7968V94.0273H90.2208ZM90.5408 91.4833C90.5408 91.622 90.5114 91.7527 90.4528 91.8753C90.3994 91.9927 90.3248 92.0993 90.2288 92.1953C90.1381 92.286 90.0314 92.358 89.9088 92.4113C89.7861 92.4647 89.6554 92.4913 89.5168 92.4913C89.3781 92.4913 89.2474 92.4647 89.1248 92.4113C89.0074 92.358 88.9008 92.286 88.8048 92.1953C88.7141 92.0993 88.6421 91.9927 88.5888 91.8753C88.5354 91.7527 88.5088 91.622 88.5088 91.4833C88.5088 91.3447 88.5354 91.214 88.5888 91.0913C88.6421 90.9633 88.7141 90.854 88.8048 90.7633C88.9008 90.6673 89.0074 90.5927 89.1248 90.5393C89.2474 90.486 89.3781 90.4593 89.5168 90.4593C89.6554 90.4593 89.7861 90.486 89.9088 90.5393C90.0314 90.5927 90.1381 90.6673 90.2288 90.7633C90.3248 90.854 90.3994 90.9633 90.4528 91.0913C90.5114 91.214 90.5408 91.3447 90.5408 91.4833ZM92.7305 102.131V94.0273H93.5785C93.7812 94.0273 93.9092 94.126 93.9625 94.3233L94.0745 95.2033C94.4265 94.814 94.8185 94.4993 95.2505 94.2593C95.6878 94.0193 96.1918 93.8993 96.7625 93.8993C97.2052 93.8993 97.5945 93.974 97.9305 94.1233C98.2718 94.2673 98.5545 94.4753 98.7785 94.7473C99.0078 95.014 99.1812 95.3367 99.2985 95.7153C99.4158 96.094 99.4745 96.5127 99.4745 96.9713V102.131H98.0505V96.9713C98.0505 96.358 97.9092 95.8833 97.6265 95.5473C97.3492 95.206 96.9225 95.0353 96.3465 95.0353C95.9252 95.0353 95.5305 95.1367 95.1625 95.3393C94.7998 95.542 94.4638 95.8167 94.1545 96.1633V102.131H92.7305ZM104.349 93.8913C104.701 93.8913 105.029 93.9313 105.333 94.0113C105.642 94.086 105.922 94.198 106.173 94.3473H108.373V94.8753C108.373 95.0513 108.261 95.1633 108.037 95.2113L107.117 95.3393C107.298 95.686 107.389 96.0727 107.389 96.4993C107.389 96.894 107.312 97.254 107.157 97.5793C107.008 97.8993 106.797 98.174 106.525 98.4033C106.258 98.6327 105.938 98.8087 105.565 98.9313C105.197 99.054 104.792 99.1153 104.349 99.1153C103.97 99.1153 103.613 99.07 103.277 98.9793C103.106 99.086 102.976 99.2007 102.885 99.3233C102.8 99.446 102.757 99.566 102.757 99.6833C102.757 99.8753 102.834 100.022 102.989 100.123C103.144 100.219 103.349 100.289 103.605 100.331C103.861 100.374 104.152 100.401 104.477 100.411C104.802 100.422 105.133 100.441 105.469 100.467C105.81 100.489 106.144 100.529 106.469 100.587C106.794 100.646 107.085 100.742 107.341 100.875C107.597 101.009 107.802 101.193 107.957 101.427C108.112 101.662 108.189 101.966 108.189 102.339C108.189 102.686 108.101 103.022 107.925 103.347C107.754 103.673 107.506 103.961 107.181 104.211C106.856 104.467 106.458 104.67 105.989 104.819C105.52 104.974 104.989 105.051 104.397 105.051C103.805 105.051 103.285 104.993 102.837 104.875C102.394 104.758 102.026 104.601 101.733 104.403C101.44 104.206 101.218 103.977 101.069 103.715C100.925 103.459 100.853 103.19 100.853 102.907C100.853 102.507 100.978 102.169 101.229 101.891C101.485 101.609 101.834 101.385 102.277 101.219C102.048 101.113 101.864 100.971 101.725 100.795C101.592 100.614 101.525 100.374 101.525 100.075C101.525 99.958 101.546 99.838 101.589 99.7153C101.632 99.5873 101.696 99.462 101.781 99.3393C101.872 99.2167 101.981 99.0993 102.109 98.9873C102.237 98.8753 102.386 98.7767 102.557 98.6913C102.157 98.4673 101.842 98.1713 101.613 97.8033C101.389 97.43 101.277 96.9953 101.277 96.4993C101.277 96.1047 101.352 95.7473 101.501 95.4273C101.656 95.102 101.869 94.8273 102.141 94.6033C102.413 94.374 102.736 94.198 103.109 94.0753C103.488 93.9527 103.901 93.8913 104.349 93.8913ZM106.877 102.571C106.877 102.369 106.821 102.206 106.709 102.083C106.597 101.961 106.445 101.867 106.253 101.803C106.061 101.734 105.84 101.683 105.589 101.651C105.338 101.619 105.074 101.598 104.797 101.587C104.52 101.571 104.237 101.555 103.949 101.539C103.661 101.523 103.386 101.494 103.125 101.451C102.821 101.595 102.573 101.771 102.381 101.979C102.194 102.187 102.101 102.435 102.101 102.723C102.101 102.905 102.146 103.073 102.237 103.227C102.333 103.387 102.477 103.523 102.669 103.635C102.861 103.753 103.101 103.843 103.389 103.907C103.682 103.977 104.026 104.011 104.421 104.011C104.805 104.011 105.149 103.977 105.453 103.907C105.757 103.838 106.013 103.739 106.221 103.611C106.434 103.483 106.597 103.331 106.709 103.155C106.821 102.979 106.877 102.785 106.877 102.571ZM104.349 98.1713C104.637 98.1713 104.89 98.1313 105.109 98.0513C105.333 97.9713 105.52 97.8593 105.669 97.7153C105.818 97.5713 105.93 97.4007 106.005 97.2033C106.08 97.0007 106.117 96.7793 106.117 96.5393C106.117 96.0433 105.965 95.6487 105.661 95.3553C105.362 95.062 104.925 94.9153 104.349 94.9153C103.778 94.9153 103.341 95.062 103.037 95.3553C102.738 95.6487 102.589 96.0433 102.589 96.5393C102.589 96.7793 102.626 97.0007 102.701 97.2033C102.781 97.4007 102.896 97.5713 103.045 97.7153C103.194 97.8593 103.378 97.9713 103.597 98.0513C103.816 98.1313 104.066 98.1713 104.349 98.1713ZM116.167 93.8993C116.759 93.8993 117.292 93.998 117.767 94.1953C118.247 94.3927 118.652 94.6727 118.983 95.0353C119.319 95.398 119.575 95.838 119.751 96.3553C119.932 96.8673 120.023 97.4407 120.023 98.0753C120.023 98.7153 119.932 99.2913 119.751 99.8033C119.575 100.315 119.319 100.753 118.983 101.115C118.652 101.478 118.247 101.758 117.767 101.955C117.292 102.147 116.759 102.243 116.167 102.243C115.575 102.243 115.039 102.147 114.559 101.955C114.084 101.758 113.679 101.478 113.343 101.115C113.007 100.753 112.748 100.315 112.567 99.8033C112.385 99.2913 112.295 98.7153 112.295 98.0753C112.295 97.4407 112.385 96.8673 112.567 96.3553C112.748 95.838 113.007 95.398 113.343 95.0353C113.679 94.6727 114.084 94.3927 114.559 94.1953C115.039 93.998 115.575 93.8993 116.167 93.8993ZM116.167 101.131C116.967 101.131 117.564 100.865 117.959 100.331C118.353 99.7927 118.551 99.0433 118.551 98.0833C118.551 97.118 118.353 96.366 117.959 95.8273C117.564 95.2887 116.967 95.0193 116.167 95.0193C115.761 95.0193 115.409 95.0887 115.111 95.2273C114.812 95.366 114.561 95.566 114.359 95.8273C114.161 96.0887 114.012 96.4113 113.911 96.7953C113.815 97.174 113.767 97.6033 113.767 98.0833C113.767 98.5633 113.815 98.9927 113.911 99.3713C114.012 99.75 114.161 100.07 114.359 100.331C114.561 100.587 114.812 100.785 115.111 100.923C115.409 101.062 115.761 101.131 116.167 101.131ZM121.777 102.131V94.0273H122.625C122.828 94.0273 122.956 94.126 123.009 94.3233L123.121 95.2033C123.473 94.814 123.865 94.4993 124.297 94.2593C124.735 94.0193 125.239 93.8993 125.809 93.8993C126.252 93.8993 126.641 93.974 126.977 94.1233C127.319 94.2673 127.601 94.4753 127.825 94.7473C128.055 95.014 128.228 95.3367 128.345 95.7153C128.463 96.094 128.521 96.5127 128.521 96.9713V102.131H127.097V96.9713C127.097 96.358 126.956 95.8833 126.673 95.5473C126.396 95.206 125.969 95.0353 125.393 95.0353C124.972 95.0353 124.577 95.1367 124.209 95.3393C123.847 95.542 123.511 95.8167 123.201 96.1633V102.131H121.777ZM143.418 102.131H142.218C142.079 102.131 141.967 102.097 141.882 102.027C141.796 101.958 141.732 101.87 141.69 101.763L140.618 98.9953H135.474L134.402 101.763C134.364 101.859 134.3 101.945 134.21 102.019C134.119 102.094 134.007 102.131 133.874 102.131H132.674L137.258 90.6673H138.834L143.418 102.131ZM135.906 97.8753H140.186L138.386 93.2113C138.268 92.9233 138.154 92.5633 138.042 92.1313C137.983 92.35 137.924 92.5527 137.866 92.7393C137.812 92.9207 137.759 93.0807 137.706 93.2193L135.906 97.8753ZM144.637 104.875V94.0273H145.485C145.687 94.0273 145.815 94.126 145.869 94.3233L145.989 95.2833C146.335 94.862 146.73 94.5233 147.173 94.2673C147.621 94.0113 148.135 93.8833 148.717 93.8833C149.181 93.8833 149.602 93.974 149.981 94.1553C150.359 94.3313 150.682 94.5953 150.949 94.9473C151.215 95.294 151.421 95.726 151.565 96.2433C151.709 96.7607 151.781 97.3553 151.781 98.0273C151.781 98.6247 151.701 99.182 151.541 99.6993C151.381 100.211 151.151 100.657 150.853 101.035C150.554 101.409 150.186 101.705 149.749 101.923C149.317 102.137 148.829 102.243 148.285 102.243C147.783 102.243 147.354 102.161 146.997 101.995C146.645 101.83 146.333 101.595 146.061 101.291V104.875H144.637ZM148.245 95.0353C147.781 95.0353 147.373 95.142 147.021 95.3553C146.674 95.5687 146.354 95.87 146.061 96.2593V100.179C146.322 100.531 146.607 100.779 146.917 100.923C147.231 101.067 147.581 101.139 147.965 101.139C148.717 101.139 149.295 100.87 149.701 100.331C150.106 99.7927 150.309 99.0247 150.309 98.0273C150.309 97.4993 150.261 97.046 150.165 96.6673C150.074 96.2887 149.941 95.9793 149.765 95.7393C149.589 95.494 149.373 95.3153 149.117 95.2033C148.861 95.0913 148.57 95.0353 148.245 95.0353ZM155.921 102.259C155.281 102.259 154.788 102.081 154.441 101.723C154.1 101.366 153.929 100.851 153.929 100.179V95.2193H152.953C152.868 95.2193 152.796 95.1953 152.737 95.1473C152.678 95.094 152.649 95.014 152.649 94.9073V94.3393L153.977 94.1713L154.305 91.6673C154.316 91.5873 154.35 91.5233 154.409 91.4753C154.468 91.422 154.542 91.3953 154.633 91.3953H155.353V94.1873H157.673V95.2193H155.353V100.083C155.353 100.425 155.436 100.678 155.601 100.843C155.766 101.009 155.98 101.091 156.241 101.091C156.39 101.091 156.518 101.073 156.625 101.035C156.737 100.993 156.833 100.947 156.913 100.899C156.993 100.851 157.06 100.809 157.113 100.771C157.172 100.729 157.222 100.707 157.265 100.707C157.34 100.707 157.406 100.753 157.465 100.843L157.881 101.523C157.636 101.753 157.34 101.934 156.993 102.067C156.646 102.195 156.289 102.259 155.921 102.259ZM162.714 93.8993C163.306 93.8993 163.839 93.998 164.314 94.1953C164.794 94.3927 165.199 94.6727 165.53 95.0353C165.866 95.398 166.122 95.838 166.298 96.3553C166.479 96.8673 166.57 97.4407 166.57 98.0753C166.57 98.7153 166.479 99.2913 166.298 99.8033C166.122 100.315 165.866 100.753 165.53 101.115C165.199 101.478 164.794 101.758 164.314 101.955C163.839 102.147 163.306 102.243 162.714 102.243C162.122 102.243 161.586 102.147 161.106 101.955C160.631 101.758 160.226 101.478 159.89 101.115C159.554 100.753 159.295 100.315 159.114 99.8033C158.932 99.2913 158.842 98.7153 158.842 98.0753C158.842 97.4407 158.932 96.8673 159.114 96.3553C159.295 95.838 159.554 95.398 159.89 95.0353C160.226 94.6727 160.631 94.3927 161.106 94.1953C161.586 93.998 162.122 93.8993 162.714 93.8993ZM162.714 101.131C163.514 101.131 164.111 100.865 164.506 100.331C164.9 99.7927 165.098 99.0433 165.098 98.0833C165.098 97.118 164.9 96.366 164.506 95.8273C164.111 95.2887 163.514 95.0193 162.714 95.0193C162.308 95.0193 161.956 95.0887 161.658 95.2273C161.359 95.366 161.108 95.566 160.906 95.8273C160.708 96.0887 160.559 96.4113 160.458 96.7953C160.362 97.174 160.314 97.6033 160.314 98.0833C160.314 98.5633 160.362 98.9927 160.458 99.3713C160.559 99.75 160.708 100.07 160.906 100.331C161.108 100.587 161.359 100.785 161.658 100.923C161.956 101.062 162.308 101.131 162.714 101.131ZM172.964 95.3633C172.9 95.4807 172.802 95.5393 172.668 95.5393C172.588 95.5393 172.498 95.51 172.396 95.4513C172.295 95.3927 172.17 95.3287 172.02 95.2593C171.876 95.1847 171.703 95.118 171.5 95.0593C171.298 94.9953 171.058 94.9633 170.78 94.9633C170.54 94.9633 170.324 94.9953 170.132 95.0593C169.94 95.118 169.775 95.2007 169.636 95.3073C169.503 95.414 169.399 95.5393 169.324 95.6833C169.255 95.822 169.22 95.974 169.22 96.1393C169.22 96.3473 169.279 96.5207 169.396 96.6593C169.519 96.798 169.679 96.918 169.876 97.0193C170.074 97.1207 170.298 97.2113 170.548 97.2913C170.799 97.366 171.055 97.4487 171.316 97.5393C171.583 97.6247 171.842 97.7207 172.092 97.8273C172.343 97.934 172.567 98.0673 172.764 98.2273C172.962 98.3873 173.119 98.5847 173.236 98.8193C173.359 99.0487 173.42 99.326 173.42 99.6513C173.42 100.025 173.354 100.371 173.22 100.691C173.087 101.006 172.89 101.281 172.628 101.515C172.367 101.745 172.047 101.926 171.668 102.059C171.29 102.193 170.852 102.259 170.356 102.259C169.791 102.259 169.279 102.169 168.82 101.987C168.362 101.801 167.972 101.563 167.652 101.275L167.988 100.731C168.031 100.662 168.082 100.609 168.14 100.571C168.199 100.534 168.276 100.515 168.372 100.515C168.468 100.515 168.57 100.553 168.676 100.627C168.783 100.702 168.911 100.785 169.06 100.875C169.215 100.966 169.399 101.049 169.612 101.123C169.831 101.198 170.103 101.235 170.428 101.235C170.706 101.235 170.948 101.201 171.156 101.131C171.364 101.057 171.538 100.958 171.676 100.835C171.815 100.713 171.916 100.571 171.98 100.411C172.05 100.251 172.084 100.081 172.084 99.8993C172.084 99.6753 172.023 99.4913 171.9 99.3473C171.783 99.198 171.626 99.0727 171.428 98.9713C171.231 98.8647 171.004 98.774 170.748 98.6993C170.498 98.6193 170.239 98.5367 169.972 98.4513C169.711 98.366 169.452 98.27 169.196 98.1633C168.946 98.0513 168.722 97.9127 168.524 97.7473C168.327 97.582 168.167 97.3793 168.044 97.1393C167.927 96.894 167.868 96.598 167.868 96.2513C167.868 95.942 167.932 95.646 168.06 95.3633C168.188 95.0753 168.375 94.8247 168.62 94.6113C168.866 94.3927 169.167 94.2193 169.524 94.0913C169.882 93.9633 170.29 93.8993 170.748 93.8993C171.282 93.8993 171.759 93.9847 172.18 94.1553C172.607 94.3207 172.975 94.55 173.284 94.8433L172.964 95.3633ZM188.516 96.4033C188.516 97.262 188.38 98.0433 188.108 98.7473C187.836 99.4513 187.452 100.054 186.956 100.555C186.46 101.057 185.865 101.446 185.172 101.723C184.478 101.995 183.71 102.131 182.868 102.131H178.58V90.6673H182.868C183.71 90.6673 184.478 90.806 185.172 91.0833C185.865 91.3553 186.46 91.7447 186.956 92.2513C187.452 92.7527 187.836 93.3553 188.108 94.0593C188.38 94.7633 188.516 95.5447 188.516 96.4033ZM186.924 96.4033C186.924 95.6993 186.828 95.07 186.636 94.5153C186.444 93.9607 186.172 93.4913 185.819 93.1073C185.468 92.7233 185.041 92.43 184.54 92.2273C184.038 92.0247 183.481 91.9233 182.868 91.9233H180.14V100.875H182.868C183.481 100.875 184.038 100.774 184.54 100.571C185.041 100.369 185.468 100.078 185.819 99.6993C186.172 99.3153 186.444 98.846 186.636 98.2913C186.828 97.7367 186.924 97.1073 186.924 96.4033ZM193.61 93.8993C194.096 93.8993 194.544 93.982 194.954 94.1473C195.365 94.3073 195.72 94.542 196.018 94.8513C196.317 95.1553 196.549 95.534 196.714 95.9873C196.885 96.4353 196.97 96.9473 196.97 97.5233C196.97 97.7473 196.946 97.8967 196.898 97.9713C196.85 98.046 196.76 98.0833 196.626 98.0833H191.234C191.245 98.5953 191.314 99.0407 191.442 99.4193C191.57 99.798 191.746 100.115 191.97 100.371C192.194 100.622 192.461 100.811 192.77 100.939C193.08 101.062 193.426 101.123 193.81 101.123C194.168 101.123 194.474 101.083 194.73 101.003C194.992 100.918 195.216 100.827 195.402 100.731C195.589 100.635 195.744 100.547 195.866 100.467C195.994 100.382 196.104 100.339 196.194 100.339C196.312 100.339 196.402 100.385 196.466 100.475L196.866 100.995C196.69 101.209 196.48 101.395 196.234 101.555C195.989 101.71 195.725 101.838 195.442 101.939C195.165 102.041 194.877 102.115 194.578 102.163C194.28 102.217 193.984 102.243 193.69 102.243C193.13 102.243 192.613 102.15 192.138 101.963C191.669 101.771 191.261 101.494 190.914 101.131C190.573 100.763 190.306 100.31 190.114 99.7713C189.922 99.2327 189.826 98.614 189.826 97.9153C189.826 97.35 189.912 96.822 190.082 96.3313C190.258 95.8407 190.509 95.4167 190.834 95.0593C191.16 94.6967 191.557 94.414 192.026 94.2113C192.496 94.0033 193.024 93.8993 193.61 93.8993ZM193.642 94.9473C192.954 94.9473 192.413 95.1473 192.018 95.5473C191.624 95.942 191.378 96.4913 191.282 97.1953H195.69C195.69 96.8647 195.645 96.5633 195.554 96.2913C195.464 96.014 195.33 95.7767 195.154 95.5793C194.978 95.3767 194.762 95.222 194.506 95.1153C194.256 95.0033 193.968 94.9473 193.642 94.9473ZM197.566 94.0273H198.734C198.846 94.0273 198.939 94.0567 199.014 94.1153C199.089 94.174 199.142 94.2433 199.174 94.3233L201.23 99.5393C201.305 99.7313 201.363 99.9233 201.406 100.115C201.449 100.307 201.489 100.497 201.526 100.683C201.569 100.497 201.614 100.307 201.662 100.115C201.71 99.9233 201.771 99.7313 201.846 99.5393L203.926 94.3233C203.958 94.238 204.009 94.1687 204.078 94.1153C204.153 94.0567 204.243 94.0273 204.35 94.0273H205.462L202.158 102.131H200.87L197.566 94.0273ZM206.777 102.131V94.0273H207.625C207.828 94.0273 207.956 94.126 208.009 94.3233L208.121 95.2033C208.473 94.814 208.865 94.4993 209.297 94.2593C209.735 94.0193 210.239 93.8993 210.809 93.8993C211.252 93.8993 211.641 93.974 211.977 94.1233C212.319 94.2673 212.601 94.4753 212.825 94.7473C213.055 95.014 213.228 95.3367 213.345 95.7153C213.463 96.094 213.521 96.5127 213.521 96.9713V102.131H212.097V96.9713C212.097 96.358 211.956 95.8833 211.673 95.5473C211.396 95.206 210.969 95.0353 210.393 95.0353C209.972 95.0353 209.577 95.1367 209.209 95.3393C208.847 95.542 208.511 95.8167 208.201 96.1633V102.131H206.777ZM218.876 93.8993C219.361 93.8993 219.809 93.982 220.22 94.1473C220.631 94.3073 220.985 94.542 221.284 94.8513C221.583 95.1553 221.815 95.534 221.98 95.9873C222.151 96.4353 222.236 96.9473 222.236 97.5233C222.236 97.7473 222.212 97.8967 222.164 97.9713C222.116 98.046 222.025 98.0833 221.892 98.0833H216.5C216.511 98.5953 216.58 99.0407 216.708 99.4193C216.836 99.798 217.012 100.115 217.236 100.371C217.46 100.622 217.727 100.811 218.036 100.939C218.345 101.062 218.692 101.123 219.076 101.123C219.433 101.123 219.74 101.083 219.996 101.003C220.257 100.918 220.481 100.827 220.668 100.731C220.855 100.635 221.009 100.547 221.132 100.467C221.26 100.382 221.369 100.339 221.46 100.339C221.577 100.339 221.668 100.385 221.732 100.475L222.132 100.995C221.956 101.209 221.745 101.395 221.5 101.555C221.255 101.71 220.991 101.838 220.708 101.939C220.431 102.041 220.143 102.115 219.844 102.163C219.545 102.217 219.249 102.243 218.956 102.243C218.396 102.243 217.879 102.15 217.404 101.963C216.935 101.771 216.527 101.494 216.18 101.131C215.839 100.763 215.572 100.31 215.38 99.7713C215.188 99.2327 215.092 98.614 215.092 97.9153C215.092 97.35 215.177 96.822 215.348 96.3313C215.524 95.8407 215.775 95.4167 216.1 95.0593C216.425 94.6967 216.823 94.414 217.292 94.2113C217.761 94.0033 218.289 93.8993 218.876 93.8993ZM218.908 94.9473C218.22 94.9473 217.679 95.1473 217.284 95.5473C216.889 95.942 216.644 96.4913 216.548 97.1953H220.956C220.956 96.8647 220.911 96.5633 220.82 96.2913C220.729 96.014 220.596 95.7767 220.42 95.5793C220.244 95.3767 220.028 95.222 219.772 95.1153C219.521 95.0033 219.233 94.9473 218.908 94.9473ZM226.515 102.259C225.875 102.259 225.381 102.081 225.035 101.723C224.693 101.366 224.523 100.851 224.523 100.179V95.2193H223.547C223.461 95.2193 223.389 95.1953 223.331 95.1473C223.272 95.094 223.243 95.014 223.243 94.9073V94.3393L224.571 94.1713L224.899 91.6673C224.909 91.5873 224.944 91.5233 225.003 91.4753C225.061 91.422 225.136 91.3953 225.227 91.3953H225.947V94.1873H228.267V95.2193H225.947V100.083C225.947 100.425 226.029 100.678 226.195 100.843C226.36 101.009 226.573 101.091 226.835 101.091C226.984 101.091 227.112 101.073 227.219 101.035C227.331 100.993 227.427 100.947 227.507 100.899C227.587 100.851 227.653 100.809 227.707 100.771C227.765 100.729 227.816 100.707 227.859 100.707C227.933 100.707 228 100.753 228.059 100.843L228.475 101.523C228.229 101.753 227.933 101.934 227.587 102.067C227.24 102.195 226.883 102.259 226.515 102.259ZM46.472 130.763C46.5573 130.763 46.6347 130.798 46.704 130.867L47.312 131.531C46.8427 132.075 46.272 132.499 45.6 132.803C44.9333 133.107 44.128 133.259 43.184 133.259C42.3573 133.259 41.608 133.118 40.936 132.835C40.264 132.547 39.6907 132.147 39.216 131.635C38.7413 131.118 38.3733 130.499 38.112 129.779C37.8507 129.059 37.72 128.267 37.72 127.403C37.72 126.539 37.8587 125.747 38.136 125.027C38.4187 124.307 38.8133 123.689 39.32 123.171C39.8267 122.654 40.432 122.254 41.136 121.971C41.8453 121.683 42.6267 121.539 43.48 121.539C44.3227 121.539 45.048 121.67 45.656 121.931C46.2693 122.193 46.8133 122.547 47.288 122.995L46.784 123.707C46.7467 123.761 46.704 123.806 46.656 123.843C46.608 123.875 46.5387 123.891 46.448 123.891C46.3787 123.891 46.304 123.867 46.224 123.819C46.1493 123.766 46.0587 123.702 45.952 123.627C45.8453 123.553 45.72 123.473 45.576 123.387C45.432 123.302 45.2613 123.222 45.064 123.147C44.8667 123.073 44.6373 123.011 44.376 122.963C44.1147 122.91 43.8133 122.883 43.472 122.883C42.8587 122.883 42.296 122.99 41.784 123.203C41.2773 123.411 40.84 123.71 40.472 124.099C40.104 124.489 39.816 124.963 39.608 125.523C39.4053 126.083 39.304 126.71 39.304 127.403C39.304 128.118 39.4053 128.755 39.608 129.315C39.816 129.875 40.096 130.35 40.448 130.739C40.8053 131.123 41.2267 131.417 41.712 131.619C42.1973 131.822 42.72 131.923 43.28 131.923C43.6213 131.923 43.928 131.905 44.2 131.867C44.472 131.825 44.7227 131.761 44.952 131.675C45.1867 131.59 45.4027 131.483 45.6 131.355C45.8027 131.222 46.0053 131.065 46.208 130.883C46.2987 130.803 46.3867 130.763 46.472 130.763ZM52.4011 124.899C52.9931 124.899 53.5265 124.998 54.0011 125.195C54.4811 125.393 54.8865 125.673 55.2171 126.035C55.5531 126.398 55.8091 126.838 55.9851 127.355C56.1665 127.867 56.2571 128.441 56.2571 129.075C56.2571 129.715 56.1665 130.291 55.9851 130.803C55.8091 131.315 55.5531 131.753 55.2171 132.115C54.8865 132.478 54.4811 132.758 54.0011 132.955C53.5265 133.147 52.9931 133.243 52.4011 133.243C51.8091 133.243 51.2731 133.147 50.7931 132.955C50.3185 132.758 49.9131 132.478 49.5771 132.115C49.2411 131.753 48.9825 131.315 48.8011 130.803C48.6198 130.291 48.5291 129.715 48.5291 129.075C48.5291 128.441 48.6198 127.867 48.8011 127.355C48.9825 126.838 49.2411 126.398 49.5771 126.035C49.9131 125.673 50.3185 125.393 50.7931 125.195C51.2731 124.998 51.8091 124.899 52.4011 124.899ZM52.4011 132.131C53.2011 132.131 53.7985 131.865 54.1931 131.331C54.5878 130.793 54.7851 130.043 54.7851 129.083C54.7851 128.118 54.5878 127.366 54.1931 126.827C53.7985 126.289 53.2011 126.019 52.4011 126.019C51.9958 126.019 51.6438 126.089 51.3451 126.227C51.0465 126.366 50.7958 126.566 50.5931 126.827C50.3958 127.089 50.2465 127.411 50.1451 127.795C50.0491 128.174 50.0011 128.603 50.0011 129.083C50.0011 129.563 50.0491 129.993 50.1451 130.371C50.2465 130.75 50.3958 131.07 50.5931 131.331C50.7958 131.587 51.0465 131.785 51.3451 131.923C51.6438 132.062 51.9958 132.131 52.4011 132.131ZM58.0118 133.131V125.027H58.8598C59.0624 125.027 59.1904 125.126 59.2438 125.323L59.3478 126.155C59.6464 125.787 59.9798 125.486 60.3478 125.251C60.7211 125.017 61.1531 124.899 61.6438 124.899C62.1931 124.899 62.6358 125.051 62.9718 125.355C63.3131 125.659 63.5584 126.07 63.7078 126.587C63.8198 126.294 63.9664 126.041 64.1478 125.827C64.3344 125.614 64.5424 125.438 64.7718 125.299C65.0011 125.161 65.2438 125.059 65.4998 124.995C65.7611 124.931 66.0251 124.899 66.2918 124.899C66.7184 124.899 67.0971 124.969 67.4278 125.107C67.7638 125.241 68.0464 125.438 68.2758 125.699C68.5104 125.961 68.6891 126.283 68.8118 126.667C68.9344 127.046 68.9958 127.481 68.9958 127.971V133.131H67.5718V127.971C67.5718 127.337 67.4331 126.857 67.1558 126.531C66.8784 126.201 66.4758 126.035 65.9478 126.035C65.7131 126.035 65.4891 126.078 65.2758 126.163C65.0678 126.243 64.8838 126.363 64.7238 126.523C64.5638 126.683 64.4358 126.886 64.3398 127.131C64.2491 127.371 64.2038 127.651 64.2038 127.971V133.131H62.7798V127.971C62.7798 127.321 62.6491 126.835 62.3878 126.515C62.1264 126.195 61.7451 126.035 61.2438 126.035C60.8918 126.035 60.5638 126.131 60.2598 126.323C59.9611 126.51 59.6864 126.766 59.4358 127.091V133.131H58.0118ZM71.1524 135.875V125.027H72.0004C72.203 125.027 72.331 125.126 72.3844 125.323L72.5044 126.283C72.851 125.862 73.2457 125.523 73.6884 125.267C74.1364 125.011 74.651 124.883 75.2324 124.883C75.6964 124.883 76.1177 124.974 76.4964 125.155C76.875 125.331 77.1977 125.595 77.4644 125.947C77.731 126.294 77.9364 126.726 78.0804 127.243C78.2244 127.761 78.2964 128.355 78.2964 129.027C78.2964 129.625 78.2164 130.182 78.0564 130.699C77.8964 131.211 77.667 131.657 77.3684 132.035C77.0697 132.409 76.7017 132.705 76.2644 132.923C75.8324 133.137 75.3444 133.243 74.8004 133.243C74.299 133.243 73.8697 133.161 73.5124 132.995C73.1604 132.83 72.8484 132.595 72.5764 132.291V135.875H71.1524ZM74.7604 126.035C74.2964 126.035 73.8884 126.142 73.5364 126.355C73.1897 126.569 72.8697 126.87 72.5764 127.259V131.179C72.8377 131.531 73.123 131.779 73.4324 131.923C73.747 132.067 74.0964 132.139 74.4804 132.139C75.2324 132.139 75.811 131.87 76.2164 131.331C76.6217 130.793 76.8244 130.025 76.8244 129.027C76.8244 128.499 76.7764 128.046 76.6804 127.667C76.5897 127.289 76.4564 126.979 76.2804 126.739C76.1044 126.494 75.8884 126.315 75.6324 126.203C75.3764 126.091 75.0857 126.035 74.7604 126.035ZM81.5645 121.347V133.131H80.1405V121.347H81.5645ZM87.2823 124.899C87.7676 124.899 88.2156 124.982 88.6263 125.147C89.0369 125.307 89.3916 125.542 89.6903 125.851C89.9889 126.155 90.2209 126.534 90.3863 126.987C90.5569 127.435 90.6423 127.947 90.6423 128.523C90.6423 128.747 90.6183 128.897 90.5703 128.971C90.5223 129.046 90.4316 129.083 90.2983 129.083H84.9062C84.9169 129.595 84.9863 130.041 85.1143 130.419C85.2423 130.798 85.4183 131.115 85.6423 131.371C85.8663 131.622 86.1329 131.811 86.4423 131.939C86.7516 132.062 87.0983 132.123 87.4823 132.123C87.8396 132.123 88.1463 132.083 88.4023 132.003C88.6636 131.918 88.8876 131.827 89.0743 131.731C89.2609 131.635 89.4156 131.547 89.5383 131.467C89.6663 131.382 89.7756 131.339 89.8663 131.339C89.9836 131.339 90.0743 131.385 90.1383 131.475L90.5383 131.995C90.3623 132.209 90.1516 132.395 89.9063 132.555C89.6609 132.71 89.3969 132.838 89.1143 132.939C88.8369 133.041 88.5489 133.115 88.2503 133.163C87.9516 133.217 87.6556 133.243 87.3623 133.243C86.8023 133.243 86.2849 133.15 85.8103 132.963C85.3409 132.771 84.9329 132.494 84.5863 132.131C84.2449 131.763 83.9783 131.31 83.7863 130.771C83.5943 130.233 83.4983 129.614 83.4983 128.915C83.4983 128.35 83.5836 127.822 83.7543 127.331C83.9303 126.841 84.1809 126.417 84.5063 126.059C84.8316 125.697 85.2289 125.414 85.6983 125.211C86.1676 125.003 86.6956 124.899 87.2823 124.899ZM87.3142 125.947C86.6263 125.947 86.0849 126.147 85.6903 126.547C85.2956 126.942 85.0503 127.491 84.9543 128.195H89.3623C89.3623 127.865 89.3169 127.563 89.2263 127.291C89.1356 127.014 89.0023 126.777 88.8263 126.579C88.6503 126.377 88.4343 126.222 88.1783 126.115C87.9276 126.003 87.6396 125.947 87.3142 125.947ZM94.9209 133.259C94.2809 133.259 93.7875 133.081 93.4409 132.723C93.0995 132.366 92.9289 131.851 92.9289 131.179V126.219H91.9529C91.8675 126.219 91.7955 126.195 91.7369 126.147C91.6782 126.094 91.6489 126.014 91.6489 125.907V125.339L92.9769 125.171L93.3049 122.667C93.3155 122.587 93.3502 122.523 93.4089 122.475C93.4675 122.422 93.5422 122.395 93.6329 122.395H94.3529V125.187H96.6729V126.219H94.3529V131.083C94.3529 131.425 94.4355 131.678 94.6009 131.843C94.7662 132.009 94.9795 132.091 95.2409 132.091C95.3902 132.091 95.5182 132.073 95.6249 132.035C95.7369 131.993 95.8329 131.947 95.9129 131.899C95.9929 131.851 96.0595 131.809 96.1129 131.771C96.1715 131.729 96.2222 131.707 96.2649 131.707C96.3395 131.707 96.4062 131.753 96.4649 131.843L96.8809 132.523C96.6355 132.753 96.3395 132.934 95.9929 133.067C95.6462 133.195 95.2889 133.259 94.9209 133.259ZM101.642 124.899C102.127 124.899 102.575 124.982 102.986 125.147C103.396 125.307 103.751 125.542 104.05 125.851C104.348 126.155 104.58 126.534 104.746 126.987C104.916 127.435 105.002 127.947 105.002 128.523C105.002 128.747 104.978 128.897 104.93 128.971C104.882 129.046 104.791 129.083 104.658 129.083H99.2656C99.2763 129.595 99.3456 130.041 99.4736 130.419C99.6016 130.798 99.7776 131.115 100.002 131.371C100.226 131.622 100.492 131.811 100.802 131.939C101.111 132.062 101.458 132.123 101.842 132.123C102.199 132.123 102.506 132.083 102.762 132.003C103.023 131.918 103.247 131.827 103.434 131.731C103.62 131.635 103.775 131.547 103.898 131.467C104.026 131.382 104.135 131.339 104.226 131.339C104.343 131.339 104.434 131.385 104.498 131.475L104.898 131.995C104.722 132.209 104.511 132.395 104.266 132.555C104.02 132.71 103.756 132.838 103.474 132.939C103.196 133.041 102.908 133.115 102.61 133.163C102.311 133.217 102.015 133.243 101.722 133.243C101.162 133.243 100.644 133.15 100.17 132.963C99.7003 132.771 99.2923 132.494 98.9456 132.131C98.6043 131.763 98.3376 131.31 98.1456 130.771C97.9536 130.233 97.8576 129.614 97.8576 128.915C97.8576 128.35 97.943 127.822 98.1136 127.331C98.2896 126.841 98.5403 126.417 98.8656 126.059C99.191 125.697 99.5883 125.414 100.058 125.211C100.527 125.003 101.055 124.899 101.642 124.899ZM101.674 125.947C100.986 125.947 100.444 126.147 100.05 126.547C99.655 126.942 99.4096 127.491 99.3136 128.195H103.722C103.722 127.865 103.676 127.563 103.586 127.291C103.495 127.014 103.362 126.777 103.186 126.579C103.01 126.377 102.794 126.222 102.538 126.115C102.287 126.003 101.999 125.947 101.674 125.947ZM115.87 133.131H115.238C115.099 133.131 114.987 133.11 114.902 133.067C114.817 133.025 114.761 132.934 114.734 132.795L114.574 132.043C114.361 132.235 114.153 132.409 113.95 132.563C113.747 132.713 113.534 132.841 113.31 132.947C113.086 133.049 112.846 133.126 112.59 133.179C112.339 133.233 112.059 133.259 111.75 133.259C111.435 133.259 111.139 133.217 110.862 133.131C110.59 133.041 110.353 132.907 110.15 132.731C109.947 132.555 109.785 132.334 109.662 132.067C109.545 131.795 109.486 131.475 109.486 131.107C109.486 130.787 109.574 130.481 109.75 130.187C109.926 129.889 110.209 129.625 110.598 129.395C110.993 129.166 111.507 128.979 112.142 128.835C112.777 128.686 113.553 128.601 114.47 128.579V127.947C114.47 127.318 114.334 126.843 114.062 126.523C113.795 126.198 113.398 126.035 112.87 126.035C112.523 126.035 112.23 126.081 111.99 126.171C111.755 126.257 111.55 126.355 111.374 126.467C111.203 126.574 111.054 126.673 110.926 126.763C110.803 126.849 110.681 126.891 110.558 126.891C110.462 126.891 110.377 126.867 110.302 126.819C110.233 126.766 110.177 126.702 110.134 126.627L109.878 126.171C110.326 125.739 110.809 125.417 111.326 125.203C111.843 124.99 112.417 124.883 113.046 124.883C113.499 124.883 113.902 124.958 114.254 125.107C114.606 125.257 114.902 125.465 115.142 125.731C115.382 125.998 115.563 126.321 115.686 126.699C115.809 127.078 115.87 127.494 115.87 127.947V133.131ZM112.174 132.259C112.425 132.259 112.654 132.235 112.862 132.187C113.07 132.134 113.265 132.062 113.446 131.971C113.633 131.875 113.809 131.761 113.974 131.627C114.145 131.494 114.31 131.342 114.47 131.171V129.483C113.814 129.505 113.257 129.558 112.798 129.643C112.339 129.723 111.966 129.83 111.678 129.963C111.39 130.097 111.179 130.254 111.046 130.435C110.918 130.617 110.854 130.819 110.854 131.043C110.854 131.257 110.889 131.441 110.958 131.595C111.027 131.75 111.121 131.878 111.238 131.979C111.355 132.075 111.494 132.147 111.654 132.195C111.814 132.238 111.987 132.259 112.174 132.259ZM119.611 121.347V133.131H118.187V121.347H119.611ZM123.705 121.347V133.131H122.281V121.347H123.705ZM129.629 133.131V126.243L128.733 126.139C128.621 126.113 128.527 126.073 128.453 126.019C128.383 125.961 128.349 125.878 128.349 125.771V125.187H129.629V124.403C129.629 123.939 129.693 123.529 129.821 123.171C129.954 122.809 130.141 122.505 130.381 122.259C130.626 122.009 130.919 121.819 131.261 121.691C131.602 121.563 131.986 121.499 132.413 121.499C132.775 121.499 133.111 121.553 133.421 121.659L133.389 122.371C133.383 122.478 133.338 122.542 133.253 122.563C133.167 122.585 133.047 122.595 132.893 122.595H132.645C132.399 122.595 132.175 122.627 131.973 122.691C131.775 122.755 131.605 122.859 131.461 123.003C131.317 123.147 131.205 123.337 131.125 123.571C131.05 123.806 131.013 124.097 131.013 124.443V125.187H133.357V126.219H131.061V133.131H129.629ZM135.931 125.027V130.195C135.931 130.809 136.073 131.283 136.355 131.619C136.638 131.955 137.065 132.123 137.635 132.123C138.051 132.123 138.443 132.025 138.811 131.827C139.179 131.63 139.518 131.355 139.827 131.003V125.027H141.251V133.131H140.403C140.201 133.131 140.073 133.033 140.019 132.835L139.907 131.963C139.555 132.353 139.161 132.667 138.723 132.907C138.286 133.142 137.785 133.259 137.219 133.259C136.777 133.259 136.385 133.187 136.043 133.043C135.707 132.894 135.425 132.686 135.195 132.419C134.966 132.153 134.793 131.83 134.675 131.451C134.563 131.073 134.507 130.654 134.507 130.195V125.027H135.931ZM143.59 133.131V125.027H144.438C144.641 125.027 144.769 125.126 144.822 125.323L144.934 126.203C145.286 125.814 145.678 125.499 146.11 125.259C146.547 125.019 147.051 124.899 147.622 124.899C148.065 124.899 148.454 124.974 148.79 125.123C149.131 125.267 149.414 125.475 149.638 125.747C149.867 126.014 150.041 126.337 150.158 126.715C150.275 127.094 150.334 127.513 150.334 127.971V133.131H148.91V127.971C148.91 127.358 148.769 126.883 148.486 126.547C148.209 126.206 147.782 126.035 147.206 126.035C146.785 126.035 146.39 126.137 146.022 126.339C145.659 126.542 145.323 126.817 145.014 127.163V133.131H143.59ZM158.009 126.467C157.966 126.526 157.923 126.571 157.881 126.603C157.838 126.635 157.777 126.651 157.697 126.651C157.617 126.651 157.529 126.619 157.433 126.555C157.342 126.486 157.225 126.411 157.081 126.331C156.937 126.251 156.761 126.179 156.553 126.115C156.35 126.046 156.099 126.011 155.801 126.011C155.406 126.011 155.057 126.083 154.753 126.227C154.449 126.366 154.193 126.569 153.985 126.835C153.782 127.102 153.627 127.425 153.521 127.803C153.419 128.182 153.368 128.606 153.368 129.075C153.368 129.566 153.425 130.003 153.537 130.387C153.649 130.766 153.806 131.086 154.009 131.347C154.211 131.603 154.457 131.801 154.745 131.939C155.038 132.073 155.366 132.139 155.729 132.139C156.075 132.139 156.361 132.099 156.585 132.019C156.809 131.934 156.995 131.841 157.145 131.739C157.294 131.638 157.417 131.547 157.513 131.467C157.609 131.382 157.705 131.339 157.801 131.339C157.923 131.339 158.014 131.385 158.073 131.475L158.473 131.995C158.121 132.427 157.681 132.745 157.153 132.947C156.625 133.145 156.067 133.243 155.481 133.243C154.974 133.243 154.502 133.15 154.065 132.963C153.633 132.777 153.257 132.507 152.937 132.155C152.617 131.798 152.363 131.361 152.177 130.843C151.995 130.326 151.905 129.737 151.905 129.075C151.905 128.473 151.987 127.915 152.153 127.403C152.323 126.891 152.569 126.451 152.889 126.083C153.214 125.71 153.614 125.419 154.089 125.211C154.563 125.003 155.107 124.899 155.72 124.899C156.286 124.899 156.787 124.993 157.225 125.179C157.662 125.361 158.049 125.619 158.385 125.955L158.009 126.467ZM162.405 133.259C161.765 133.259 161.272 133.081 160.925 132.723C160.584 132.366 160.413 131.851 160.413 131.179V126.219H159.437C159.352 126.219 159.28 126.195 159.221 126.147C159.163 126.094 159.133 126.014 159.133 125.907V125.339L160.461 125.171L160.789 122.667C160.8 122.587 160.835 122.523 160.893 122.475C160.952 122.422 161.027 122.395 161.117 122.395H161.837V125.187H164.157V126.219H161.837V131.083C161.837 131.425 161.92 131.678 162.085 131.843C162.251 132.009 162.464 132.091 162.725 132.091C162.875 132.091 163.003 132.073 163.109 132.035C163.221 131.993 163.317 131.947 163.397 131.899C163.477 131.851 163.544 131.809 163.597 131.771C163.656 131.729 163.707 131.707 163.749 131.707C163.824 131.707 163.891 131.753 163.949 131.843L164.365 132.523C164.12 132.753 163.824 132.934 163.477 133.067C163.131 133.195 162.773 133.259 162.405 133.259ZM167.502 125.027V133.131H166.078V125.027H167.502ZM167.822 122.483C167.822 122.622 167.793 122.753 167.734 122.875C167.681 122.993 167.606 123.099 167.51 123.195C167.419 123.286 167.313 123.358 167.19 123.411C167.067 123.465 166.937 123.491 166.798 123.491C166.659 123.491 166.529 123.465 166.406 123.411C166.289 123.358 166.182 123.286 166.086 123.195C165.995 123.099 165.923 122.993 165.87 122.875C165.817 122.753 165.79 122.622 165.79 122.483C165.79 122.345 165.817 122.214 165.87 122.091C165.923 121.963 165.995 121.854 166.086 121.763C166.182 121.667 166.289 121.593 166.406 121.539C166.529 121.486 166.659 121.459 166.798 121.459C166.937 121.459 167.067 121.486 167.19 121.539C167.313 121.593 167.419 121.667 167.51 121.763C167.606 121.854 167.681 121.963 167.734 122.091C167.793 122.214 167.822 122.345 167.822 122.483ZM173.292 124.899C173.884 124.899 174.417 124.998 174.892 125.195C175.372 125.393 175.777 125.673 176.108 126.035C176.444 126.398 176.7 126.838 176.876 127.355C177.057 127.867 177.148 128.441 177.148 129.075C177.148 129.715 177.057 130.291 176.876 130.803C176.7 131.315 176.444 131.753 176.108 132.115C175.777 132.478 175.372 132.758 174.892 132.955C174.417 133.147 173.884 133.243 173.292 133.243C172.7 133.243 172.164 133.147 171.684 132.955C171.209 132.758 170.804 132.478 170.468 132.115C170.132 131.753 169.873 131.315 169.692 130.803C169.51 130.291 169.42 129.715 169.42 129.075C169.42 128.441 169.51 127.867 169.692 127.355C169.873 126.838 170.132 126.398 170.468 126.035C170.804 125.673 171.209 125.393 171.684 125.195C172.164 124.998 172.7 124.899 173.292 124.899ZM173.292 132.131C174.092 132.131 174.689 131.865 175.084 131.331C175.478 130.793 175.676 130.043 175.676 129.083C175.676 128.118 175.478 127.366 175.084 126.827C174.689 126.289 174.092 126.019 173.292 126.019C172.886 126.019 172.534 126.089 172.236 126.227C171.937 126.366 171.686 126.566 171.484 126.827C171.286 127.089 171.137 127.411 171.036 127.795C170.94 128.174 170.892 128.603 170.892 129.083C170.892 129.563 170.94 129.993 171.036 130.371C171.137 130.75 171.286 131.07 171.484 131.331C171.686 131.587 171.937 131.785 172.236 131.923C172.534 132.062 172.886 132.131 173.292 132.131ZM178.902 133.131V125.027H179.75C179.953 125.027 180.081 125.126 180.134 125.323L180.246 126.203C180.598 125.814 180.99 125.499 181.422 125.259C181.86 125.019 182.364 124.899 182.934 124.899C183.377 124.899 183.766 124.974 184.102 125.123C184.444 125.267 184.726 125.475 184.95 125.747C185.18 126.014 185.353 126.337 185.47 126.715C185.588 127.094 185.646 127.513 185.646 127.971V133.131H184.222V127.971C184.222 127.358 184.081 126.883 183.798 126.547C183.521 126.206 183.094 126.035 182.518 126.035C182.097 126.035 181.702 126.137 181.334 126.339C180.972 126.542 180.636 126.817 180.326 127.163V133.131H178.902ZM192.433 126.363C192.369 126.481 192.27 126.539 192.137 126.539C192.057 126.539 191.966 126.51 191.865 126.451C191.764 126.393 191.638 126.329 191.489 126.259C191.345 126.185 191.172 126.118 190.969 126.059C190.766 125.995 190.526 125.963 190.249 125.963C190.009 125.963 189.793 125.995 189.601 126.059C189.409 126.118 189.244 126.201 189.105 126.307C188.972 126.414 188.868 126.539 188.793 126.683C188.724 126.822 188.689 126.974 188.689 127.139C188.689 127.347 188.748 127.521 188.865 127.659C188.988 127.798 189.148 127.918 189.345 128.019C189.542 128.121 189.766 128.211 190.017 128.291C190.268 128.366 190.524 128.449 190.785 128.539C191.052 128.625 191.31 128.721 191.561 128.827C191.812 128.934 192.036 129.067 192.233 129.227C192.43 129.387 192.588 129.585 192.705 129.819C192.828 130.049 192.889 130.326 192.889 130.651C192.889 131.025 192.822 131.371 192.689 131.691C192.556 132.006 192.358 132.281 192.097 132.515C191.836 132.745 191.516 132.926 191.137 133.059C190.758 133.193 190.321 133.259 189.825 133.259C189.26 133.259 188.748 133.169 188.289 132.987C187.83 132.801 187.441 132.563 187.121 132.275L187.457 131.731C187.5 131.662 187.55 131.609 187.609 131.571C187.668 131.534 187.745 131.515 187.841 131.515C187.937 131.515 188.038 131.553 188.145 131.627C188.252 131.702 188.38 131.785 188.529 131.875C188.684 131.966 188.868 132.049 189.081 132.123C189.3 132.198 189.572 132.235 189.897 132.235C190.174 132.235 190.417 132.201 190.625 132.131C190.833 132.057 191.006 131.958 191.145 131.835C191.284 131.713 191.385 131.571 191.449 131.411C191.518 131.251 191.553 131.081 191.553 130.899C191.553 130.675 191.492 130.491 191.369 130.347C191.252 130.198 191.094 130.073 190.897 129.971C190.7 129.865 190.473 129.774 190.217 129.699C189.966 129.619 189.708 129.537 189.441 129.451C189.18 129.366 188.921 129.27 188.665 129.163C188.414 129.051 188.19 128.913 187.993 128.747C187.796 128.582 187.636 128.379 187.513 128.139C187.396 127.894 187.337 127.598 187.337 127.251C187.337 126.942 187.401 126.646 187.529 126.363C187.657 126.075 187.844 125.825 188.089 125.611C188.334 125.393 188.636 125.219 188.993 125.091C189.35 124.963 189.758 124.899 190.217 124.899C190.75 124.899 191.228 124.985 191.649 125.155C192.076 125.321 192.444 125.55 192.753 125.843L192.433 126.363ZM201.104 124.899C201.696 124.899 202.23 124.998 202.704 125.195C203.184 125.393 203.59 125.673 203.92 126.035C204.256 126.398 204.512 126.838 204.688 127.355C204.87 127.867 204.96 128.441 204.96 129.075C204.96 129.715 204.87 130.291 204.688 130.803C204.512 131.315 204.256 131.753 203.92 132.115C203.59 132.478 203.184 132.758 202.704 132.955C202.23 133.147 201.696 133.243 201.104 133.243C200.512 133.243 199.976 133.147 199.496 132.955C199.022 132.758 198.616 132.478 198.28 132.115C197.944 131.753 197.686 131.315 197.504 130.803C197.323 130.291 197.232 129.715 197.232 129.075C197.232 128.441 197.323 127.867 197.504 127.355C197.686 126.838 197.944 126.398 198.28 126.035C198.616 125.673 199.022 125.393 199.496 125.195C199.976 124.998 200.512 124.899 201.104 124.899ZM201.104 132.131C201.904 132.131 202.502 131.865 202.896 131.331C203.291 130.793 203.488 130.043 203.488 129.083C203.488 128.118 203.291 127.366 202.896 126.827C202.502 126.289 201.904 126.019 201.104 126.019C200.699 126.019 200.347 126.089 200.048 126.227C199.75 126.366 199.499 126.566 199.296 126.827C199.099 127.089 198.95 127.411 198.848 127.795C198.752 128.174 198.704 128.603 198.704 129.083C198.704 129.563 198.752 129.993 198.848 130.371C198.95 130.75 199.099 131.07 199.296 131.331C199.499 131.587 199.75 131.785 200.048 131.923C200.347 132.062 200.699 132.131 201.104 132.131ZM207.035 133.131V126.243L206.139 126.139C206.027 126.113 205.934 126.073 205.859 126.019C205.79 125.961 205.755 125.878 205.755 125.771V125.187H207.035V124.403C207.035 123.939 207.099 123.529 207.227 123.171C207.36 122.809 207.547 122.505 207.787 122.259C208.032 122.009 208.326 121.819 208.667 121.691C209.008 121.563 209.392 121.499 209.819 121.499C210.182 121.499 210.518 121.553 210.827 121.659L210.795 122.371C210.79 122.478 210.744 122.542 210.659 122.563C210.574 122.585 210.454 122.595 210.299 122.595H210.051C209.806 122.595 209.582 122.627 209.379 122.691C209.182 122.755 209.011 122.859 208.867 123.003C208.723 123.147 208.611 123.337 208.531 123.571C208.456 123.806 208.419 124.097 208.419 124.443V125.187H210.763V126.219H208.467V133.131H207.035ZM215.423 133.131V121.667H219.079C219.783 121.667 220.389 121.737 220.895 121.875C221.407 122.014 221.826 122.211 222.151 122.467C222.482 122.723 222.725 123.038 222.879 123.411C223.039 123.779 223.119 124.195 223.119 124.659C223.119 124.942 223.074 125.214 222.983 125.475C222.898 125.737 222.765 125.979 222.583 126.203C222.407 126.427 222.183 126.627 221.911 126.803C221.645 126.979 221.33 127.123 220.967 127.235C221.805 127.401 222.437 127.702 222.863 128.139C223.29 128.577 223.503 129.153 223.503 129.867C223.503 130.353 223.413 130.795 223.231 131.195C223.055 131.595 222.794 131.939 222.447 132.227C222.106 132.515 221.685 132.739 221.183 132.899C220.687 133.054 220.119 133.131 219.479 133.131H215.423ZM216.975 127.907V131.899H219.455C219.898 131.899 220.277 131.849 220.591 131.747C220.911 131.646 221.173 131.505 221.375 131.323C221.583 131.137 221.735 130.918 221.831 130.667C221.927 130.411 221.975 130.131 221.975 129.827C221.975 129.235 221.765 128.769 221.343 128.427C220.927 128.081 220.295 127.907 219.447 127.907H216.975ZM216.975 126.803H219.023C219.461 126.803 219.839 126.755 220.159 126.659C220.479 126.563 220.743 126.43 220.951 126.259C221.165 126.089 221.322 125.883 221.423 125.643C221.525 125.398 221.575 125.131 221.575 124.843C221.575 124.171 221.373 123.678 220.967 123.363C220.562 123.049 219.933 122.891 219.079 122.891H216.975V126.803ZM228.767 124.899C229.252 124.899 229.7 124.982 230.111 125.147C230.521 125.307 230.876 125.542 231.175 125.851C231.473 126.155 231.705 126.534 231.871 126.987C232.041 127.435 232.127 127.947 232.127 128.523C232.127 128.747 232.103 128.897 232.055 128.971C232.007 129.046 231.916 129.083 231.783 129.083H226.391C226.401 129.595 226.471 130.041 226.599 130.419C226.727 130.798 226.903 131.115 227.127 131.371C227.351 131.622 227.617 131.811 227.927 131.939C228.236 132.062 228.583 132.123 228.967 132.123C229.324 132.123 229.631 132.083 229.887 132.003C230.148 131.918 230.372 131.827 230.559 131.731C230.745 131.635 230.9 131.547 231.023 131.467C231.151 131.382 231.26 131.339 231.351 131.339C231.468 131.339 231.559 131.385 231.623 131.475L232.023 131.995C231.847 132.209 231.636 132.395 231.391 132.555C231.145 132.71 230.881 132.838 230.599 132.939C230.321 133.041 230.033 133.115 229.735 133.163C229.436 133.217 229.14 133.243 228.847 133.243C228.287 133.243 227.769 133.15 227.295 132.963C226.825 132.771 226.417 132.494 226.071 132.131C225.729 131.763 225.463 131.31 225.271 130.771C225.079 130.233 224.983 129.614 224.983 128.915C224.983 128.35 225.068 127.822 225.239 127.331C225.415 126.841 225.665 126.417 225.991 126.059C226.316 125.697 226.713 125.414 227.183 125.211C227.652 125.003 228.18 124.899 228.767 124.899ZM228.799 125.947C228.111 125.947 227.569 126.147 227.175 126.547C226.78 126.942 226.535 127.491 226.439 128.195H230.847C230.847 127.865 230.801 127.563 230.711 127.291C230.62 127.014 230.487 126.777 230.311 126.579C230.135 126.377 229.919 126.222 229.663 126.115C229.412 126.003 229.124 125.947 228.799 125.947ZM235.725 131.827H240.685V133.131H234.173V121.667H235.725V131.827ZM248.12 133.131H247.488C247.349 133.131 247.237 133.11 247.152 133.067C247.067 133.025 247.011 132.934 246.984 132.795L246.824 132.043C246.611 132.235 246.403 132.409 246.2 132.563C245.997 132.713 245.784 132.841 245.56 132.947C245.336 133.049 245.096 133.126 244.84 133.179C244.589 133.233 244.309 133.259 244 133.259C243.685 133.259 243.389 133.217 243.112 133.131C242.84 133.041 242.603 132.907 242.4 132.731C242.197 132.555 242.035 132.334 241.912 132.067C241.795 131.795 241.736 131.475 241.736 131.107C241.736 130.787 241.824 130.481 242 130.187C242.176 129.889 242.459 129.625 242.848 129.395C243.243 129.166 243.757 128.979 244.392 128.835C245.027 128.686 245.803 128.601 246.72 128.579V127.947C246.72 127.318 246.584 126.843 246.312 126.523C246.045 126.198 245.648 126.035 245.12 126.035C244.773 126.035 244.48 126.081 244.24 126.171C244.005 126.257 243.8 126.355 243.624 126.467C243.453 126.574 243.304 126.673 243.176 126.763C243.053 126.849 242.931 126.891 242.808 126.891C242.712 126.891 242.627 126.867 242.552 126.819C242.483 126.766 242.427 126.702 242.384 126.627L242.128 126.171C242.576 125.739 243.059 125.417 243.576 125.203C244.093 124.99 244.667 124.883 245.296 124.883C245.749 124.883 246.152 124.958 246.504 125.107C246.856 125.257 247.152 125.465 247.392 125.731C247.632 125.998 247.813 126.321 247.936 126.699C248.059 127.078 248.12 127.494 248.12 127.947V133.131ZM244.424 132.259C244.675 132.259 244.904 132.235 245.112 132.187C245.32 132.134 245.515 132.062 245.696 131.971C245.883 131.875 246.059 131.761 246.224 131.627C246.395 131.494 246.56 131.342 246.72 131.171V129.483C246.064 129.505 245.507 129.558 245.048 129.643C244.589 129.723 244.216 129.83 243.928 129.963C243.64 130.097 243.429 130.254 243.296 130.435C243.168 130.617 243.104 130.819 243.104 131.043C243.104 131.257 243.139 131.441 243.208 131.595C243.277 131.75 243.371 131.878 243.488 131.979C243.605 132.075 243.744 132.147 243.904 132.195C244.064 132.238 244.237 132.259 244.424 132.259ZM251.509 125.027V130.195C251.509 130.809 251.651 131.283 251.933 131.619C252.216 131.955 252.643 132.123 253.213 132.123C253.629 132.123 254.021 132.025 254.389 131.827C254.757 131.63 255.096 131.355 255.405 131.003V125.027H256.829V133.131H255.981C255.779 133.131 255.651 133.033 255.597 132.835L255.485 131.963C255.133 132.353 254.739 132.667 254.301 132.907C253.864 133.142 253.363 133.259 252.797 133.259C252.355 133.259 251.963 133.187 251.621 133.043C251.285 132.894 251.003 132.686 250.773 132.419C250.544 132.153 250.371 131.83 250.253 131.451C250.141 131.073 250.085 130.654 250.085 130.195V125.027H251.509ZM259.168 133.131V125.027H260.016C260.219 125.027 260.347 125.126 260.4 125.323L260.512 126.203C260.864 125.814 261.256 125.499 261.688 125.259C262.125 125.019 262.629 124.899 263.2 124.899C263.643 124.899 264.032 124.974 264.368 125.123C264.709 125.267 264.992 125.475 265.216 125.747C265.445 126.014 265.619 126.337 265.736 126.715C265.853 127.094 265.912 127.513 265.912 127.971V133.131H264.488V127.971C264.488 127.358 264.347 126.883 264.064 126.547C263.787 126.206 263.36 126.035 262.784 126.035C262.363 126.035 261.968 126.137 261.6 126.339C261.237 126.542 260.901 126.817 260.592 127.163V133.131H259.168ZM273.587 126.467C273.544 126.526 273.501 126.571 273.459 126.603C273.416 126.635 273.355 126.651 273.275 126.651C273.195 126.651 273.107 126.619 273.011 126.555C272.92 126.486 272.803 126.411 272.659 126.331C272.515 126.251 272.339 126.179 272.131 126.115C271.928 126.046 271.677 126.011 271.379 126.011C270.984 126.011 270.635 126.083 270.331 126.227C270.027 126.366 269.771 126.569 269.563 126.835C269.36 127.102 269.205 127.425 269.099 127.803C268.997 128.182 268.947 128.606 268.947 129.075C268.947 129.566 269.003 130.003 269.115 130.387C269.227 130.766 269.384 131.086 269.587 131.347C269.789 131.603 270.035 131.801 270.323 131.939C270.616 132.073 270.944 132.139 271.307 132.139C271.653 132.139 271.939 132.099 272.163 132.019C272.387 131.934 272.573 131.841 272.723 131.739C272.872 131.638 272.995 131.547 273.091 131.467C273.187 131.382 273.283 131.339 273.379 131.339C273.501 131.339 273.592 131.385 273.651 131.475L274.051 131.995C273.699 132.427 273.259 132.745 272.731 132.947C272.203 133.145 271.645 133.243 271.059 133.243C270.552 133.243 270.08 133.15 269.643 132.963C269.211 132.777 268.835 132.507 268.515 132.155C268.195 131.798 267.941 131.361 267.755 130.843C267.573 130.326 267.483 129.737 267.483 129.075C267.483 128.473 267.565 127.915 267.731 127.403C267.901 126.891 268.147 126.451 268.467 126.083C268.792 125.71 269.192 125.419 269.667 125.211C270.141 125.003 270.685 124.899 271.299 124.899C271.864 124.899 272.365 124.993 272.803 125.179C273.24 125.361 273.627 125.619 273.963 125.955L273.587 126.467ZM275.527 133.131V121.347H276.951V126.115C277.298 125.747 277.682 125.454 278.103 125.235C278.525 125.011 279.01 124.899 279.559 124.899C280.002 124.899 280.391 124.974 280.727 125.123C281.069 125.267 281.351 125.475 281.575 125.747C281.805 126.014 281.978 126.337 282.095 126.715C282.213 127.094 282.271 127.513 282.271 127.971V133.131H280.847V127.971C280.847 127.358 280.706 126.883 280.423 126.547C280.146 126.206 279.719 126.035 279.143 126.035C278.722 126.035 278.327 126.137 277.959 126.339C277.597 126.542 277.261 126.817 276.951 127.163V133.131H275.527ZM44.12 164.131H43.488C43.3493 164.131 43.2373 164.11 43.152 164.067C43.0667 164.025 43.0107 163.934 42.984 163.795L42.824 163.043C42.6107 163.235 42.4027 163.409 42.2 163.563C41.9973 163.713 41.784 163.841 41.56 163.947C41.336 164.049 41.096 164.126 40.84 164.179C40.5893 164.233 40.3093 164.259 40 164.259C39.6853 164.259 39.3893 164.217 39.112 164.131C38.84 164.041 38.6027 163.907 38.4 163.731C38.1973 163.555 38.0347 163.334 37.912 163.067C37.7947 162.795 37.736 162.475 37.736 162.107C37.736 161.787 37.824 161.481 38 161.187C38.176 160.889 38.4587 160.625 38.848 160.395C39.2427 160.166 39.7573 159.979 40.392 159.835C41.0267 159.686 41.8027 159.601 42.72 159.579V158.947C42.72 158.318 42.584 157.843 42.312 157.523C42.0453 157.198 41.648 157.035 41.12 157.035C40.7733 157.035 40.48 157.081 40.24 157.171C40.0053 157.257 39.8 157.355 39.624 157.467C39.4533 157.574 39.304 157.673 39.176 157.763C39.0533 157.849 38.9307 157.891 38.808 157.891C38.712 157.891 38.6267 157.867 38.552 157.819C38.4827 157.766 38.4267 157.702 38.384 157.627L38.128 157.171C38.576 156.739 39.0587 156.417 39.576 156.203C40.0933 155.99 40.6667 155.883 41.296 155.883C41.7493 155.883 42.152 155.958 42.504 156.107C42.856 156.257 43.152 156.465 43.392 156.731C43.632 156.998 43.8133 157.321 43.936 157.699C44.0587 158.078 44.12 158.494 44.12 158.947V164.131ZM40.424 163.259C40.6747 163.259 40.904 163.235 41.112 163.187C41.32 163.134 41.5147 163.062 41.696 162.971C41.8827 162.875 42.0587 162.761 42.224 162.627C42.3947 162.494 42.56 162.342 42.72 162.171V160.483C42.064 160.505 41.5067 160.558 41.048 160.643C40.5893 160.723 40.216 160.83 39.928 160.963C39.64 161.097 39.4293 161.254 39.296 161.435C39.168 161.617 39.104 161.819 39.104 162.043C39.104 162.257 39.1387 162.441 39.208 162.595C39.2773 162.75 39.3707 162.878 39.488 162.979C39.6053 163.075 39.744 163.147 39.904 163.195C40.064 163.238 40.2373 163.259 40.424 163.259ZM46.2774 164.131V156.027H47.1254C47.328 156.027 47.456 156.126 47.5094 156.323L47.6214 157.203C47.9734 156.814 48.3654 156.499 48.7974 156.259C49.2347 156.019 49.7387 155.899 50.3094 155.899C50.752 155.899 51.1414 155.974 51.4774 156.123C51.8187 156.267 52.1014 156.475 52.3254 156.747C52.5547 157.014 52.728 157.337 52.8454 157.715C52.9627 158.094 53.0214 158.513 53.0214 158.971V164.131H51.5974V158.971C51.5974 158.358 51.456 157.883 51.1734 157.547C50.896 157.206 50.4694 157.035 49.8934 157.035C49.472 157.035 49.0774 157.137 48.7094 157.339C48.3467 157.542 48.0107 157.817 47.7014 158.163V164.131H46.2774ZM60.872 164.131C60.6693 164.131 60.5413 164.033 60.488 163.835L60.36 162.851C60.0133 163.273 59.616 163.611 59.168 163.867C58.7253 164.118 58.216 164.243 57.64 164.243C57.176 164.243 56.7547 164.155 56.376 163.979C55.9973 163.798 55.6747 163.534 55.408 163.187C55.1413 162.841 54.936 162.409 54.792 161.891C54.648 161.374 54.576 160.779 54.576 160.107C54.576 159.51 54.656 158.955 54.816 158.443C54.976 157.926 55.2053 157.478 55.504 157.099C55.808 156.721 56.176 156.425 56.608 156.211C57.04 155.993 57.5307 155.883 58.08 155.883C58.576 155.883 59 155.969 59.352 156.139C59.704 156.305 60.0187 156.539 60.296 156.843V152.347H61.72V164.131H60.872ZM58.112 163.091C58.576 163.091 58.9813 162.985 59.328 162.771C59.68 162.558 60.0027 162.257 60.296 161.867V157.947C60.0347 157.595 59.7467 157.35 59.432 157.211C59.1227 157.067 58.7787 156.995 58.4 156.995C57.6427 156.995 57.0613 157.265 56.656 157.803C56.2507 158.342 56.048 159.11 56.048 160.107C56.048 160.635 56.0933 161.089 56.184 161.467C56.2747 161.841 56.408 162.15 56.584 162.395C56.76 162.635 56.976 162.811 57.232 162.923C57.488 163.035 57.7813 163.091 58.112 163.091ZM67.4233 164.131V152.667H71.0793C71.7833 152.667 72.3886 152.737 72.8953 152.875C73.4073 153.014 73.8259 153.211 74.1513 153.467C74.4819 153.723 74.7246 154.038 74.8793 154.411C75.0393 154.779 75.1193 155.195 75.1193 155.659C75.1193 155.942 75.0739 156.214 74.9833 156.475C74.8979 156.737 74.7646 156.979 74.5833 157.203C74.4073 157.427 74.1833 157.627 73.9113 157.803C73.6446 157.979 73.3299 158.123 72.9673 158.235C73.8046 158.401 74.4366 158.702 74.8633 159.139C75.2899 159.577 75.5033 160.153 75.5033 160.867C75.5033 161.353 75.4126 161.795 75.2313 162.195C75.0553 162.595 74.7939 162.939 74.4473 163.227C74.1059 163.515 73.6846 163.739 73.1833 163.899C72.6873 164.054 72.1193 164.131 71.4793 164.131H67.4233ZM68.9753 158.907V162.899H71.4553C71.8979 162.899 72.2766 162.849 72.5913 162.747C72.9113 162.646 73.1726 162.505 73.3753 162.323C73.5833 162.137 73.7353 161.918 73.8313 161.667C73.9273 161.411 73.9753 161.131 73.9753 160.827C73.9753 160.235 73.7646 159.769 73.3433 159.427C72.9273 159.081 72.2953 158.907 71.4473 158.907H68.9753ZM68.9753 157.803H71.0233C71.4606 157.803 71.8393 157.755 72.1593 157.659C72.4793 157.563 72.7433 157.43 72.9513 157.259C73.1646 157.089 73.3219 156.883 73.4233 156.643C73.5246 156.398 73.5753 156.131 73.5753 155.843C73.5753 155.171 73.3726 154.678 72.9673 154.363C72.5619 154.049 71.9326 153.891 71.0793 153.891H68.9753V157.803ZM80.7666 155.899C81.252 155.899 81.7 155.982 82.1106 156.147C82.5213 156.307 82.876 156.542 83.1746 156.851C83.4733 157.155 83.7053 157.534 83.8706 157.987C84.0413 158.435 84.1266 158.947 84.1266 159.523C84.1266 159.747 84.1026 159.897 84.0546 159.971C84.0066 160.046 83.916 160.083 83.7826 160.083H78.3906C78.4013 160.595 78.4706 161.041 78.5986 161.419C78.7266 161.798 78.9026 162.115 79.1266 162.371C79.3506 162.622 79.6173 162.811 79.9266 162.939C80.236 163.062 80.5826 163.123 80.9666 163.123C81.324 163.123 81.6306 163.083 81.8866 163.003C82.148 162.918 82.372 162.827 82.5586 162.731C82.7453 162.635 82.9 162.547 83.0226 162.467C83.1506 162.382 83.26 162.339 83.3506 162.339C83.468 162.339 83.5586 162.385 83.6226 162.475L84.0226 162.995C83.8466 163.209 83.636 163.395 83.3906 163.555C83.1453 163.71 82.8813 163.838 82.5986 163.939C82.3213 164.041 82.0333 164.115 81.7346 164.163C81.436 164.217 81.14 164.243 80.8466 164.243C80.2866 164.243 79.7693 164.15 79.2946 163.963C78.8253 163.771 78.4173 163.494 78.0706 163.131C77.7293 162.763 77.4626 162.31 77.2706 161.771C77.0786 161.233 76.9826 160.614 76.9826 159.915C76.9826 159.35 77.068 158.822 77.2386 158.331C77.4146 157.841 77.6653 157.417 77.9906 157.059C78.316 156.697 78.7133 156.414 79.1826 156.211C79.652 156.003 80.18 155.899 80.7666 155.899ZM80.7986 156.947C80.1106 156.947 79.5693 157.147 79.1746 157.547C78.78 157.942 78.5346 158.491 78.4386 159.195H82.8466C82.8466 158.865 82.8013 158.563 82.7106 158.291C82.62 158.014 82.4866 157.777 82.3106 157.579C82.1346 157.377 81.9186 157.222 81.6626 157.115C81.412 157.003 81.124 156.947 80.7986 156.947ZM96.1093 158.403C96.1093 159.262 95.9733 160.043 95.7013 160.747C95.4293 161.451 95.0453 162.054 94.5493 162.555C94.0533 163.057 93.4586 163.446 92.7653 163.723C92.0719 163.995 91.3039 164.131 90.4613 164.131H86.1733V152.667H90.4613C91.3039 152.667 92.0719 152.806 92.7653 153.083C93.4586 153.355 94.0533 153.745 94.5493 154.251C95.0453 154.753 95.4293 155.355 95.7013 156.059C95.9733 156.763 96.1093 157.545 96.1093 158.403ZM94.5173 158.403C94.5173 157.699 94.4213 157.07 94.2293 156.515C94.0373 155.961 93.7653 155.491 93.4132 155.107C93.0613 154.723 92.6346 154.43 92.1333 154.227C91.6319 154.025 91.0746 153.923 90.4613 153.923H87.7333V162.875H90.4613C91.0746 162.875 91.6319 162.774 92.1333 162.571C92.6346 162.369 93.0613 162.078 93.4132 161.699C93.7653 161.315 94.0373 160.846 94.2293 160.291C94.4213 159.737 94.5173 159.107 94.5173 158.403ZM101.204 155.899C101.689 155.899 102.137 155.982 102.548 156.147C102.959 156.307 103.313 156.542 103.612 156.851C103.911 157.155 104.143 157.534 104.308 157.987C104.479 158.435 104.564 158.947 104.564 159.523C104.564 159.747 104.54 159.897 104.492 159.971C104.444 160.046 104.353 160.083 104.22 160.083H98.8281C98.8388 160.595 98.9081 161.041 99.0361 161.419C99.1641 161.798 99.3401 162.115 99.5641 162.371C99.7881 162.622 100.055 162.811 100.364 162.939C100.673 163.062 101.02 163.123 101.404 163.123C101.761 163.123 102.068 163.083 102.324 163.003C102.585 162.918 102.809 162.827 102.996 162.731C103.183 162.635 103.337 162.547 103.46 162.467C103.588 162.382 103.697 162.339 103.788 162.339C103.905 162.339 103.996 162.385 104.06 162.475L104.46 162.995C104.284 163.209 104.073 163.395 103.828 163.555C103.583 163.71 103.319 163.838 103.036 163.939C102.759 164.041 102.471 164.115 102.172 164.163C101.873 164.217 101.577 164.243 101.284 164.243C100.724 164.243 100.207 164.15 99.7321 163.963C99.2628 163.771 98.8548 163.494 98.5081 163.131C98.1668 162.763 97.9001 162.31 97.7081 161.771C97.5161 161.233 97.4201 160.614 97.4201 159.915C97.4201 159.35 97.5055 158.822 97.6761 158.331C97.8521 157.841 98.1028 157.417 98.4281 157.059C98.7535 156.697 99.1508 156.414 99.6201 156.211C100.089 156.003 100.617 155.899 101.204 155.899ZM101.236 156.947C100.548 156.947 100.007 157.147 99.6121 157.547C99.2175 157.942 98.9721 158.491 98.8761 159.195H103.284C103.284 158.865 103.239 158.563 103.148 158.291C103.057 158.014 102.924 157.777 102.748 157.579C102.572 157.377 102.356 157.222 102.1 157.115C101.849 157.003 101.561 156.947 101.236 156.947ZM107.798 159.979L105.07 156.027H106.438C106.556 156.027 106.641 156.046 106.694 156.083C106.748 156.121 106.796 156.174 106.838 156.243L108.822 159.283C108.87 159.134 108.94 158.985 109.03 158.835L110.774 156.275C110.828 156.201 110.881 156.142 110.934 156.099C110.988 156.051 111.054 156.027 111.134 156.027H112.446L109.718 159.899L112.558 164.131H111.19C111.073 164.131 110.98 164.102 110.91 164.043C110.846 163.979 110.793 163.91 110.75 163.835L108.71 160.659C108.673 160.814 108.617 160.953 108.542 161.075L106.654 163.835C106.601 163.91 106.542 163.979 106.478 164.043C106.42 164.102 106.337 164.131 106.23 164.131H104.958L107.798 159.979Z"
    fill="white"
  />
<circle cx="18.5" cy="34.3967" r="3.5" fill="#3CD2F9" />
<circle cx="18.5" cy="65.6313" r="3.5" fill="#3CD2F9" />
<circle cx="18.5" cy="96.6313" r="3.5" fill="#3CD2F9" />
<circle cx="18.5" cy="127.631" r="3.5" fill="#3CD2F9" />
<defs>
<linearGradient
      id="paint0_linear_15_353"
      x1="154.049"
      y1="0.666992"
      x2="154.049"
      y2="190.596"
      gradientUnits="userSpaceOnUse"
    >
<stop stop-color="#EFEFEF" />
<stop offset="0.604167" stop-color="#EFEFEF" stop-opacity="0.325" />
<stop offset="1" stop-color="#EFEFEF" stop-opacity="0.3" />
</linearGradient>
</defs>
</svg>
