<svg width="203" height="200" viewBox="0 0 203 200" fill="none" xmlns="http://www.w3.org/2000/svg">
<g opacity="0.8" filter="url(#filter0_f_230_97)">
<path d="M200 98.8318C200 153.004 156.166 196.838 101.994 196.838C47.8213 196.838 3.98721 153.004 3.98721 98.8318H200Z" fill="url(#paint0_linear_230_97)"/>
</g>
<path d="M101.836 197.289C155.939 197.289 199.799 153.348 199.799 99.1445C199.799 44.9408 155.939 1 101.836 1C47.7326 1 3.87317 44.9408 3.87317 99.1445C3.87317 153.348 47.7326 197.289 101.836 197.289Z" stroke="#4AF3F8" stroke-width="1.74643" stroke-miterlimit="10"/>
<path opacity="0.5" d="M101.74 189.007C151.278 189.007 191.436 148.774 191.436 99.1445C191.436 49.5149 151.278 9.28223 101.74 9.28223C52.2022 9.28223 12.0439 49.5149 12.0439 99.1445C12.0439 148.774 52.2022 189.007 101.74 189.007Z" fill="#131B1D"/>
<path d="M88.5213 86.8937C88.7448 86.8937 88.9195 86.9601 89.0452 87.0928C89.171 87.2186 89.2338 87.3862 89.2338 87.5958V88.8323H79.1325V88.1302C79.1325 87.9905 79.1604 87.8438 79.2163 87.6901C79.2722 87.5294 79.3665 87.3862 79.4992 87.2605L84.2565 82.4927C84.6547 82.0945 85.0145 81.7103 85.3358 81.3401C85.6571 80.9698 85.9296 80.6031 86.1531 80.2398C86.3767 79.8696 86.5478 79.4924 86.6666 79.1081C86.7923 78.7239 86.8552 78.3188 86.8552 77.8926C86.8552 77.4735 86.7888 77.1067 86.6561 76.7924C86.5234 76.471 86.3417 76.2056 86.1112 75.996C85.8807 75.7864 85.6082 75.6293 85.2939 75.5245C84.9795 75.4197 84.6407 75.3673 84.2775 75.3673C83.9142 75.3673 83.5789 75.4197 83.2715 75.5245C82.9711 75.6293 82.7022 75.776 82.4647 75.9646C82.2272 76.1532 82.0281 76.3767 81.8674 76.6352C81.7067 76.8937 81.5915 77.1731 81.5216 77.4735C81.4238 77.7389 81.2981 77.9171 81.1444 78.0079C80.9977 78.0987 80.7811 78.1197 80.4947 78.0708L79.4259 77.8822C79.5237 77.1836 79.7158 76.5688 80.0022 76.0379C80.2886 75.507 80.6484 75.0634 81.0815 74.7071C81.5146 74.3439 82.0106 74.0714 82.5695 73.8898C83.1353 73.7082 83.7431 73.6174 84.3927 73.6174C85.0494 73.6174 85.6536 73.7152 86.2055 73.9108C86.7644 74.0994 87.2464 74.3753 87.6516 74.7386C88.0567 75.1018 88.3746 75.5454 88.6051 76.0694C88.8356 76.5863 88.9509 77.1731 88.9509 77.8298C88.9509 78.3886 88.8671 78.9091 88.6994 79.3911C88.5388 79.8661 88.3152 80.3202 88.0288 80.7533C87.7494 81.1864 87.421 81.609 87.0438 82.0212C86.6736 82.4264 86.2789 82.8385 85.8597 83.2577L82.0455 87.1557C82.3389 87.0789 82.6323 87.016 82.9257 86.9671C83.2261 86.9182 83.509 86.8937 83.7745 86.8937H88.5213ZM102.103 81.3087C102.103 82.622 101.96 83.7606 101.674 84.7247C101.394 85.6887 101.006 86.4886 100.51 87.1243C100.021 87.753 99.4416 88.221 98.771 88.5284C98.1073 88.8358 97.3913 88.9895 96.6229 88.9895C95.8544 88.9895 95.1349 88.8358 94.4643 88.5284C93.8006 88.221 93.2243 87.753 92.7353 87.1243C92.2463 86.4886 91.8621 85.6887 91.5827 84.7247C91.3032 83.7606 91.1635 82.622 91.1635 81.3087C91.1635 79.9953 91.3032 78.8567 91.5827 77.8926C91.8621 76.9216 92.2463 76.1218 92.7353 75.493C93.2243 74.8573 93.8006 74.3858 94.4643 74.0784C95.1349 73.7711 95.8544 73.6174 96.6229 73.6174C97.3913 73.6174 98.1073 73.7711 98.771 74.0784C99.4416 74.3858 100.021 74.8573 100.51 75.493C101.006 76.1218 101.394 76.9216 101.674 77.8926C101.96 78.8567 102.103 79.9953 102.103 81.3087ZM99.9865 81.3087C99.9865 80.177 99.8922 79.2304 99.7036 78.469C99.5219 77.7075 99.274 77.0963 98.9596 76.6352C98.6522 76.1672 98.296 75.8353 97.8908 75.6397C97.4856 75.4441 97.063 75.3463 96.6229 75.3463C96.1828 75.3463 95.7601 75.4441 95.355 75.6397C94.9498 75.8353 94.59 76.1672 94.2757 76.6352C93.9683 77.0963 93.7238 77.7075 93.5422 78.469C93.3605 79.2304 93.2697 80.177 93.2697 81.3087C93.2697 82.4403 93.3605 83.3869 93.5422 84.1483C93.7238 84.9098 93.9683 85.521 94.2757 85.9821C94.59 86.4432 94.9498 86.7715 95.355 86.9671C95.7601 87.1627 96.1828 87.2605 96.6229 87.2605C97.063 87.2605 97.4856 87.1627 97.8908 86.9671C98.296 86.7715 98.6522 86.4432 98.9596 85.9821C99.274 85.521 99.5219 84.9098 99.7036 84.1483C99.8922 83.3869 99.9865 82.4403 99.9865 81.3087ZM113.254 86.8937C113.478 86.8937 113.652 86.9601 113.778 87.0928C113.904 87.2186 113.967 87.3862 113.967 87.5958V88.8323H103.865V88.1302C103.865 87.9905 103.893 87.8438 103.949 87.6901C104.005 87.5294 104.099 87.3862 104.232 87.2605L108.989 82.4927C109.387 82.0945 109.747 81.7103 110.069 81.3401C110.39 80.9698 110.662 80.6031 110.886 80.2398C111.109 79.8696 111.281 79.4924 111.399 79.1081C111.525 78.7239 111.588 78.3188 111.588 77.8926C111.588 77.4735 111.522 77.1067 111.389 76.7924C111.256 76.471 111.074 76.2056 110.844 75.996C110.613 75.7864 110.341 75.6293 110.027 75.5245C109.712 75.4197 109.373 75.3673 109.01 75.3673C108.647 75.3673 108.312 75.4197 108.004 75.5245C107.704 75.6293 107.435 75.776 107.197 75.9646C106.96 76.1532 106.761 76.3767 106.6 76.6352C106.439 76.8937 106.324 77.1731 106.254 77.4735C106.157 77.7389 106.031 77.9171 105.877 78.0079C105.73 78.0987 105.514 78.1197 105.227 78.0708L104.159 77.8822C104.256 77.1836 104.449 76.5688 104.735 76.0379C105.021 75.507 105.381 75.0634 105.814 74.7071C106.247 74.3439 106.743 74.0714 107.302 73.8898C107.868 73.7082 108.476 73.6174 109.125 73.6174C109.782 73.6174 110.386 73.7152 110.938 73.9108C111.497 74.0994 111.979 74.3753 112.384 74.7386C112.789 75.1018 113.107 75.5454 113.338 76.0694C113.568 76.5863 113.684 77.1731 113.684 77.8298C113.684 78.3886 113.6 78.9091 113.432 79.3911C113.271 79.8661 113.048 80.3202 112.762 80.7533C112.482 81.1864 112.154 81.609 111.777 82.0212C111.406 82.4264 111.012 82.8385 110.592 83.2577L106.778 87.1557C107.072 87.0789 107.365 87.016 107.658 86.9671C107.959 86.9182 108.242 86.8937 108.507 86.8937H113.254ZM125.62 86.8937C125.844 86.8937 126.019 86.9601 126.144 87.0928C126.27 87.2186 126.333 87.3862 126.333 87.5958V88.8323H116.232V88.1302C116.232 87.9905 116.26 87.8438 116.315 87.6901C116.371 87.5294 116.466 87.3862 116.598 87.2605L121.356 82.4927C121.754 82.0945 122.114 81.7103 122.435 81.3401C122.756 80.9698 123.029 80.6031 123.252 80.2398C123.476 79.8696 123.647 79.4924 123.766 79.1081C123.891 78.7239 123.954 78.3188 123.954 77.8926C123.954 77.4735 123.888 77.1067 123.755 76.7924C123.622 76.471 123.441 76.2056 123.21 75.996C122.98 75.7864 122.707 75.6293 122.393 75.5245C122.079 75.4197 121.74 75.3673 121.377 75.3673C121.013 75.3673 120.678 75.4197 120.371 75.5245C120.07 75.6293 119.801 75.776 119.564 75.9646C119.326 76.1532 119.127 76.3767 118.966 76.6352C118.806 76.8937 118.691 77.1731 118.621 77.4735C118.523 77.7389 118.397 77.9171 118.243 78.0079C118.097 78.0987 117.88 78.1197 117.594 78.0708L116.525 77.8822C116.623 77.1836 116.815 76.5688 117.101 76.0379C117.388 75.507 117.747 75.0634 118.181 74.7071C118.614 74.3439 119.11 74.0714 119.669 73.8898C120.234 73.7082 120.842 73.6174 121.492 73.6174C122.148 73.6174 122.753 73.7152 123.305 73.9108C123.863 74.0994 124.345 74.3753 124.751 74.7386C125.156 75.1018 125.474 75.5454 125.704 76.0694C125.935 76.5863 126.05 77.1731 126.05 77.8298C126.05 78.3886 125.966 78.9091 125.799 79.3911C125.638 79.8661 125.414 80.3202 125.128 80.7533C124.848 81.1864 124.52 81.609 124.143 82.0212C123.773 82.4264 123.378 82.8385 122.959 83.2577L119.145 87.1557C119.438 87.0789 119.731 87.016 120.025 86.9671C120.325 86.9182 120.608 86.8937 120.874 86.8937H125.62Z" fill="white"/>
<path d="M83.6284 113.371C83.6284 114.704 83.7996 115.902 84.1419 116.966C84.4842 118.017 84.9732 118.909 85.6089 119.643C86.2568 120.376 87.0453 120.939 87.9744 121.33C88.9158 121.709 89.9854 121.898 91.1835 121.898C92.3693 121.898 93.4268 121.709 94.3559 121.33C95.285 120.939 96.0674 120.376 96.7031 119.643C97.351 118.909 97.8461 118.017 98.1884 116.966C98.5307 115.902 98.7019 114.704 98.7019 113.371C98.7019 112.051 98.5307 110.865 98.1884 109.814C97.8461 108.75 97.351 107.852 96.7031 107.118C96.0674 106.385 95.285 105.823 94.3559 105.431C93.4268 105.04 92.3693 104.845 91.1835 104.845C89.9854 104.845 88.9158 105.04 87.9744 105.431C87.0453 105.823 86.2568 106.385 85.6089 107.118C84.9732 107.852 84.4842 108.75 84.1419 109.814C83.7996 110.865 83.6284 112.051 83.6284 113.371ZM106.55 131.746H101.453C100.719 131.746 100.059 131.648 99.472 131.452C98.8975 131.269 98.3596 130.92 97.8583 130.407L94.5393 126.684C93.5001 126.917 92.3815 127.033 91.1835 127.033C89.1052 127.033 87.2104 126.684 85.4989 125.988C83.7874 125.291 82.3204 124.331 81.0979 123.109C79.8876 121.874 78.9463 120.425 78.2739 118.763C77.6137 117.1 77.2836 115.303 77.2836 113.371C77.2836 111.44 77.6137 109.643 78.2739 107.98C78.9463 106.318 79.8876 104.875 81.0979 103.653C82.3204 102.43 83.7874 101.47 85.4989 100.774C87.2104 100.077 89.1052 99.7283 91.1835 99.7283C93.2617 99.7283 95.1505 100.083 96.8498 100.792C98.5613 101.489 100.022 102.448 101.232 103.671C102.443 104.893 103.378 106.336 104.038 107.999C104.71 109.661 105.047 111.452 105.047 113.371C105.047 114.521 104.924 115.627 104.68 116.691C104.448 117.742 104.105 118.732 103.653 119.661C103.213 120.59 102.663 121.452 102.003 122.247C101.355 123.041 100.615 123.744 99.7838 124.356L106.55 131.746ZM108.106 107.65C108.302 106.318 108.675 105.156 109.225 104.166C109.787 103.176 110.478 102.351 111.297 101.69C112.128 101.03 113.076 100.541 114.139 100.223C115.203 99.8934 116.346 99.7283 117.569 99.7283C118.889 99.7283 120.063 99.9178 121.089 100.297C122.116 100.664 122.984 101.165 123.693 101.8C124.402 102.436 124.94 103.176 125.307 104.019C125.674 104.851 125.857 105.731 125.857 106.66C125.857 107.503 125.772 108.249 125.6 108.897C125.429 109.533 125.173 110.089 124.83 110.566C124.5 111.03 124.085 111.428 123.583 111.758C123.094 112.076 122.532 112.345 121.896 112.565C124.855 113.604 126.334 115.621 126.334 118.616C126.334 120.034 126.077 121.269 125.564 122.32C125.05 123.372 124.36 124.246 123.492 124.942C122.636 125.639 121.64 126.165 120.503 126.519C119.366 126.862 118.18 127.033 116.945 127.033C115.674 127.033 114.543 126.898 113.553 126.629C112.562 126.348 111.682 125.92 110.912 125.346C110.142 124.759 109.463 124.013 108.877 123.109C108.302 122.204 107.801 121.128 107.373 119.881L109.904 118.854C110.564 118.598 111.175 118.53 111.737 118.653C112.3 118.775 112.703 119.056 112.948 119.496C113.498 120.511 114.078 121.25 114.69 121.715C115.313 122.167 116.04 122.394 116.872 122.394C117.507 122.394 118.058 122.29 118.522 122.082C118.999 121.862 119.39 121.587 119.696 121.257C120.014 120.914 120.252 120.529 120.411 120.101C120.57 119.673 120.649 119.239 120.649 118.799C120.649 118.225 120.607 117.711 120.521 117.259C120.448 116.794 120.228 116.397 119.861 116.067C119.494 115.737 118.938 115.486 118.192 115.315C117.459 115.132 116.432 115.04 115.111 115.04V111.116C116.224 111.116 117.122 111.03 117.807 110.859C118.492 110.688 119.017 110.456 119.384 110.162C119.763 109.857 120.014 109.49 120.136 109.062C120.258 108.634 120.319 108.164 120.319 107.65C120.319 106.599 120.063 105.792 119.549 105.23C119.048 104.655 118.278 104.368 117.239 104.368C116.395 104.368 115.68 104.594 115.093 105.046C114.518 105.486 114.121 106.036 113.901 106.697C113.644 107.369 113.308 107.815 112.893 108.035C112.477 108.255 111.884 108.304 111.114 108.182L108.106 107.65Z" fill="white"/>
<defs>
<filter id="filter0_f_230_97" x="0.987213" y="95.8318" width="202.013" height="104.006" filterUnits="userSpaceOnUse" color-interpolation-filters="sRGB">
<feFlood flood-opacity="0" result="BackgroundImageFix"/>
<feBlend mode="normal" in="SourceGraphic" in2="BackgroundImageFix" result="shape"/>
<feGaussianBlur stdDeviation="1.5" result="effect1_foregroundBlur_230_97"/>
</filter>
<linearGradient id="paint0_linear_230_97" x1="101.994" y1="98.6397" x2="101.994" y2="196.854" gradientUnits="userSpaceOnUse">
<stop stop-color="#3CD2F9" stop-opacity="0"/>
<stop offset="1" stop-color="#3CD2F9" stop-opacity="0.7"/>
</linearGradient>
</defs>
</svg>
