<svg width="202" height="200" viewBox="0 0 202 200" fill="none" xmlns="http://www.w3.org/2000/svg">
<g opacity="0.8" filter="url(#filter0_f_230_113)">
<path d="M198.352 98.865C198.352 152.768 154.736 196.384 100.833 196.384C46.9304 196.384 3.31453 152.768 3.31453 98.865H198.352Z" fill="url(#paint0_linear_230_113)"/>
</g>
<path d="M100.475 196.658C154.309 196.658 197.95 152.936 197.95 99.0024C197.95 45.0685 154.309 1.34644 100.475 1.34644C46.6411 1.34644 3 45.0685 3 99.0024C3 152.936 46.6411 196.658 100.475 196.658Z" stroke="#4AF3F8" stroke-width="1.74643" stroke-miterlimit="10"/>
<path opacity="0.5" d="M100.475 188.569C149.766 188.569 189.725 148.537 189.725 99.1544C189.725 49.7719 149.766 9.7395 100.475 9.7395C51.1841 9.7395 11.2258 49.7719 11.2258 99.1544C11.2258 148.537 51.1841 188.569 100.475 188.569Z" fill="#131D1A"/>
<path d="M87.4344 86.736C87.658 86.736 87.8326 86.8024 87.9584 86.9351C88.0841 87.0609 88.147 87.2285 88.147 87.4381V88.6746H78.0456V87.9725C78.0456 87.8328 78.0736 87.6861 78.1295 87.5324C78.1853 87.3717 78.2796 87.2285 78.4124 87.1028L83.1697 82.335C83.5678 81.9368 83.9276 81.5526 84.2489 81.1824C84.5703 80.8121 84.8427 80.4454 85.0663 80.0821C85.2898 79.7119 85.461 79.3346 85.5797 78.9504C85.7055 78.5662 85.7683 78.161 85.7683 77.7349C85.7683 77.3158 85.702 76.949 85.5692 76.6347C85.4365 76.3133 85.2549 76.0479 85.0244 75.8383C84.7938 75.6287 84.5214 75.4715 84.207 75.3668C83.8927 75.262 83.5539 75.2096 83.1906 75.2096C82.8274 75.2096 82.492 75.262 82.1847 75.3668C81.8843 75.4715 81.6153 75.6182 81.3778 75.8069C81.1403 75.9955 80.9412 76.219 80.7805 76.4775C80.6199 76.736 80.5046 77.0154 80.4347 77.3158C80.3369 77.5812 80.2112 77.7594 80.0575 77.8502C79.9108 77.941 79.6943 77.962 79.4078 77.9131L78.339 77.7244C78.4368 77.0259 78.6289 76.4111 78.9153 75.8802C79.2018 75.3493 79.5615 74.9057 79.9946 74.5494C80.4278 74.1862 80.9237 73.9137 81.4826 73.7321C82.0484 73.5505 82.6562 73.4597 83.3059 73.4597C83.9625 73.4597 84.5668 73.5575 85.1187 73.7531C85.6775 73.9417 86.1595 74.2176 86.5647 74.5809C86.9699 74.9441 87.2877 75.3877 87.5183 75.9116C87.7488 76.4286 87.8641 77.0154 87.8641 77.672C87.8641 78.2309 87.7802 78.7513 87.6126 79.2334C87.4519 79.7084 87.2284 80.1625 86.9419 80.5956C86.6625 81.0287 86.3342 81.4513 85.957 81.8635C85.5867 82.2687 85.192 82.6808 84.7729 83.1L80.9587 86.998C81.2521 86.9211 81.5455 86.8583 81.8389 86.8094C82.1393 86.7605 82.4222 86.736 82.6876 86.736H87.4344ZM101.016 81.1509C101.016 82.4643 100.873 83.6029 100.587 84.567C100.307 85.531 99.9196 86.3309 99.4236 86.9666C98.9346 87.5953 98.3548 88.0633 97.6841 88.3707C97.0205 88.6781 96.3044 88.8317 95.536 88.8317C94.7676 88.8317 94.0481 88.6781 93.3774 88.3707C92.7138 88.0633 92.1375 87.5953 91.6485 86.9666C91.1595 86.3309 90.7752 85.531 90.4958 84.567C90.2164 83.6029 90.0767 82.4643 90.0767 81.1509C90.0767 79.8376 90.2164 78.6989 90.4958 77.7349C90.7752 76.7639 91.1595 75.964 91.6485 75.3353C92.1375 74.6996 92.7138 74.2281 93.3774 73.9207C94.0481 73.6133 94.7676 73.4597 95.536 73.4597C96.3044 73.4597 97.0205 73.6133 97.6841 73.9207C98.3548 74.2281 98.9346 74.6996 99.4236 75.3353C99.9196 75.964 100.307 76.7639 100.587 77.7349C100.873 78.6989 101.016 79.8376 101.016 81.1509ZM98.8996 81.1509C98.8996 80.0192 98.8053 79.0727 98.6167 78.3112C98.4351 77.5498 98.1871 76.9385 97.8727 76.4775C97.5654 76.0094 97.2091 75.6776 96.8039 75.482C96.3988 75.2864 95.9761 75.1886 95.536 75.1886C95.0959 75.1886 94.6733 75.2864 94.2681 75.482C93.8629 75.6776 93.5032 76.0094 93.1888 76.4775C92.8814 76.9385 92.6369 77.5498 92.4553 78.3112C92.2737 79.0727 92.1829 80.0192 92.1829 81.1509C92.1829 82.2826 92.2737 83.2292 92.4553 83.9906C92.6369 84.7521 92.8814 85.3633 93.1888 85.8244C93.5032 86.2854 93.8629 86.6138 94.2681 86.8094C94.6733 87.005 95.0959 87.1028 95.536 87.1028C95.9761 87.1028 96.3988 87.005 96.8039 86.8094C97.2091 86.6138 97.5654 86.2854 97.8727 85.8244C98.1871 85.3633 98.4351 84.7521 98.6167 83.9906C98.8053 83.2292 98.8996 82.2826 98.8996 81.1509ZM112.167 86.736C112.391 86.736 112.565 86.8024 112.691 86.9351C112.817 87.0609 112.88 87.2285 112.88 87.4381V88.6746H102.778V87.9725C102.778 87.8328 102.806 87.6861 102.862 87.5324C102.918 87.3717 103.012 87.2285 103.145 87.1028L107.902 82.335C108.301 81.9368 108.66 81.5526 108.982 81.1824C109.303 80.8121 109.575 80.4454 109.799 80.0821C110.023 79.7119 110.194 79.3346 110.312 78.9504C110.438 78.5662 110.501 78.161 110.501 77.7349C110.501 77.3158 110.435 76.949 110.302 76.6347C110.169 76.3133 109.988 76.0479 109.757 75.8383C109.527 75.6287 109.254 75.4715 108.94 75.3668C108.625 75.262 108.287 75.2096 107.923 75.2096C107.56 75.2096 107.225 75.262 106.917 75.3668C106.617 75.4715 106.348 75.6182 106.111 75.8069C105.873 75.9955 105.674 76.219 105.513 76.4775C105.353 76.736 105.237 77.0154 105.167 77.3158C105.07 77.5812 104.944 77.7594 104.79 77.8502C104.644 77.941 104.427 77.962 104.141 77.9131L103.072 77.7244C103.17 77.0259 103.362 76.4111 103.648 75.8802C103.934 75.3493 104.294 74.9057 104.727 74.5494C105.16 74.1862 105.656 73.9137 106.215 73.7321C106.781 73.5505 107.389 73.4597 108.039 73.4597C108.695 73.4597 109.3 73.5575 109.851 73.7531C110.41 73.9417 110.892 74.2176 111.297 74.5809C111.703 74.9441 112.02 75.3877 112.251 75.9116C112.482 76.4286 112.597 77.0154 112.597 77.672C112.597 78.2309 112.513 78.7513 112.345 79.2334C112.185 79.7084 111.961 80.1625 111.675 80.5956C111.395 81.0287 111.067 81.4513 110.69 81.8635C110.319 82.2687 109.925 82.6808 109.506 83.1L105.691 86.998C105.985 86.9211 106.278 86.8583 106.572 86.8094C106.872 86.7605 107.155 86.736 107.42 86.736H112.167ZM124.534 86.736C124.757 86.736 124.932 86.8024 125.057 86.9351C125.183 87.0609 125.246 87.2285 125.246 87.4381V88.6746H115.145V87.9725C115.145 87.8328 115.173 87.6861 115.229 87.5324C115.284 87.3717 115.379 87.2285 115.511 87.1028L120.269 82.335C120.667 81.9368 121.027 81.5526 121.348 81.1824C121.669 80.8121 121.942 80.4454 122.165 80.0821C122.389 79.7119 122.56 79.3346 122.679 78.9504C122.805 78.5662 122.867 78.161 122.867 77.7349C122.867 77.3158 122.801 76.949 122.668 76.6347C122.536 76.3133 122.354 76.0479 122.123 75.8383C121.893 75.6287 121.62 75.4715 121.306 75.3668C120.992 75.262 120.653 75.2096 120.29 75.2096C119.926 75.2096 119.591 75.262 119.284 75.3668C118.983 75.4715 118.714 75.6182 118.477 75.8069C118.239 75.9955 118.04 76.219 117.88 76.4775C117.719 76.736 117.604 77.0154 117.534 77.3158C117.436 77.5812 117.31 77.7594 117.157 77.8502C117.01 77.941 116.793 77.962 116.507 77.9131L115.438 77.7244C115.536 77.0259 115.728 76.4111 116.014 75.8802C116.301 75.3493 116.661 74.9057 117.094 74.5494C117.527 74.1862 118.023 73.9137 118.582 73.7321C119.148 73.5505 119.755 73.4597 120.405 73.4597C121.062 73.4597 121.666 73.5575 122.218 73.7531C122.777 73.9417 123.259 74.2176 123.664 74.5809C124.069 74.9441 124.387 75.3877 124.617 75.9116C124.848 76.4286 124.963 77.0154 124.963 77.672C124.963 78.2309 124.879 78.7513 124.712 79.2334C124.551 79.7084 124.327 80.1625 124.041 80.5956C123.762 81.0287 123.433 81.4513 123.056 81.8635C122.686 82.2687 122.291 82.6808 121.872 83.1L118.058 86.998C118.351 86.9211 118.645 86.8583 118.938 86.8094C119.238 86.7605 119.521 86.736 119.787 86.736H124.534Z" fill="white"/>
<path d="M82.0216 112.962C82.0216 114.295 82.1928 115.493 82.5351 116.556C82.8774 117.608 83.3664 118.5 84.0021 119.234C84.65 119.967 85.4385 120.53 86.3676 120.921C87.3089 121.3 88.3786 121.489 89.5767 121.489C90.7625 121.489 91.82 121.3 92.7491 120.921C93.6782 120.53 94.4606 119.967 95.0963 119.234C95.7442 118.5 96.2393 117.608 96.5816 116.556C96.9239 115.493 97.0951 114.295 97.0951 112.962C97.0951 111.642 96.9239 110.456 96.5816 109.405C96.2393 108.341 95.7442 107.443 95.0963 106.709C94.4606 105.976 93.6782 105.413 92.7491 105.022C91.82 104.631 90.7625 104.435 89.5767 104.435C88.3786 104.435 87.3089 104.631 86.3676 105.022C85.4385 105.413 84.65 105.976 84.0021 106.709C83.3664 107.443 82.8774 108.341 82.5351 109.405C82.1928 110.456 82.0216 111.642 82.0216 112.962ZM104.944 131.336H99.8457C99.1122 131.336 98.452 131.239 97.8652 131.043C97.2907 130.86 96.7528 130.511 96.2515 129.998L92.9325 126.275C91.8933 126.508 90.7747 126.624 89.5767 126.624C87.4984 126.624 85.6036 126.275 83.8921 125.578C82.1806 124.882 80.7135 123.922 79.491 122.699C78.2808 121.465 77.3394 120.016 76.6671 118.354C76.0069 116.691 75.6768 114.894 75.6768 112.962C75.6768 111.031 76.0069 109.234 76.6671 107.571C77.3394 105.908 78.2808 104.466 79.491 103.243C80.7135 102.021 82.1806 101.061 83.8921 100.364C85.6036 99.6676 87.4984 99.3192 89.5767 99.3192C91.6549 99.3192 93.5437 99.6737 95.243 100.383C96.9545 101.08 98.4154 102.039 99.6256 103.262C100.836 104.484 101.771 105.927 102.431 107.589C103.104 109.252 103.44 111.043 103.44 112.962C103.44 114.111 103.318 115.218 103.073 116.281C102.841 117.333 102.499 118.323 102.046 119.252C101.606 120.181 101.056 121.043 100.396 121.838C99.7479 122.632 99.0083 123.335 98.177 123.946L104.944 131.336ZM117.631 115.951V108.983C117.631 108.555 117.643 108.097 117.667 107.608C117.704 107.106 117.753 106.587 117.814 106.049L110.754 115.951H117.631ZM125.332 115.951V119.142C125.332 119.423 125.234 119.668 125.039 119.876C124.855 120.083 124.587 120.187 124.232 120.187H122.582V126.33H117.631V120.187H106.885C106.53 120.187 106.206 120.077 105.913 119.857C105.632 119.637 105.454 119.362 105.381 119.032L104.794 116.226L117.154 99.6126H122.582V115.951H125.332Z" fill="white"/>
<defs>
<filter id="filter0_f_230_113" x="0.314529" y="95.865" width="201.037" height="103.519" filterUnits="userSpaceOnUse" color-interpolation-filters="sRGB">
<feFlood flood-opacity="0" result="BackgroundImageFix"/>
<feBlend mode="normal" in="SourceGraphic" in2="BackgroundImageFix" result="shape"/>
<feGaussianBlur stdDeviation="1.5" result="effect1_foregroundBlur_230_113"/>
</filter>
<linearGradient id="paint0_linear_230_113" x1="100.833" y1="98.6739" x2="100.833" y2="196.399" gradientUnits="userSpaceOnUse">
<stop stop-color="#3CD2F9" stop-opacity="0"/>
<stop offset="1" stop-color="#3CD2F9" stop-opacity="0.7"/>
</linearGradient>
</defs>
</svg>
