<svg width="202" height="200" viewBox="0 0 202 200" fill="none" xmlns="http://www.w3.org/2000/svg">
<g opacity="0.8" filter="url(#filter0_f_230_105)">
<path d="M198.611 98.8101C198.611 152.871 154.867 196.615 100.805 196.615C46.7441 196.615 3 152.871 3 98.8101H198.611Z" fill="url(#paint0_linear_230_105)"/>
</g>
<path d="M101.238 196.891C155.23 196.891 199 153.04 199 98.9478C199 44.8553 155.23 1.00464 101.238 1.00464C47.2456 1.00464 3.47614 44.8553 3.47614 98.9478C3.47614 153.04 47.2456 196.891 101.238 196.891Z" stroke="#4AF3F8" stroke-width="1.74643" stroke-miterlimit="10"/>
<path opacity="0.5" d="M101.238 187.903C150.674 187.903 190.75 147.753 190.75 98.2248C190.75 48.6971 150.674 8.54688 101.238 8.54688C51.802 8.54688 11.7261 48.6971 11.7261 98.2248C11.7261 147.753 51.802 187.903 101.238 187.903Z" fill="#131D1A"/>
<path d="M85.3319 86.0383C85.5554 86.0383 85.7301 86.1046 85.8558 86.2374C85.9816 86.3631 86.0444 86.5308 86.0444 86.7403V87.9768H75.9431V87.2747C75.9431 87.135 75.971 86.9883 76.0269 86.8346C76.0828 86.674 76.1771 86.5308 76.3098 86.405L81.0671 81.6373C81.4653 81.2391 81.8251 80.8549 82.1464 80.4846C82.4677 80.1144 82.7402 79.7476 82.9637 79.3844C83.1873 79.0141 83.3584 78.6369 83.4772 78.2527C83.6029 77.8685 83.6658 77.4633 83.6658 77.0372C83.6658 76.618 83.5994 76.2513 83.4667 75.9369C83.334 75.6156 83.1523 75.3501 82.9218 75.1405C82.6913 74.931 82.4188 74.7738 82.1045 74.669C81.7901 74.5642 81.4513 74.5118 81.0881 74.5118C80.7248 74.5118 80.3895 74.5642 80.0821 74.669C79.7817 74.7738 79.5128 74.9205 79.2753 75.1091C79.0377 75.2977 78.8387 75.5213 78.678 75.7797C78.5173 76.0382 78.402 76.3176 78.3322 76.618C78.2344 76.8835 78.1086 77.0616 77.955 77.1524C77.8083 77.2432 77.5917 77.2642 77.3053 77.2153L76.2365 77.0267C76.3343 76.3281 76.5264 75.7134 76.8128 75.1825C77.0992 74.6515 77.459 74.2079 77.8921 73.8517C78.3252 73.4884 78.8212 73.216 79.38 73.0343C79.9459 72.8527 80.5536 72.7619 81.2033 72.7619C81.86 72.7619 82.4642 72.8597 83.0161 73.0553C83.575 73.2439 84.057 73.5199 84.4622 73.8831C84.8673 74.2464 85.1852 74.69 85.4157 75.2139C85.6462 75.7308 85.7615 76.3176 85.7615 76.9743C85.7615 77.5332 85.6777 78.0536 85.51 78.5356C85.3493 79.0106 85.1258 79.4647 84.8394 79.8978C84.56 80.3309 84.2316 80.7536 83.8544 81.1657C83.4842 81.5709 83.0895 81.9831 82.6703 82.4022L78.8561 86.3002C79.1495 86.2234 79.4429 86.1605 79.7363 86.1116C80.0367 86.0627 80.3196 86.0383 80.5851 86.0383H85.3319ZM98.9138 80.4532C98.9138 81.7665 98.7706 82.9052 98.4841 83.8692C98.2047 84.8332 97.817 85.6331 97.321 86.2688C96.832 86.8975 96.2522 87.3656 95.5816 87.6729C94.9179 87.9803 94.2019 88.134 93.4335 88.134C92.665 88.134 91.9455 87.9803 91.2749 87.6729C90.6112 87.3656 90.0349 86.8975 89.5459 86.2688C89.0569 85.6331 88.6727 84.8332 88.3933 83.8692C88.1138 82.9052 87.9741 81.7665 87.9741 80.4532C87.9741 79.1399 88.1138 78.0012 88.3933 77.0372C88.6727 76.0661 89.0569 75.2663 89.5459 74.6376C90.0349 74.0019 90.6112 73.5303 91.2749 73.223C91.9455 72.9156 92.665 72.7619 93.4335 72.7619C94.2019 72.7619 94.9179 72.9156 95.5816 73.223C96.2522 73.5303 96.832 74.0019 97.321 74.6376C97.817 75.2663 98.2047 76.0661 98.4841 77.0372C98.7706 78.0012 98.9138 79.1399 98.9138 80.4532ZM96.7971 80.4532C96.7971 79.3215 96.7028 78.3749 96.5142 77.6135C96.3325 76.852 96.0846 76.2408 95.7702 75.7797C95.4628 75.3117 95.1065 74.9799 94.7014 74.7843C94.2962 74.5887 93.8736 74.4909 93.4335 74.4909C92.9934 74.4909 92.5707 74.5887 92.1656 74.7843C91.7604 74.9799 91.4006 75.3117 91.0863 75.7797C90.7789 76.2408 90.5344 76.852 90.3528 77.6135C90.1711 78.3749 90.0803 79.3215 90.0803 80.4532C90.0803 81.5849 90.1711 82.5314 90.3528 83.2929C90.5344 84.0543 90.7789 84.6656 91.0863 85.1266C91.4006 85.5877 91.7604 85.916 92.1656 86.1116C92.5707 86.3072 92.9934 86.405 93.4335 86.405C93.8736 86.405 94.2962 86.3072 94.7014 86.1116C95.1065 85.916 95.4628 85.5877 95.7702 85.1266C96.0846 84.6656 96.3325 84.0543 96.5142 83.2929C96.7028 82.5314 96.7971 81.5849 96.7971 80.4532ZM110.065 86.0383C110.288 86.0383 110.463 86.1046 110.589 86.2374C110.714 86.3631 110.777 86.5308 110.777 86.7403V87.9768H100.676V87.2747C100.676 87.135 100.704 86.9883 100.76 86.8346C100.816 86.674 100.91 86.5308 101.043 86.405L105.8 81.6373C106.198 81.2391 106.558 80.8549 106.879 80.4846C107.2 80.1144 107.473 79.7476 107.696 79.3844C107.92 79.0141 108.091 78.6369 108.21 78.2527C108.336 77.8685 108.399 77.4633 108.399 77.0372C108.399 76.618 108.332 76.2513 108.199 75.9369C108.067 75.6156 107.885 75.3501 107.655 75.1405C107.424 74.931 107.152 74.7738 106.837 74.669C106.523 74.5642 106.184 74.5118 105.821 74.5118C105.458 74.5118 105.122 74.5642 104.815 74.669C104.514 74.7738 104.246 74.9205 104.008 75.1091C103.77 75.2977 103.571 75.5213 103.411 75.7797C103.25 76.0382 103.135 76.3176 103.065 76.618C102.967 76.8835 102.841 77.0616 102.688 77.1524C102.541 77.2432 102.324 77.2642 102.038 77.2153L100.969 77.0267C101.067 76.3281 101.259 75.7134 101.546 75.1825C101.832 74.6515 102.192 74.2079 102.625 73.8517C103.058 73.4884 103.554 73.216 104.113 73.0343C104.679 72.8527 105.286 72.7619 105.936 72.7619C106.593 72.7619 107.197 72.8597 107.749 73.0553C108.308 73.2439 108.79 73.5199 109.195 73.8831C109.6 74.2464 109.918 74.69 110.148 75.2139C110.379 75.7308 110.494 76.3176 110.494 76.9743C110.494 77.5332 110.41 78.0536 110.243 78.5356C110.082 79.0106 109.859 79.4647 109.572 79.8978C109.293 80.3309 108.964 80.7536 108.587 81.1657C108.217 81.5709 107.822 81.9831 107.403 82.4022L103.589 86.3002C103.882 86.2234 104.176 86.1605 104.469 86.1116C104.769 86.0627 105.052 86.0383 105.318 86.0383H110.065ZM113.398 77.0267C113.503 76.3281 113.699 75.7134 113.985 75.1825C114.272 74.6515 114.631 74.2079 115.065 73.8517C115.498 73.4884 115.994 73.216 116.553 73.0343C117.118 72.8527 117.726 72.7619 118.376 72.7619C119.025 72.7619 119.623 72.8562 120.168 73.0448C120.712 73.2265 121.177 73.4884 121.561 73.8307C121.952 74.166 122.256 74.5712 122.473 75.0462C122.689 75.5213 122.798 76.0452 122.798 76.618C122.798 77.1 122.738 77.5262 122.62 77.8964C122.501 78.2667 122.33 78.5915 122.106 78.8709C121.89 79.1503 121.624 79.3879 121.31 79.5835C120.995 79.7721 120.643 79.9293 120.251 80.055C121.208 80.3205 121.928 80.7536 122.41 81.3543C122.892 81.9481 123.133 82.7026 123.133 83.6177C123.133 84.3233 123 84.959 122.735 85.5248C122.469 86.0837 122.106 86.5587 121.645 86.9499C121.184 87.3341 120.646 87.631 120.031 87.8406C119.424 88.0432 118.774 88.1445 118.082 88.1445C117.293 88.1445 116.615 88.0502 116.05 87.8615C115.484 87.6659 115.002 87.397 114.603 87.0547C114.205 86.7054 113.873 86.2898 113.608 85.8077C113.35 85.3187 113.129 84.7843 112.948 84.2045L113.839 83.8273C114.069 83.7295 114.293 83.7015 114.509 83.7435C114.726 83.7854 114.883 83.9076 114.981 84.1102C115.085 84.3198 115.204 84.5573 115.337 84.8228C115.477 85.0812 115.662 85.3292 115.892 85.5667C116.123 85.7973 116.409 85.9929 116.752 86.1535C117.101 86.3142 117.537 86.3945 118.061 86.3945C118.564 86.3945 119.004 86.3142 119.382 86.1535C119.759 85.9859 120.073 85.7728 120.325 85.5143C120.576 85.2489 120.765 84.9555 120.891 84.6341C121.016 84.3128 121.079 83.9949 121.079 83.6806C121.079 83.2894 121.03 82.9296 120.933 82.6013C120.835 82.273 120.646 81.9935 120.367 81.763C120.094 81.5255 119.714 81.3404 119.225 81.2076C118.736 81.0749 118.1 81.0085 117.317 81.0085V79.5206C117.96 79.5136 118.502 79.4472 118.942 79.3215C119.389 79.1958 119.748 79.0211 120.021 78.7976C120.293 78.574 120.489 78.3086 120.608 78.0012C120.733 77.6938 120.796 77.3515 120.796 76.9743C120.796 76.5621 120.733 76.2024 120.608 75.895C120.482 75.5876 120.304 75.3326 120.073 75.1301C119.85 74.9205 119.581 74.7668 119.266 74.669C118.959 74.5642 118.624 74.5118 118.261 74.5118C117.897 74.5118 117.562 74.5642 117.255 74.669C116.947 74.7738 116.675 74.9205 116.437 75.1091C116.2 75.2977 116.001 75.5213 115.84 75.7797C115.679 76.0382 115.564 76.3176 115.494 76.618C115.396 76.8835 115.271 77.0616 115.117 77.1524C114.97 77.2432 114.757 77.2642 114.478 77.2153L113.398 77.0267Z" fill="white"/>
<path d="M81.6348 112.331C81.6348 113.664 81.806 114.862 82.1483 115.925C82.4906 116.977 82.9796 117.869 83.6153 118.603C84.2632 119.336 85.0517 119.898 85.9808 120.29C86.9221 120.669 87.9918 120.858 89.1899 120.858C90.3757 120.858 91.4332 120.669 92.3623 120.29C93.2914 119.898 94.0738 119.336 94.7095 118.603C95.3574 117.869 95.8525 116.977 96.1948 115.925C96.5371 114.862 96.7083 113.664 96.7083 112.331C96.7083 111.011 96.5371 109.825 96.1948 108.774C95.8525 107.71 95.3574 106.812 94.7095 106.078C94.0738 105.345 93.2914 104.782 92.3623 104.391C91.4332 104 90.3757 103.804 89.1899 103.804C87.9918 103.804 86.9221 104 85.9808 104.391C85.0517 104.782 84.2632 105.345 83.6153 106.078C82.9796 106.812 82.4906 107.71 82.1483 108.774C81.806 109.825 81.6348 111.011 81.6348 112.331ZM104.557 130.705H99.4589C98.7254 130.705 98.0652 130.608 97.4784 130.412C96.9039 130.229 96.366 129.88 95.8647 129.367L92.5457 125.644C91.5065 125.876 90.3879 125.993 89.1899 125.993C87.1116 125.993 85.2168 125.644 83.5053 124.947C81.7938 124.251 80.3268 123.291 79.1043 122.068C77.894 120.834 76.9526 119.385 76.2803 117.722C75.6201 116.06 75.29 114.263 75.29 112.331C75.29 110.4 75.6201 108.603 76.2803 106.94C76.9526 105.277 77.894 103.835 79.1043 102.612C80.3268 101.39 81.7938 100.43 83.5053 99.7333C85.2168 99.0365 87.1116 98.688 89.1899 98.688C91.2681 98.688 93.1569 99.0426 94.8562 99.7516C96.5677 100.448 98.0286 101.408 99.2389 102.631C100.449 103.853 101.384 105.296 102.044 106.958C102.717 108.621 103.053 110.412 103.053 112.331C103.053 113.48 102.931 114.587 102.686 115.65C102.454 116.702 102.112 117.692 101.659 118.621C101.219 119.55 100.669 120.412 100.009 121.207C99.3611 122.001 98.6215 122.704 97.7902 123.315L104.557 130.705ZM123.772 121.592V125.699H108.552V121.592H113.686V108.114C113.686 107.771 113.692 107.429 113.705 107.087C113.717 106.732 113.735 106.378 113.76 106.023L110.716 108.554C110.447 108.761 110.178 108.89 109.909 108.939C109.652 108.975 109.407 108.975 109.175 108.939C108.943 108.89 108.735 108.81 108.552 108.7C108.368 108.578 108.234 108.456 108.148 108.334L106.351 105.95L114.676 98.9631H119.371V121.592H123.772Z" fill="white"/>
<defs>
<filter id="filter0_f_230_105" x="0" y="95.8101" width="201.611" height="103.805" filterUnits="userSpaceOnUse" color-interpolation-filters="sRGB">
<feFlood flood-opacity="0" result="BackgroundImageFix"/>
<feBlend mode="normal" in="SourceGraphic" in2="BackgroundImageFix" result="shape"/>
<feGaussianBlur stdDeviation="1.5" result="effect1_foregroundBlur_230_105"/>
</filter>
<linearGradient id="paint0_linear_230_105" x1="100.805" y1="98.6184" x2="100.805" y2="196.631" gradientUnits="userSpaceOnUse">
<stop stop-color="#3CD2F9" stop-opacity="0"/>
<stop offset="1" stop-color="#3CD2F9" stop-opacity="0.7"/>
</linearGradient>
</defs>
</svg>
