<svg width="200" height="198" viewBox="0 0 200 198" fill="none" xmlns="http://www.w3.org/2000/svg">
<g opacity="0.8" filter="url(#filter0_f_230_121)">
<path d="M197 97.9641C197 151.58 153.616 194.964 100 194.964C46.3839 194.964 3 151.58 3 97.9641H197Z" fill="url(#paint0_linear_230_121)"/>
</g>
<path d="M99.957 195.238C153.505 195.238 196.914 151.748 196.914 98.1008C196.914 44.4537 153.505 0.964111 99.957 0.964111C46.4091 0.964111 3 44.4537 3 98.1008C3 151.748 46.4091 195.238 99.957 195.238Z" stroke="#4AF3F8" stroke-width="1.74643" stroke-miterlimit="10"/>
<path opacity="0.5" d="M99.775 187.192C148.804 187.192 188.55 147.372 188.55 98.2523C188.55 49.1323 148.804 9.31274 99.775 9.31274C50.7459 9.31274 11 49.1323 11 98.2523C11 147.372 50.7459 187.192 99.775 187.192Z" fill="#131D1A"/>
<path d="M85.7039 86.0012C85.9275 86.0012 86.1021 86.0675 86.2279 86.2003C86.3536 86.326 86.4165 86.4937 86.4165 86.7032V87.9397H76.3151V87.2376C76.3151 87.0979 76.3431 86.9512 76.399 86.7975C76.4548 86.6369 76.5491 86.4937 76.6819 86.3679L81.4392 81.6002C81.8373 81.202 82.1971 80.8178 82.5184 80.4475C82.8398 80.0773 83.1122 79.7105 83.3358 79.3473C83.5593 78.977 83.7305 78.5998 83.8492 78.2156C83.975 77.8314 84.0378 77.4262 84.0378 77.0001C84.0378 76.5809 83.9715 76.2142 83.8387 75.8998C83.706 75.5785 83.5244 75.313 83.2939 75.1034C83.0633 74.8939 82.7909 74.7367 82.4765 74.6319C82.1622 74.5271 81.8234 74.4747 81.4601 74.4747C81.0969 74.4747 80.7615 74.5271 80.4542 74.6319C80.1538 74.7367 79.8848 74.8834 79.6473 75.072C79.4098 75.2606 79.2107 75.4842 79.05 75.7426C78.8894 76.0011 78.7741 76.2805 78.7042 76.5809C78.6064 76.8464 78.4807 77.0245 78.327 77.1153C78.1803 77.2061 77.9638 77.2271 77.6773 77.1782L76.6085 76.9896C76.7063 76.291 76.8984 75.6763 77.1848 75.1453C77.4713 74.6144 77.831 74.1708 78.2641 73.8146C78.6973 73.4513 79.1932 73.1789 79.7521 72.9972C80.3179 72.8156 80.9257 72.7248 81.5754 72.7248C82.232 72.7248 82.8363 72.8226 83.3882 73.0182C83.947 73.2068 84.429 73.4827 84.8342 73.846C85.2394 74.2093 85.5572 74.6529 85.7878 75.1768C86.0183 75.6937 86.1336 76.2805 86.1336 76.9372C86.1336 77.496 86.0497 78.0165 85.8821 78.4985C85.7214 78.9735 85.4979 79.4276 85.2114 79.8607C84.932 80.2938 84.6037 80.7165 84.2265 81.1286C83.8562 81.5338 83.4615 81.9459 83.0424 82.3651L79.2282 86.2631C79.5216 86.1863 79.815 86.1234 80.1084 86.0745C80.4088 86.0256 80.6917 86.0012 80.9571 86.0012H85.7039ZM99.2858 80.4161C99.2858 81.7294 99.1426 82.8681 98.8562 83.8321C98.5768 84.7961 98.1891 85.596 97.6931 86.2317C97.2041 86.8604 96.6243 87.3284 95.9536 87.6358C95.29 87.9432 94.5739 88.0969 93.8055 88.0969C93.0371 88.0969 92.3176 87.9432 91.6469 87.6358C90.9833 87.3284 90.407 86.8604 89.918 86.2317C89.429 85.596 89.0447 84.7961 88.7653 83.8321C88.4859 82.8681 88.3462 81.7294 88.3462 80.4161C88.3462 79.1028 88.4859 77.9641 88.7653 77.0001C89.0447 76.029 89.429 75.2292 89.918 74.6005C90.407 73.9648 90.9833 73.4932 91.6469 73.1858C92.3176 72.8785 93.0371 72.7248 93.8055 72.7248C94.5739 72.7248 95.29 72.8785 95.9536 73.1858C96.6243 73.4932 97.2041 73.9648 97.6931 74.6005C98.1891 75.2292 98.5768 76.029 98.8562 77.0001C99.1426 77.9641 99.2858 79.1028 99.2858 80.4161ZM97.1691 80.4161C97.1691 79.2844 97.0748 78.3378 96.8862 77.5764C96.7046 76.8149 96.4566 76.2037 96.1422 75.7426C95.8349 75.2746 95.4786 74.9428 95.0734 74.7472C94.6683 74.5516 94.2456 74.4538 93.8055 74.4538C93.3654 74.4538 92.9428 74.5516 92.5376 74.7472C92.1324 74.9428 91.7727 75.2746 91.4583 75.7426C91.1509 76.2037 90.9064 76.8149 90.7248 77.5764C90.5432 78.3378 90.4524 79.2844 90.4524 80.4161C90.4524 81.5478 90.5432 82.4943 90.7248 83.2558C90.9064 84.0172 91.1509 84.6285 91.4583 85.0895C91.7727 85.5506 92.1324 85.8789 92.5376 86.0745C92.9428 86.2701 93.3654 86.3679 93.8055 86.3679C94.2456 86.3679 94.6683 86.2701 95.0734 86.0745C95.4786 85.8789 95.8349 85.5506 96.1422 85.0895C96.4566 84.6285 96.7046 84.0172 96.8862 83.2558C97.0748 82.4943 97.1691 81.5478 97.1691 80.4161ZM110.437 86.0012C110.66 86.0012 110.835 86.0675 110.961 86.2003C111.086 86.326 111.149 86.4937 111.149 86.7032V87.9397H101.048V87.2376C101.048 87.0979 101.076 86.9512 101.132 86.7975C101.188 86.6369 101.282 86.4937 101.415 86.3679L106.172 81.6002C106.57 81.202 106.93 80.8178 107.251 80.4475C107.573 80.0773 107.845 79.7105 108.069 79.3473C108.292 78.977 108.463 78.5998 108.582 78.2156C108.708 77.8314 108.771 77.4262 108.771 77.0001C108.771 76.5809 108.704 76.2142 108.571 75.8998C108.439 75.5785 108.257 75.313 108.027 75.1034C107.796 74.8939 107.524 74.7367 107.209 74.6319C106.895 74.5271 106.556 74.4747 106.193 74.4747C105.83 74.4747 105.494 74.5271 105.187 74.6319C104.887 74.7367 104.618 74.8834 104.38 75.072C104.143 75.2606 103.943 75.4842 103.783 75.7426C103.622 76.0011 103.507 76.2805 103.437 76.5809C103.339 76.8464 103.213 77.0245 103.06 77.1153C102.913 77.2061 102.696 77.2271 102.41 77.1782L101.341 76.9896C101.439 76.291 101.631 75.6763 101.918 75.1453C102.204 74.6144 102.564 74.1708 102.997 73.8146C103.43 73.4513 103.926 73.1789 104.485 72.9972C105.051 72.8156 105.658 72.7248 106.308 72.7248C106.965 72.7248 107.569 72.8226 108.121 73.0182C108.68 73.2068 109.162 73.4827 109.567 73.846C109.972 74.2093 110.29 74.6529 110.52 75.1768C110.751 75.6937 110.866 76.2805 110.866 76.9372C110.866 77.496 110.782 78.0165 110.615 78.4985C110.454 78.9735 110.231 79.4276 109.944 79.8607C109.665 80.2938 109.336 80.7165 108.959 81.1286C108.589 81.5338 108.194 81.9459 107.775 82.3651L103.961 86.2631C104.254 86.1863 104.548 86.1234 104.841 86.0745C105.141 86.0256 105.424 86.0012 105.69 86.0012H110.437ZM113.77 76.9896C113.875 76.291 114.071 75.6763 114.357 75.1453C114.644 74.6144 115.003 74.1708 115.437 73.8146C115.87 73.4513 116.366 73.1789 116.925 72.9972C117.49 72.8156 118.098 72.7248 118.748 72.7248C119.397 72.7248 119.995 72.8191 120.54 73.0077C121.085 73.1893 121.549 73.4513 121.933 73.7936C122.325 74.1289 122.628 74.5341 122.845 75.0091C123.062 75.4842 123.17 76.0081 123.17 76.5809C123.17 77.0629 123.11 77.4891 122.992 77.8593C122.873 78.2295 122.702 78.5544 122.478 78.8338C122.262 79.1132 121.996 79.3508 121.682 79.5464C121.367 79.735 121.015 79.8921 120.623 80.0179C121.581 80.2833 122.3 80.7165 122.782 81.3172C123.264 81.911 123.505 82.6655 123.505 83.5806C123.505 84.2862 123.372 84.9219 123.107 85.4877C122.841 86.0466 122.478 86.5216 122.017 86.9128C121.556 87.297 121.018 87.5939 120.403 87.8035C119.796 88.0061 119.146 88.1074 118.454 88.1074C117.665 88.1074 116.987 88.013 116.422 87.8244C115.856 87.6288 115.374 87.3599 114.976 87.0176C114.577 86.6683 114.246 86.2526 113.98 85.7706C113.722 85.2816 113.502 84.7472 113.32 84.1674L114.211 83.7902C114.441 83.6924 114.665 83.6644 114.881 83.7063C115.098 83.7483 115.255 83.8705 115.353 84.0731C115.458 84.2827 115.576 84.5202 115.709 84.7856C115.849 85.0441 116.034 85.2921 116.264 85.5296C116.495 85.7602 116.781 85.9558 117.124 86.1164C117.473 86.2771 117.91 86.3574 118.433 86.3574C118.936 86.3574 119.377 86.2771 119.754 86.1164C120.131 85.9488 120.445 85.7357 120.697 85.4772C120.948 85.2118 121.137 84.9184 121.263 84.597C121.388 84.2757 121.451 83.9578 121.451 83.6435C121.451 83.2523 121.402 82.8925 121.305 82.5642C121.207 82.2359 121.018 81.9564 120.739 81.7259C120.466 81.4884 120.086 81.3033 119.597 81.1705C119.108 81.0378 118.472 80.9714 117.689 80.9714V79.4835C118.332 79.4765 118.874 79.4101 119.314 79.2844C119.761 79.1586 120.121 78.984 120.393 78.7605C120.665 78.5369 120.861 78.2715 120.98 77.9641C121.106 77.6567 121.168 77.3144 121.168 76.9372C121.168 76.525 121.106 76.1653 120.98 75.8579C120.854 75.5505 120.676 75.2955 120.445 75.093C120.222 74.8834 119.953 74.7297 119.639 74.6319C119.331 74.5271 118.996 74.4747 118.633 74.4747C118.269 74.4747 117.934 74.5271 117.627 74.6319C117.319 74.7367 117.047 74.8834 116.809 75.072C116.572 75.2606 116.373 75.4842 116.212 75.7426C116.051 76.0011 115.936 76.2805 115.866 76.5809C115.768 76.8464 115.643 77.0245 115.489 77.1153C115.342 77.2061 115.129 77.2271 114.85 77.1782L113.77 76.9896Z" fill="white"/>
<path d="M81.6348 112.107C81.6348 113.44 81.806 114.638 82.1483 115.701C82.4906 116.753 82.9796 117.645 83.6153 118.378C84.2632 119.112 85.0517 119.674 85.9808 120.066C86.9221 120.445 87.9918 120.634 89.1899 120.634C90.3757 120.634 91.4332 120.445 92.3623 120.066C93.2914 119.674 94.0738 119.112 94.7095 118.378C95.3574 117.645 95.8525 116.753 96.1948 115.701C96.5371 114.638 96.7083 113.44 96.7083 112.107C96.7083 110.787 96.5371 109.601 96.1948 108.55C95.8525 107.486 95.3574 106.587 94.7095 105.854C94.0738 105.12 93.2914 104.558 92.3623 104.167C91.4332 103.776 90.3757 103.58 89.1899 103.58C87.9918 103.58 86.9221 103.776 85.9808 104.167C85.0517 104.558 84.2632 105.12 83.6153 105.854C82.9796 106.587 82.4906 107.486 82.1483 108.55C81.806 109.601 81.6348 110.787 81.6348 112.107ZM104.557 130.481H99.4589C98.7254 130.481 98.0652 130.383 97.4784 130.188C96.9039 130.004 96.366 129.656 95.8647 129.143L92.5457 125.42C91.5065 125.652 90.3879 125.768 89.1899 125.768C87.1116 125.768 85.2168 125.42 83.5053 124.723C81.7938 124.026 80.3268 123.067 79.1043 121.844C77.894 120.61 76.9526 119.161 76.2803 117.498C75.6201 115.836 75.29 114.039 75.29 112.107C75.29 110.175 75.6201 108.378 76.2803 106.716C76.9526 105.053 77.894 103.611 79.1043 102.388C80.3268 101.166 81.7938 100.206 83.5053 99.5092C85.2168 98.8123 87.1116 98.4639 89.1899 98.4639C91.2681 98.4639 93.1569 98.8185 94.8562 99.5275C96.5677 100.224 98.0286 101.184 99.2389 102.406C100.449 103.629 101.384 105.072 102.044 106.734C102.717 108.397 103.053 110.188 103.053 112.107C103.053 113.256 102.931 114.363 102.686 115.426C102.454 116.477 102.112 117.468 101.659 118.397C101.219 119.326 100.669 120.188 100.009 120.982C99.3611 121.777 98.6215 122.48 97.7902 123.091L104.557 130.481ZM122.397 120.341C123.008 120.341 123.491 120.512 123.845 120.854C124.2 121.184 124.377 121.624 124.377 122.174V125.475H105.599V123.641C105.599 123.287 105.673 122.908 105.819 122.504C105.966 122.101 106.223 121.734 106.59 121.404L114.291 113.647C114.952 112.987 115.526 112.358 116.015 111.759C116.504 111.16 116.908 110.573 117.225 109.998C117.543 109.411 117.782 108.831 117.941 108.256C118.099 107.669 118.179 107.052 118.179 106.404C118.179 105.34 117.922 104.528 117.409 103.965C116.908 103.391 116.137 103.103 115.098 103.103C114.255 103.103 113.54 103.329 112.953 103.782C112.378 104.222 111.981 104.772 111.761 105.432C111.504 106.105 111.168 106.551 110.752 106.771C110.337 106.991 109.744 107.04 108.973 106.918L105.966 106.386C106.162 105.053 106.535 103.892 107.085 102.902C107.647 101.911 108.338 101.086 109.157 100.426C109.988 99.7659 110.936 99.2769 111.999 98.959C113.063 98.629 114.206 98.4639 115.428 98.4639C116.749 98.4639 117.934 98.6595 118.986 99.0507C120.049 99.4297 120.954 99.9615 121.7 100.646C122.445 101.331 123.014 102.15 123.405 103.103C123.809 104.045 124.01 105.084 124.01 106.221C124.01 107.199 123.87 108.103 123.588 108.935C123.32 109.766 122.947 110.561 122.47 111.319C121.993 112.064 121.437 112.792 120.801 113.501C120.178 114.198 119.511 114.907 118.802 115.628L113.576 120.982C114.249 120.775 114.915 120.616 115.575 120.506C116.235 120.396 116.846 120.341 117.409 120.341H122.397Z" fill="white"/>
<defs>
<filter id="filter0_f_230_121" x="0" y="94.9641" width="200" height="103" filterUnits="userSpaceOnUse" color-interpolation-filters="sRGB">
<feFlood flood-opacity="0" result="BackgroundImageFix"/>
<feBlend mode="normal" in="SourceGraphic" in2="BackgroundImageFix" result="shape"/>
<feGaussianBlur stdDeviation="1.5" result="effect1_foregroundBlur_230_121"/>
</filter>
<linearGradient id="paint0_linear_230_121" x1="100" y1="97.774" x2="100" y2="194.979" gradientUnits="userSpaceOnUse">
<stop stop-color="#3CD2F9" stop-opacity="0"/>
<stop offset="1" stop-color="#3CD2F9" stop-opacity="0.7"/>
</linearGradient>
</defs>
</svg>
