<svg width="74" height="12" viewBox="0 0 74 12" fill="none" xmlns="http://www.w3.org/2000/svg">
<path d="M0.259787 11V0.818182H4.27683C5.04577 0.818182 5.70202 0.955729 6.24558 1.23082C6.79246 1.5026 7.20841 1.88873 7.49345 2.3892C7.7818 2.88636 7.92598 3.47135 7.92598 4.14418C7.92598 4.82031 7.78015 5.40199 7.48848 5.8892C7.19681 6.37311 6.77423 6.74432 6.22072 7.00284C5.67054 7.26136 5.00434 7.39062 4.22214 7.39062H1.53251V5.66051H3.87413C4.28512 5.66051 4.6265 5.60417 4.89828 5.49148C5.17006 5.37879 5.37224 5.20975 5.50482 4.98438C5.64071 4.759 5.70865 4.47893 5.70865 4.14418C5.70865 3.80611 5.64071 3.52107 5.50482 3.28906C5.37224 3.05705 5.1684 2.88139 4.89331 2.76207C4.62153 2.63944 4.27849 2.57812 3.86419 2.57812H2.41249V11H0.259787ZM5.75837 6.36648L8.28891 11H5.91249L3.43663 6.36648H5.75837ZM19.0838 5.90909C19.0838 7.01941 18.8734 7.96402 18.4524 8.7429C18.0348 9.52178 17.4647 10.1167 16.7422 10.5277C16.023 10.9354 15.2143 11.1392 14.3161 11.1392C13.4112 11.1392 12.5992 10.9337 11.88 10.5227C11.1608 10.1117 10.5923 9.51681 10.1747 8.73793C9.75712 7.95904 9.54831 7.0161 9.54831 5.90909C9.54831 4.79877 9.75712 3.85417 10.1747 3.07528C10.5923 2.2964 11.1608 1.70312 11.88 1.29545C12.5992 0.884469 13.4112 0.678977 14.3161 0.678977C15.2143 0.678977 16.023 0.884469 16.7422 1.29545C17.4647 1.70312 18.0348 2.2964 18.4524 3.07528C18.8734 3.85417 19.0838 4.79877 19.0838 5.90909ZM16.9013 5.90909C16.9013 5.18987 16.7936 4.58333 16.5781 4.08949C16.366 3.59564 16.0661 3.22112 15.6783 2.96591C15.2905 2.7107 14.8364 2.5831 14.3161 2.5831C13.7957 2.5831 13.3416 2.7107 12.9538 2.96591C12.5661 3.22112 12.2645 3.59564 12.049 4.08949C11.8369 4.58333 11.7308 5.18987 11.7308 5.90909C11.7308 6.62831 11.8369 7.23485 12.049 7.72869C12.2645 8.22254 12.5661 8.59706 12.9538 8.85227C13.3416 9.10748 13.7957 9.23509 14.3161 9.23509C14.8364 9.23509 15.2905 9.10748 15.6783 8.85227C16.0661 8.59706 16.366 8.22254 16.5781 7.72869C16.7936 7.23485 16.9013 6.62831 16.9013 5.90909ZM22.1392 11H19.8324L23.3473 0.818182H26.1215L29.6314 11H27.3246L24.7742 3.14489H24.6946L22.1392 11ZM21.995 6.99787H27.4439V8.67827H21.995V6.99787ZM34.7463 11H31.1369V0.818182H34.7761C35.8002 0.818182 36.6819 1.02202 37.421 1.42969C38.1601 1.83404 38.7285 2.41572 39.1262 3.17472C39.5273 3.93371 39.7278 4.84186 39.7278 5.89915C39.7278 6.95975 39.5273 7.87121 39.1262 8.63352C38.7285 9.39583 38.1568 9.98082 37.411 10.3885C36.6686 10.7962 35.7804 11 34.7463 11ZM33.2896 9.15554H34.6568C35.2931 9.15554 35.8284 9.04285 36.2626 8.81747C36.7001 8.58878 37.0282 8.2358 37.247 7.75852C37.469 7.27794 37.5801 6.65814 37.5801 5.89915C37.5801 5.14678 37.469 4.53196 37.247 4.05469C37.0282 3.57741 36.7018 3.22609 36.2676 3.00071C35.8334 2.77533 35.2981 2.66264 34.6618 2.66264H33.2896V9.15554ZM41.6024 0.818182H44.2573L47.0612 7.65909H47.1806L49.9845 0.818182H52.6394V11H50.5513V4.37287H50.4668L47.8318 10.9503H46.41L43.775 4.34801H43.6905V11H41.6024V0.818182ZM56.448 11H54.1411L57.6561 0.818182H60.4302L63.9402 11H61.6333L59.0829 3.14489H59.0034L56.448 11ZM56.3038 6.99787H61.7527V8.67827H56.3038V6.99787ZM65.4456 11V0.818182H69.4627C70.2349 0.818182 70.8928 0.965672 71.4364 1.26065C71.98 1.55232 72.3943 1.95833 72.6793 2.47869C72.9677 2.99574 73.1118 3.59233 73.1118 4.26847C73.1118 4.9446 72.966 5.54119 72.6743 6.05824C72.3827 6.57528 71.9601 6.97798 71.4066 7.26634C70.8564 7.55469 70.1902 7.69886 69.408 7.69886H66.8476V5.97372H69.06C69.4743 5.97372 69.8157 5.90246 70.0841 5.75994C70.3559 5.61411 70.5581 5.41359 70.6907 5.15838C70.8266 4.89986 70.8945 4.60322 70.8945 4.26847C70.8945 3.9304 70.8266 3.63542 70.6907 3.38352C70.5581 3.12831 70.3559 2.93111 70.0841 2.7919C69.8124 2.64938 69.4677 2.57812 69.05 2.57812H67.5983V11H65.4456Z" fill="url(#paint0_linear_230_87)"/>
<defs>
<linearGradient id="paint0_linear_230_87" x1="0.923077" y1="14" x2="74" y2="14" gradientUnits="userSpaceOnUse">
<stop stop-color="#4AF3F8"/>
<stop offset="1" stop-color="#3CD2F9"/>
</linearGradient>
</defs>
</svg>
