<svg width="40" height="40" viewBox="0 0 40 40" fill="none" xmlns="http://www.w3.org/2000/svg">
<path d="M20 40C31.0457 40 40 31.0457 40 20C40 8.9543 31.0457 0 20 0C8.95431 0 0 8.9543 0 20C0 31.0457 8.95431 40 20 40Z" fill="#00A3FF"/>
<path d="M33 24.3727C32.9838 25.0563 32.9919 25.7316 32.9189 26.4069C32.8946 26.6069 32.8216 26.732 32.6674 26.8404C30.7854 28.1993 28.7492 29.233 26.5588 29.95C26.3479 30.0167 26.2344 29.9667 26.1208 29.7999C25.7395 29.2247 25.3826 28.6411 25.0418 28.0409C24.9039 27.7991 24.9364 27.6824 25.2041 27.5907C25.7233 27.3989 26.2262 27.1572 26.7049 26.8737C26.8184 26.807 27.0699 26.757 26.9726 26.6069C26.859 26.4319 26.6968 26.1818 26.3804 26.3151C25.8693 26.5319 25.3582 26.7487 24.8309 26.9237C21.0749 28.1743 17.3838 27.9575 13.7576 26.3985C13.6359 26.3485 13.5142 26.2234 13.3844 26.2818C13.2222 26.3485 13.0275 26.4485 12.9869 26.6153C12.9383 26.7987 13.1735 26.8237 13.2871 26.882C13.7657 27.1322 14.2524 27.3739 14.7554 27.5823C15.015 27.6907 15.0961 27.7741 14.942 28.0492C14.6094 28.6495 14.2443 29.2414 13.8631 29.8083C13.7414 29.9833 13.6359 30.0334 13.425 29.9667C11.2347 29.2497 9.19847 28.2076 7.32452 26.8404C7.17039 26.7236 7.10549 26.5903 7.08926 26.3985C6.66742 21.5632 7.73825 17.103 10.1395 12.9346C10.683 11.9925 11.3482 11.3839 12.3542 11.0588C13.5548 10.667 14.7554 10.2918 15.9804 10.0334C16.2237 9.98334 16.4022 10.0167 16.4914 10.2751C16.4996 10.3001 16.5239 10.3252 16.532 10.3502C16.7592 11.3089 17.3514 11.4006 18.2113 11.2672C19.6309 11.0505 21.0668 11.1171 22.4946 11.3339C22.8353 11.3839 23.0138 11.3006 23.1679 10.9587C23.7601 9.7249 23.4275 9.92498 24.7011 10.1834C26.0964 10.4669 27.435 10.9337 28.7411 11.509C28.9195 11.584 29.0656 11.6924 29.1791 11.8591C31.1829 14.8937 32.4646 18.2034 32.8783 21.8383C32.9757 22.6803 33.0163 23.5307 33 24.3727ZM26.6562 21.0296C26.6562 20.9296 26.6643 20.8379 26.6562 20.7378C26.5913 19.6207 25.7719 18.6286 24.7579 18.4285C23.7114 18.2201 22.7461 18.762 22.2512 19.8208C22.0078 20.346 21.9673 20.8879 22.0241 21.4465C22.1782 22.8887 23.4762 23.8891 24.8147 23.6057C25.8693 23.3806 26.6562 22.2801 26.6562 21.0296ZM13.3439 21.1213C13.3276 21.2714 13.3844 21.5298 13.4493 21.7799C13.7333 22.8637 14.65 23.639 15.664 23.6557C16.6456 23.6807 17.5704 22.9304 17.8949 21.855C18.0328 21.4048 18.0571 20.9546 17.976 20.4961C17.7975 19.529 17.2946 18.8037 16.3535 18.4869C15.4855 18.1868 14.723 18.4285 14.0902 19.0788C13.5872 19.6124 13.3601 20.271 13.3439 21.1213Z" fill="#FEFEFE"/>
<path d="M26.6562 21.0298C26.6562 22.2887 25.8693 23.3808 24.8147 23.6059C23.4762 23.8894 22.1782 22.8806 22.024 21.4467C21.9673 20.8881 22.0078 20.3379 22.2512 19.821C22.746 18.7706 23.7114 18.2287 24.7579 18.4288C25.7719 18.6288 26.5913 19.6209 26.6562 20.738C26.6643 20.8298 26.6562 20.9298 26.6562 21.0298Z" fill="#00A3FF"/>
<path d="M13.3439 21.1215C13.3682 20.2628 13.5872 19.6042 14.0983 19.0789C14.7311 18.4287 15.4936 18.1869 16.3616 18.487C17.2946 18.8122 17.7975 19.5291 17.9841 20.4962C18.0733 20.9464 18.0409 21.4049 17.903 21.8551C17.5785 22.9305 16.6537 23.6809 15.6721 23.6559C14.6499 23.6308 13.7332 22.8639 13.4574 21.7801C13.3844 21.53 13.3276 21.2715 13.3439 21.1215Z" fill="#00A3FF"/>
</svg>
