<svg width="40" height="40" viewBox="0 0 40 40" fill="none" xmlns="http://www.w3.org/2000/svg">
<path d="M40 20C40 8.94815 31.0519 0 20 0C8.94815 0 0 8.94815 0 20C0 29.9852 7.31852 38.2519 16.8889 39.763V25.7778H11.7926V20H16.8889V15.5852C16.8889 10.5778 19.8519 7.82222 24.4148 7.82222C26.6074 7.82222 28.8889 8.20741 28.8889 8.20741V13.1259H26.3704C23.8815 13.1259 23.1111 14.6667 23.1111 16.237V20H28.6519L27.763 25.7778H23.1111V39.763C32.6815 38.2519 40 29.9852 40 20Z" fill="#00A3FF"/>
<path d="M27.7926 25.7778L28.6815 20H23.1111V16.2371C23.1111 14.6667 23.8815 13.126 26.3704 13.126H28.8889V8.20745C28.8889 8.20745 26.6074 7.82227 24.4148 7.82227C19.8519 7.82227 16.8889 10.5778 16.8889 15.5852V20H11.7926V25.7778H16.8889V39.763C17.8963 39.9112 18.963 40 20 40C21.0667 40 22.1037 39.9112 23.1111 39.763V25.7778H27.7926Z" fill="white"/>
</svg>
