<svg width="40" height="40" viewBox="0 0 40 40" fill="none" xmlns="http://www.w3.org/2000/svg">
<path d="M20 40C31.0457 40 40 31.0457 40 20C40 8.9543 31.0457 0 20 0C8.95431 0 0 8.9543 0 20C0 31.0457 8.95431 40 20 40Z" fill="#00A3FF"/>
<path d="M33.3334 20.0002C33.3334 18.4002 32.0297 17.0965 30.4297 17.0965C29.6297 17.0965 28.9185 17.4224 28.4148 17.9261C26.4297 16.4743 23.6741 15.5557 20.6222 15.4372L21.9556 9.18537L26.3111 10.1039C26.3704 11.2002 27.2593 12.0891 28.3852 12.0891C29.5408 12.0891 30.4593 11.1705 30.4593 10.015C30.4593 8.85944 29.5408 7.94092 28.3852 7.94092C27.5556 7.94092 26.8741 8.415 26.5186 9.09648L21.6593 8.05944C21.5111 8.02981 21.3926 8.05943 21.2741 8.11869C21.1556 8.20758 21.0667 8.32611 21.0371 8.44463L19.5556 15.4076C16.4445 15.4965 13.6593 16.415 11.6445 17.8668C11.1111 17.3631 10.4 17.0668 9.62966 17.0668C8.02966 17.0668 6.72595 18.3705 6.72595 19.9705C6.72595 21.1557 7.43706 22.1631 8.44447 22.6372C8.38521 22.9335 8.38521 23.2298 8.38521 23.5261C8.38521 28.0002 13.6 31.6446 20.0593 31.6446C26.4889 31.6446 31.7334 28.0002 31.7334 23.5261C31.7334 23.2298 31.7037 22.9335 31.6741 22.6372C32.5926 22.2224 33.3334 21.1854 33.3334 20.0002ZM13.3334 22.0743C13.3334 20.9187 14.2815 20.0002 15.4074 20.0002C16.563 20.0002 17.4815 20.9483 17.4815 22.0743C17.4815 23.2298 16.5334 24.1483 15.4074 24.1483C14.2519 24.178 13.3334 23.2298 13.3334 22.0743ZM24.9482 27.5854C23.526 29.0076 20.8 29.1261 20 29.1261C19.2 29.1261 16.4741 29.0076 15.0519 27.5854C14.8445 27.378 14.8445 27.0224 15.0519 26.815C15.2593 26.6076 15.6148 26.6076 15.8223 26.815C16.7111 27.7039 18.6371 28.0298 20 28.0298C21.363 28.0298 23.2889 27.7039 24.1778 26.815C24.3852 26.6076 24.7408 26.6076 24.9482 26.815C25.1556 27.0224 25.1556 27.378 24.9482 27.5854ZM24.563 24.178C23.4074 24.178 22.4889 23.2298 22.4889 22.1039C22.4889 20.9483 23.4371 20.0298 24.563 20.0298C25.7185 20.0298 26.6371 20.978 26.6371 22.1039C26.6667 23.2298 25.7185 24.178 24.563 24.178Z" fill="white"/>
</svg>
