<svg width="40" height="40" viewBox="0 0 40 40" fill="none" xmlns="http://www.w3.org/2000/svg">
<path d="M20 40C31.0457 40 40 31.0457 40 20C40 8.9543 31.0457 0 20 0C8.9543 0 0 8.9543 0 20C0 31.0457 8.9543 40 20 40Z" fill="#00A3FF"/>
<path d="M29.7481 11.8813C29.6593 11.6443 29.5704 11.585 29.4519 11.5554C29.1259 11.4369 28.6222 11.6146 28.6222 11.6146C28.6222 11.6146 9.89629 18.3109 8.82963 19.0517C8.59259 19.1998 8.53333 19.3184 8.47407 19.4072C8.29629 19.9406 8.85926 20.1776 8.85926 20.1776L13.6889 21.748C13.6889 21.748 13.8667 21.7776 13.9259 21.748C15.0222 21.0665 24.9481 14.785 25.5111 14.5776C25.6 14.548 25.6593 14.5776 25.6593 14.6369C25.4518 15.4369 16.8296 23.1109 16.8296 23.1109C16.8296 23.1109 16.8 23.1406 16.7704 23.1998L16.2963 27.9702C16.2963 27.9702 16.1185 29.4221 17.5704 27.9702C18.6074 26.9332 19.6148 26.0739 20.0889 25.6591C21.7481 26.8146 23.5259 28.0591 24.2963 28.7406C24.6815 29.0665 25.0074 29.1258 25.2741 29.1258C26.0148 29.0961 26.2222 28.2961 26.2222 28.2961C26.2222 28.2961 29.6296 14.5776 29.7481 12.7406C29.7481 12.5628 29.7778 12.4443 29.7778 12.3258C29.7778 12.1184 29.7778 11.9702 29.7481 11.8813Z" fill="white"/>
</svg>
