<svg width="40" height="40" viewBox="0 0 40 40" fill="none" xmlns="http://www.w3.org/2000/svg">
<path d="M20 40C31.0457 40 40 31.0457 40 20C40 8.9543 31.0457 0 20 0C8.9543 0 0 8.9543 0 20C0 31.0457 8.9543 40 20 40Z" fill="#00A3FF"/>
<path d="M15.9704 31.5258C25.7482 31.5258 31.0815 23.4369 31.0815 16.4147C31.0815 16.1777 31.0815 15.9703 31.0519 15.7332C32.0889 14.9925 32.9778 14.0443 33.6889 12.9777C32.7408 13.3925 31.7037 13.6888 30.6371 13.8073C31.7333 13.1554 32.563 12.1184 32.9778 10.874C31.9408 11.4962 30.8148 11.911 29.6 12.1777C28.6222 11.1406 27.2593 10.4888 25.7185 10.4888C22.7852 10.4888 20.4148 12.8591 20.4148 15.7925C20.4148 16.2073 20.4741 16.6221 20.563 17.0073C16.1482 16.7999 12.2371 14.6665 9.62964 11.4665C9.1852 12.2369 8.91853 13.1554 8.91853 14.1332C8.91853 15.9703 9.86668 17.5999 11.2889 18.548C10.4296 18.5184 9.60001 18.2814 8.8889 17.8962C8.8889 17.9258 8.8889 17.9258 8.8889 17.9554C8.8889 20.5332 10.7259 22.6665 13.1556 23.1702C12.7111 23.2888 12.2371 23.348 11.763 23.348C11.4074 23.348 11.0815 23.3184 10.7556 23.2591C11.437 25.3628 13.3926 26.9036 15.7037 26.9332C13.8963 28.3554 11.5852 29.2147 9.09631 29.2147C8.68149 29.2147 8.23705 29.1851 7.82224 29.1554C10.163 30.6369 12.9482 31.5258 15.9704 31.5258Z" fill="white"/>
</svg>
