<svg width="17" height="17" viewBox="0 0 17 17" fill="none" xmlns="http://www.w3.org/2000/svg">
<path d="M8.5 2.05532C10.5926 2.05532 10.8519 2.05532 11.6852 2.09236C12.4444 2.12939 12.8704 2.25902 13.1481 2.37014C13.5185 2.51828 13.7778 2.68495 14.0556 2.96273C14.3333 3.24051 14.5 3.49976 14.6481 3.87014C14.7593 4.14791 14.8889 4.55532 14.9259 5.3331C14.963 6.16643 14.963 6.40717 14.963 8.51828C14.963 10.6294 14.963 10.8701 14.9259 11.7035C14.8889 12.4627 14.7593 12.8887 14.6481 13.1664C14.5 13.5368 14.3333 13.7961 14.0556 14.0738C13.7778 14.3516 13.5185 14.5183 13.1481 14.6664C12.8704 14.7775 12.463 14.9072 11.6852 14.9442C10.8519 14.9812 10.6111 14.9812 8.5 14.9812C6.40741 14.9812 6.14815 14.9812 5.31482 14.9442C4.55556 14.9072 4.12963 14.7775 3.85185 14.6664C3.48148 14.5183 3.22222 14.3516 2.94445 14.0738C2.66667 13.7961 2.5 13.5368 2.35185 13.1664C2.24074 12.8887 2.11111 12.4812 2.07408 11.7035C2.03704 10.8701 2.03704 10.6294 2.03704 8.51828C2.03704 6.40717 2.03704 6.16643 2.07408 5.3331C2.11111 4.57384 2.24074 4.14791 2.35185 3.87014C2.5 3.49976 2.66667 3.24051 2.94445 2.96273C3.22222 2.68495 3.48148 2.51828 3.85185 2.37014C4.12963 2.25902 4.53704 2.12939 5.31482 2.09236C6.14815 2.05532 6.40741 2.05532 8.5 2.05532ZM8.5 0.629395C6.37037 0.629395 6.09259 0.629394 5.25926 0.68495C4.42593 0.721987 3.85185 0.851617 3.35185 1.05532C2.83333 1.25902 2.38889 1.51828 1.96296 1.96273C1.51852 2.40717 1.25926 2.8331 1.05556 3.35162C0.851853 3.85162 0.722223 4.42569 0.685186 5.25902C0.629631 6.09236 0.629631 6.37014 0.629631 8.49976C0.629631 10.6294 0.629631 10.9072 0.685186 11.7405C0.722223 12.5738 0.851853 13.1479 1.05556 13.6479C1.25926 14.1664 1.51852 14.6109 1.96296 15.0368C2.40741 15.4812 2.83333 15.7405 3.35185 15.9442C3.85185 16.1479 4.42593 16.2775 5.25926 16.3146C6.09259 16.3516 6.37037 16.3701 8.5 16.3701C10.6296 16.3701 10.9074 16.3701 11.7407 16.3146C12.5741 16.2775 13.1481 16.1479 13.6481 15.9442C14.1667 15.7405 14.6111 15.4812 15.037 15.0368C15.4815 14.5924 15.7407 14.1664 15.9444 13.6479C16.1481 13.1479 16.2778 12.5738 16.3148 11.7405C16.3519 10.9072 16.3704 10.6294 16.3704 8.49976C16.3704 6.37014 16.3704 6.09236 16.3148 5.25902C16.2778 4.42569 16.1481 3.85162 15.9444 3.35162C15.7407 2.8331 15.4815 2.38865 15.037 1.96273C14.5926 1.51828 14.1667 1.25902 13.6481 1.05532C13.1481 0.851617 12.5741 0.721987 11.7407 0.68495C10.9074 0.629394 10.6296 0.629395 8.5 0.629395Z" fill="white"/>
<path d="M8.50001 4.46289C6.25927 4.46289 4.46297 6.27771 4.46297 8.49993C4.46297 10.7221 6.27779 12.537 8.50001 12.537C10.7408 12.537 12.537 10.7221 12.537 8.49993C12.537 6.27771 10.7408 4.46289 8.50001 4.46289ZM8.50001 11.1296C7.05557 11.1296 5.87038 9.96289 5.87038 8.49993C5.87038 7.03696 7.03705 5.8703 8.50001 5.8703C9.96297 5.8703 11.1296 7.03696 11.1296 8.49993C11.1296 9.96289 9.94446 11.1296 8.50001 11.1296Z" fill="white"/>
<path d="M12.7037 5.24143C13.2253 5.24143 13.6481 4.81859 13.6481 4.29698C13.6481 3.77538 13.2253 3.35254 12.7037 3.35254C12.1821 3.35254 11.7593 3.77538 11.7593 4.29698C11.7593 4.81859 12.1821 5.24143 12.7037 5.24143Z" fill="white"/>
</svg>
