<svg width="16" height="16" viewBox="0 0 16 16" fill="none" xmlns="http://www.w3.org/2000/svg">
<path d="M8.46296 6.79653C8.66666 6.5743 8.83333 6.33356 9.05555 6.12986C9.7037 5.51875 10.463 5.20393 11.3704 5.22245C11.8704 5.22245 12.3518 5.25949 12.8148 5.40764C13.9074 5.72245 14.537 6.46319 14.8333 7.53727C15.0556 8.33356 15.0926 9.14838 15.1111 9.96319C15.1111 11.6854 15.1111 13.4076 15.1111 15.1484C15.1111 15.315 15.0741 15.3521 14.9074 15.3521C14.0185 15.3521 13.1296 15.3521 12.2407 15.3521C12.0926 15.3521 12.0556 15.2965 12.0556 15.1484C12.0556 13.5002 12.0556 11.8706 12.0556 10.2225C12.0556 9.81505 12.037 9.40764 11.9074 9.00023C11.7037 8.25949 11.1667 7.88912 10.3889 7.92616C9.33333 7.98171 8.77778 8.50023 8.64815 9.5743C8.61111 9.83356 8.59259 10.0928 8.59259 10.3521C8.59259 11.9447 8.59259 13.5558 8.59259 15.1484C8.59259 15.315 8.55555 15.3521 8.38889 15.3521C7.5 15.3521 6.59259 15.3521 5.7037 15.3521C5.55555 15.3521 5.51852 15.315 5.51852 15.1669C5.51852 12.0002 5.51852 8.83356 5.51852 5.6669C5.51852 5.51875 5.57407 5.48171 5.72222 5.48171C6.57407 5.48171 7.42592 5.48171 8.27778 5.48171C8.42592 5.48171 8.48148 5.53727 8.46296 5.68542C8.46296 6.03727 8.46296 6.40764 8.46296 6.79653Z" fill="#FEFEFE"/>
<path d="M3.59259 10.4073C3.59259 11.9814 3.59259 13.537 3.59259 15.111C3.59259 15.2777 3.55555 15.3333 3.37037 15.3333C2.48148 15.3147 1.59259 15.3333 0.703702 15.3333C0.555554 15.3333 0.518517 15.2962 0.518517 15.1481C0.518517 11.9814 0.518517 8.81474 0.518517 5.64808C0.518517 5.51845 0.555554 5.46289 0.685183 5.46289C1.59259 5.46289 2.48148 5.46289 3.38889 5.46289C3.55555 5.46289 3.59259 5.53696 3.59259 5.68511C3.59259 7.25919 3.59259 8.83326 3.59259 10.4073Z" fill="#FEFEFE"/>
<path d="M3.83333 2.31492C3.83333 3.2964 3.03704 4.0927 2.05556 4.0927C1.09259 4.0927 0.277779 3.29641 0.277779 2.33344C0.277779 1.35196 1.07407 0.555664 2.05556 0.555664C3.03704 0.555664 3.83333 1.35196 3.83333 2.31492Z" fill="#FEFEFE"/>
</svg>
