<svg width="14" height="12" viewBox="0 0 14 12" fill="none" xmlns="http://www.w3.org/2000/svg">
<path d="M13.5926 0.425944C13.537 0.277796 13.4815 0.240759 13.4074 0.22224C13.2037 0.148166 12.8889 0.259277 12.8889 0.259277C12.8889 0.259277 1.18516 4.44446 0.518498 4.90743C0.37035 5.00002 0.333313 5.07409 0.296276 5.12965C0.185165 5.46298 0.537017 5.61113 0.537017 5.61113L3.55554 6.59261C3.55554 6.59261 3.66665 6.61113 3.70368 6.59261C4.38887 6.16669 10.5926 2.24076 10.9444 2.11113C11 2.09261 11.037 2.11113 11.037 2.14817C10.9074 2.64817 5.5185 7.44446 5.5185 7.44446C5.5185 7.44446 5.49998 7.46298 5.48146 7.50002L5.18517 10.4815C5.18517 10.4815 5.07405 11.3889 5.98146 10.4815C6.62961 9.83335 7.25924 9.29631 7.55554 9.03706C8.59257 9.75928 9.70368 10.5371 10.1852 10.963C10.4259 11.1667 10.6296 11.2037 10.7963 11.2037C11.2592 11.1852 11.3889 10.6852 11.3889 10.6852C11.3889 10.6852 13.5185 2.11113 13.5926 0.962981C13.5926 0.85187 13.6111 0.777796 13.6111 0.703722C13.6111 0.574092 13.6111 0.481499 13.5926 0.425944Z" fill="white"/>
</svg>
