<svg width="72" height="12" viewBox="0 0 72 12" fill="none" xmlns="http://www.w3.org/2000/svg">
<path d="M9.62218 5.90909C9.62218 7.01941 9.41172 7.96402 8.99079 8.7429C8.57317 9.52178 8.0031 10.1167 7.28056 10.5277C6.56134 10.9354 5.75263 11.1392 4.85442 11.1392C3.9496 11.1392 3.13757 10.9337 2.41835 10.5227C1.69912 10.1117 1.1307 9.51681 0.713089 8.73793C0.295476 7.95904 0.0866689 7.0161 0.0866689 5.90909C0.0866689 4.79877 0.295476 3.85417 0.713089 3.07528C1.1307 2.2964 1.69912 1.70312 2.41835 1.29545C3.13757 0.884469 3.9496 0.678977 4.85442 0.678977C5.75263 0.678977 6.56134 0.884469 7.28056 1.29545C8.0031 1.70312 8.57317 2.2964 8.99079 3.07528C9.41172 3.85417 9.62218 4.79877 9.62218 5.90909ZM7.43965 5.90909C7.43965 5.18987 7.33193 4.58333 7.1165 4.08949C6.90438 3.59564 6.60442 3.22112 6.21664 2.96591C5.82886 2.7107 5.37478 2.5831 4.85442 2.5831C4.33406 2.5831 3.87999 2.7107 3.49221 2.96591C3.10442 3.22112 2.80281 3.59564 2.58738 4.08949C2.37526 4.58333 2.2692 5.18987 2.2692 5.90909C2.2692 6.62831 2.37526 7.23485 2.58738 7.72869C2.80281 8.22254 3.10442 8.59706 3.49221 8.85227C3.87999 9.10748 4.33406 9.23509 4.85442 9.23509C5.37478 9.23509 5.82886 9.10748 6.21664 8.85227C6.60442 8.59706 6.90438 8.22254 7.1165 7.72869C7.33193 7.23485 7.43965 6.62831 7.43965 5.90909ZM17.7859 0.818182H19.9386V7.4304C19.9386 8.17282 19.7613 8.82244 19.4066 9.37926C19.0553 9.93608 18.5631 10.3703 17.9301 10.6818C17.297 10.9901 16.5596 11.1442 15.7177 11.1442C14.8725 11.1442 14.1334 10.9901 13.5004 10.6818C12.8673 10.3703 12.3751 9.93608 12.0238 9.37926C11.6725 8.82244 11.4968 8.17282 11.4968 7.4304V0.818182H13.6495V7.24645C13.6495 7.63423 13.734 7.97893 13.9031 8.28054C14.0754 8.58215 14.3174 8.81913 14.6289 8.99148C14.9405 9.16383 15.3034 9.25 15.7177 9.25C16.1353 9.25 16.4982 9.16383 16.8065 8.99148C17.118 8.81913 17.3583 8.58215 17.5274 8.28054C17.6997 7.97893 17.7859 7.63423 17.7859 7.24645V0.818182ZM21.9897 11V0.818182H26.0068C26.7757 0.818182 27.4319 0.955729 27.9755 1.23082C28.5224 1.5026 28.9383 1.88873 29.2234 2.3892C29.5117 2.88636 29.6559 3.47135 29.6559 4.14418C29.6559 4.82031 29.5101 5.40199 29.2184 5.8892C28.9267 6.37311 28.5041 6.74432 27.9506 7.00284C27.4005 7.26136 26.7343 7.39062 25.9521 7.39062H23.2624V5.66051H25.6041C26.015 5.66051 26.3564 5.60417 26.6282 5.49148C26.9 5.37879 27.1022 5.20975 27.2347 4.98438C27.3706 4.759 27.4386 4.47893 27.4386 4.14418C27.4386 3.80611 27.3706 3.52107 27.2347 3.28906C27.1022 3.05705 26.8983 2.88139 26.6232 2.76207C26.3515 2.63944 26.0084 2.57812 25.5941 2.57812H24.1424V11H21.9897ZM27.4883 6.36648L30.0188 11H27.6424L25.1666 6.36648H27.4883ZM31.0694 2.59304V0.818182H39.4316V2.59304H36.3145V11H34.1866V2.59304H31.0694ZM41.0888 11V0.818182H47.9496V2.59304H43.2415V5.01918H47.5966V6.79403H43.2415V9.22514H47.9695V11H41.0888ZM51.696 11H49.3892L52.9041 0.818182H55.6783L59.1882 11H56.8814L54.331 3.14489H54.2514L51.696 11ZM51.5518 6.99787H57.0007V8.67827H51.5518V6.99787ZM60.6937 0.818182H63.3485L66.1525 7.65909H66.2718L69.0758 0.818182H71.7306V11H69.6426V4.37287H69.558L66.9231 10.9503H65.5012L62.8663 4.34801H62.7818V11H60.6937V0.818182Z" fill="url(#paint0_linear_230_88)"/>
<defs>
<linearGradient id="paint0_linear_230_88" x1="0.897436" y1="14" x2="73" y2="14" gradientUnits="userSpaceOnUse">
<stop stop-color="#4AF3F8"/>
<stop offset="1" stop-color="#3CD2F9"/>
</linearGradient>
</defs>
</svg>
