<svg width="75" height="12" viewBox="0 0 75 12" fill="none" xmlns="http://www.w3.org/2000/svg">
<path d="M0.340491 11V0.818182H4.35754C5.12979 0.818182 5.7877 0.965672 6.33126 1.26065C6.87482 1.55232 7.28912 1.95833 7.57416 2.47869C7.86251 2.99574 8.00668 3.59233 8.00668 4.26847C8.00668 4.9446 7.86085 5.54119 7.56918 6.05824C7.27752 6.57528 6.85493 6.97798 6.30143 7.26634C5.75124 7.55469 5.08505 7.69886 4.30285 7.69886H1.74248V5.97372H3.95484C4.36914 5.97372 4.71052 5.90246 4.97898 5.75994C5.25077 5.61411 5.45294 5.41359 5.58552 5.15838C5.72141 4.89986 5.78935 4.60322 5.78935 4.26847C5.78935 3.9304 5.72141 3.63542 5.58552 3.38352C5.45294 3.12831 5.25077 2.93111 4.97898 2.7919C4.7072 2.64938 4.36251 2.57812 3.94489 2.57812H2.49319V11H0.340491ZM10.2641 11H7.95732L11.4722 0.818182H14.2464L17.7563 11H15.4495L12.8991 3.14489H12.8195L10.2641 11ZM10.12 6.99787H15.5688V8.67827H10.12V6.99787ZM19.2618 11V0.818182H23.2789C24.0478 0.818182 24.7041 0.955729 25.2476 1.23082C25.7945 1.5026 26.2104 1.88873 26.4955 2.3892C26.7838 2.88636 26.928 3.47135 26.928 4.14418C26.928 4.82031 26.7822 5.40199 26.4905 5.8892C26.1988 6.37311 25.7763 6.74432 25.2228 7.00284C24.6726 7.26136 24.0064 7.39062 23.2242 7.39062H20.5345V5.66051H22.8762C23.2871 5.66051 23.6285 5.60417 23.9003 5.49148C24.1721 5.37879 24.3743 5.20975 24.5068 4.98438C24.6427 4.759 24.7107 4.47893 24.7107 4.14418C24.7107 3.80611 24.6427 3.52107 24.5068 3.28906C24.3743 3.05705 24.1704 2.88139 23.8953 2.76207C23.6236 2.63944 23.2805 2.57812 22.8662 2.57812H21.4145V11H19.2618ZM24.7604 6.36648L27.2909 11H24.9145L22.4387 6.36648H24.7604ZM28.3415 2.59304V0.818182H36.7038V2.59304H33.5866V11H31.4587V2.59304H28.3415ZM46.8772 0.818182V11H45.0178L40.5882 4.59162H40.5136V11H38.3609V0.818182H40.2501L44.645 7.22159H44.7345V0.818182H46.8772ZM48.9358 11V0.818182H55.7966V2.59304H51.0885V5.01918H55.4436V6.79403H51.0885V9.22514H55.8165V11H48.9358ZM57.7881 11V0.818182H61.8051C62.5741 0.818182 63.2303 0.955729 63.7739 1.23082C64.3207 1.5026 64.7367 1.88873 65.0217 2.3892C65.3101 2.88636 65.4543 3.47135 65.4543 4.14418C65.4543 4.82031 65.3084 5.40199 65.0168 5.8892C64.7251 6.37311 64.3025 6.74432 63.749 7.00284C63.1988 7.26136 62.5326 7.39062 61.7504 7.39062H59.0608V5.66051H61.4024C61.8134 5.66051 62.1548 5.60417 62.4266 5.49148C62.6983 5.37879 62.9005 5.20975 63.0331 4.98438C63.169 4.759 63.2369 4.47893 63.2369 4.14418C63.2369 3.80611 63.169 3.52107 63.0331 3.28906C62.9005 3.05705 62.6967 2.88139 62.4216 2.76207C62.1498 2.63944 61.8068 2.57812 61.3925 2.57812H59.9408V11H57.7881ZM63.2866 6.36648L65.8172 11H63.4408L60.9649 6.36648H63.2866ZM72.779 3.74645C72.7392 3.34541 72.5685 3.03385 72.2669 2.81179C71.9653 2.58972 71.556 2.47869 71.0389 2.47869C70.6876 2.47869 70.391 2.52841 70.149 2.62784C69.9071 2.72396 69.7215 2.85819 69.5922 3.03054C69.4663 3.20289 69.4033 3.39844 69.4033 3.61719C69.3967 3.79948 69.4348 3.95857 69.5176 4.09446C69.6038 4.23035 69.7215 4.34801 69.8706 4.44744C70.0198 4.54356 70.1921 4.62808 70.3877 4.70099C70.5832 4.7706 70.792 4.83026 71.0141 4.87997L71.9289 5.09872C72.373 5.19815 72.7807 5.33073 73.1519 5.49645C73.5231 5.66217 73.8446 5.866 74.1164 6.10795C74.3881 6.34991 74.5986 6.63494 74.7478 6.96307C74.9002 7.29119 74.9781 7.66738 74.9814 8.09162C74.9781 8.71473 74.819 9.25497 74.5041 9.71236C74.1926 10.1664 73.7418 10.5194 73.1519 10.7713C72.5652 11.0199 71.8576 11.1442 71.029 11.1442C70.207 11.1442 69.4911 11.0182 68.8813 10.7663C68.2747 10.5144 67.8008 10.1416 67.4594 9.64773C67.1213 9.15057 66.944 8.53575 66.9274 7.80327H69.0105C69.0337 8.14465 69.1315 8.42969 69.3039 8.65838C69.4795 8.88376 69.7132 9.05445 70.0049 9.17045C70.2998 9.28314 70.6329 9.33949 71.0041 9.33949C71.3687 9.33949 71.6853 9.28646 71.9537 9.1804C72.2255 9.07434 72.436 8.92685 72.5851 8.73793C72.7343 8.54901 72.8088 8.33191 72.8088 8.08665C72.8088 7.85795 72.7409 7.66572 72.605 7.50994C72.4724 7.35417 72.2769 7.22159 72.0183 7.11222C71.7631 7.00284 71.4499 6.90341 71.0787 6.81392L69.9701 6.53551C69.1116 6.3267 68.4338 6.00024 67.9367 5.55611C67.4395 5.11198 67.1926 4.51373 67.1959 3.76136C67.1926 3.14489 67.3567 2.6063 67.6881 2.1456C68.0228 1.6849 68.4819 1.32528 69.0652 1.06676C69.6486 0.808238 70.3114 0.678977 71.0539 0.678977C71.8095 0.678977 72.4691 0.808238 73.0326 1.06676C73.5993 1.32528 74.0401 1.6849 74.355 2.1456C74.6699 2.6063 74.8323 3.13991 74.8422 3.74645H72.779Z" fill="url(#paint0_linear_230_89)"/>
<defs>
<linearGradient id="paint0_linear_230_89" x1="0.974359" y1="14" x2="76" y2="14" gradientUnits="userSpaceOnUse">
<stop stop-color="#4AF3F8"/>
<stop offset="1" stop-color="#3CD2F9"/>
</linearGradient>
</defs>
</svg>
