<svg width="18" height="14" viewBox="0 0 18 14" fill="none" xmlns="http://www.w3.org/2000/svg">
<path d="M5.98139 13.7038C12.0925 13.7038 15.4258 8.64826 15.4258 4.25937C15.4258 4.11122 15.4258 3.98159 15.4073 3.83344C16.0555 3.37048 16.611 2.77789 17.0555 2.11122C16.4629 2.37048 15.8147 2.55566 15.1481 2.62974C15.8332 2.22233 16.3518 1.57418 16.611 0.796405C15.9629 1.18529 15.2592 1.44455 14.4999 1.61122C13.8888 0.963071 13.0369 0.555664 12.074 0.555664C10.2406 0.555664 8.75916 2.03715 8.75916 3.87048C8.75916 4.12974 8.7962 4.389 8.85176 4.62974C6.0925 4.50011 3.64805 3.16677 2.01842 1.16677C1.74065 1.64826 1.57398 2.22233 1.57398 2.83344C1.57398 3.98159 2.16657 5.00011 3.05546 5.5927C2.51842 5.57418 1.99991 5.42603 1.55546 5.18529C1.55546 5.20381 1.55546 5.20381 1.55546 5.22233C1.55546 6.83344 2.70361 8.16677 4.22213 8.48159C3.94435 8.55566 3.64805 8.5927 3.35176 8.5927C3.12953 8.5927 2.92583 8.57418 2.72213 8.53715C3.14805 9.85196 4.37028 10.8149 5.81472 10.8334C4.68509 11.7223 3.24065 12.2594 1.68509 12.2594C1.42583 12.2594 1.14805 12.2408 0.888794 12.2223C2.35176 13.1483 4.0925 13.7038 5.98139 13.7038Z" fill="white"/>
</svg>
