<svg width="74" height="12" viewBox="0 0 74 12" fill="none" xmlns="http://www.w3.org/2000/svg">
<path d="M0.160803 11V0.818182H6.90228V2.59304H2.3135V5.01918H6.45484V6.79403H2.3135V11H0.160803ZM8.63026 11V0.818182H15.4911V2.59304H10.783V5.01918H15.1381V6.79403H10.783V9.22514H15.5109V11H8.63026ZM19.2375 11H16.9307L20.4456 0.818182H23.2197L26.7297 11H24.4229L21.8724 3.14489H21.7929L19.2375 11ZM19.0933 6.99787H24.5422V8.67827H19.0933V6.99787ZM26.6033 2.59304V0.818182H34.9655V2.59304H31.8483V11H29.7204V2.59304H26.6033ZM42.9117 0.818182H45.0644V7.4304C45.0644 8.17282 44.887 8.82244 44.5324 9.37926C44.1811 9.93608 43.6889 10.3703 43.0558 10.6818C42.4228 10.9901 41.6853 11.1442 40.8435 11.1442C39.9983 11.1442 39.2592 10.9901 38.6262 10.6818C37.9931 10.3703 37.5009 9.93608 37.1496 9.37926C36.7983 8.82244 36.6226 8.17282 36.6226 7.4304V0.818182H38.7753V7.24645C38.7753 7.63423 38.8598 7.97893 39.0288 8.28054C39.2012 8.58215 39.4431 8.81913 39.7547 8.99148C40.0663 9.16383 40.4292 9.25 40.8435 9.25C41.2611 9.25 41.624 9.16383 41.9323 8.99148C42.2438 8.81913 42.4841 8.58215 42.6531 8.28054C42.8255 7.97893 42.9117 7.63423 42.9117 7.24645V0.818182ZM47.1155 11V0.818182H51.1325C51.9015 0.818182 52.5577 0.955729 53.1013 1.23082C53.6482 1.5026 54.0641 1.88873 54.3492 2.3892C54.6375 2.88636 54.7817 3.47135 54.7817 4.14418C54.7817 4.82031 54.6359 5.40199 54.3442 5.8892C54.0525 6.37311 53.6299 6.74432 53.0764 7.00284C52.5262 7.26136 51.86 7.39062 51.0779 7.39062H48.3882V5.66051H50.7298C51.1408 5.66051 51.4822 5.60417 51.754 5.49148C52.0258 5.37879 52.2279 5.20975 52.3605 4.98438C52.4964 4.759 52.5644 4.47893 52.5644 4.14418C52.5644 3.80611 52.4964 3.52107 52.3605 3.28906C52.2279 3.05705 52.0241 2.88139 51.749 2.76207C51.4772 2.63944 51.1342 2.57812 50.7199 2.57812H49.2682V11H47.1155ZM52.6141 6.36648L55.1446 11H52.7682L50.2923 6.36648H52.6141ZM56.583 11V0.818182H63.4438V2.59304H58.7357V5.01918H63.0908V6.79403H58.7357V9.22514H63.4637V11H56.583ZM70.9587 3.74645C70.9189 3.34541 70.7482 3.03385 70.4466 2.81179C70.145 2.58972 69.7357 2.47869 69.2186 2.47869C68.8673 2.47869 68.5707 2.52841 68.3287 2.62784C68.0868 2.72396 67.9012 2.85819 67.7719 3.03054C67.646 3.20289 67.583 3.39844 67.583 3.61719C67.5763 3.79948 67.6145 3.95857 67.6973 4.09446C67.7835 4.23035 67.9012 4.34801 68.0503 4.44744C68.1995 4.54356 68.3718 4.62808 68.5674 4.70099C68.7629 4.7706 68.9717 4.83026 69.1938 4.87997L70.1085 5.09872C70.5527 5.19815 70.9603 5.33073 71.3316 5.49645C71.7028 5.66217 72.0243 5.866 72.296 6.10795C72.5678 6.34991 72.7783 6.63494 72.9274 6.96307C73.0799 7.29119 73.1578 7.66738 73.1611 8.09162C73.1578 8.71473 72.9987 9.25497 72.6838 9.71236C72.3723 10.1664 71.9215 10.5194 71.3316 10.7713C70.7449 11.0199 70.0373 11.1442 69.2087 11.1442C68.3867 11.1442 67.6708 11.0182 67.061 10.7663C66.4544 10.5144 65.9805 10.1416 65.6391 9.64773C65.301 9.15057 65.1237 8.53575 65.1071 7.80327H67.1902C67.2134 8.14465 67.3112 8.42969 67.4835 8.65838C67.6592 8.88376 67.8929 9.05445 68.1845 9.17045C68.4795 9.28314 68.8126 9.33949 69.1838 9.33949C69.5484 9.33949 69.8649 9.28646 70.1334 9.1804C70.4052 9.07434 70.6156 8.92685 70.7648 8.73793C70.9139 8.54901 70.9885 8.33191 70.9885 8.08665C70.9885 7.85795 70.9206 7.66572 70.7847 7.50994C70.6521 7.35417 70.4566 7.22159 70.198 7.11222C69.9428 7.00284 69.6296 6.90341 69.2584 6.81392L68.1497 6.53551C67.2913 6.3267 66.6135 6.00024 66.1164 5.55611C65.6192 5.11198 65.3723 4.51373 65.3756 3.76136C65.3723 3.14489 65.5363 2.6063 65.8678 2.1456C66.2025 1.6849 66.6616 1.32528 67.2449 1.06676C67.8282 0.808238 68.4911 0.678977 69.2335 0.678977C69.9892 0.678977 70.6488 0.808238 71.2122 1.06676C71.779 1.32528 72.2198 1.6849 72.5347 2.1456C72.8496 2.6063 73.012 3.13991 73.0219 3.74645H70.9587Z" fill="url(#paint0_linear_230_82)"/>
<defs>
<linearGradient id="paint0_linear_230_82" x1="0.923077" y1="14" x2="74" y2="14" gradientUnits="userSpaceOnUse">
<stop stop-color="#4AF3F8"/>
<stop offset="1" stop-color="#3CD2F9"/>
</linearGradient>
</defs>
</svg>
