<svg width="90" height="12" viewBox="0 0 90 12" fill="none" xmlns="http://www.w3.org/2000/svg">
<path d="M0.126272 11V0.818182H6.98707V2.59304H2.27897V5.01918H6.63409V6.79403H2.27897V9.22514H7.00695V11H0.126272ZM17.9622 4.38281H15.7846C15.7449 4.10109 15.6637 3.85085 15.541 3.6321C15.4184 3.41004 15.261 3.22112 15.0687 3.06534C14.8765 2.90956 14.6544 2.79025 14.4025 2.70739C14.154 2.62453 13.8838 2.5831 13.5922 2.5831C13.0652 2.5831 12.6061 2.71402 12.215 2.97585C11.8239 3.23437 11.5207 3.61222 11.3052 4.10938C11.0898 4.60322 10.9821 5.20312 10.9821 5.90909C10.9821 6.63494 11.0898 7.24479 11.3052 7.73864C11.524 8.23248 11.8289 8.60535 12.22 8.85724C12.6111 9.10914 13.0635 9.23509 13.5773 9.23509C13.8656 9.23509 14.1324 9.19697 14.3777 9.12074C14.6263 9.04451 14.8467 8.93348 15.0389 8.78764C15.2311 8.63849 15.3902 8.45786 15.5162 8.24574C15.6454 8.03362 15.7349 7.79167 15.7846 7.51989L17.9622 7.52983C17.9059 7.99716 17.765 8.44792 17.5396 8.8821C17.3176 9.31297 17.0176 9.6991 16.6398 10.0405C16.2652 10.3786 15.8178 10.647 15.2974 10.8459C14.7804 11.0414 14.1954 11.1392 13.5425 11.1392C12.6343 11.1392 11.8223 10.9337 11.1064 10.5227C10.3938 10.1117 9.83034 9.51681 9.41604 8.73793C9.00505 7.95904 8.79956 7.0161 8.79956 5.90909C8.79956 4.79877 9.00837 3.85417 9.42598 3.07528C9.84359 2.2964 10.4104 1.70312 11.1263 1.29545C11.8422 0.884469 12.6476 0.678977 13.5425 0.678977C14.1324 0.678977 14.6793 0.761837 15.1831 0.927557C15.6902 1.09328 16.1393 1.33523 16.5304 1.65341C16.9215 1.96828 17.2397 2.3544 17.4849 2.81179C17.7335 3.26918 17.8926 3.79285 17.9622 4.38281ZM29.1424 5.90909C29.1424 7.01941 28.932 7.96402 28.511 8.7429C28.0934 9.52178 27.5233 10.1167 26.8008 10.5277C26.0816 10.9354 25.2729 11.1392 24.3747 11.1392C23.4698 11.1392 22.6578 10.9337 21.9386 10.5227C21.2194 10.1117 20.6509 9.51681 20.2333 8.73793C19.8157 7.95904 19.6069 7.0161 19.6069 5.90909C19.6069 4.79877 19.8157 3.85417 20.2333 3.07528C20.6509 2.2964 21.2194 1.70312 21.9386 1.29545C22.6578 0.884469 23.4698 0.678977 24.3747 0.678977C25.2729 0.678977 26.0816 0.884469 26.8008 1.29545C27.5233 1.70312 28.0934 2.2964 28.511 3.07528C28.932 3.85417 29.1424 4.79877 29.1424 5.90909ZM26.9599 5.90909C26.9599 5.18987 26.8522 4.58333 26.6367 4.08949C26.4246 3.59564 26.1247 3.22112 25.7369 2.96591C25.3491 2.7107 24.895 2.5831 24.3747 2.5831C23.8543 2.5831 23.4002 2.7107 23.0124 2.96591C22.6247 3.22112 22.323 3.59564 22.1076 4.08949C21.8955 4.58333 21.7894 5.18987 21.7894 5.90909C21.7894 6.62831 21.8955 7.23485 22.1076 7.72869C22.323 8.22254 22.6247 8.59706 23.0124 8.85227C23.4002 9.10748 23.8543 9.23509 24.3747 9.23509C24.895 9.23509 25.3491 9.10748 25.7369 8.85227C26.1247 8.59706 26.4246 8.22254 26.6367 7.72869C26.8522 7.23485 26.9599 6.62831 26.9599 5.90909ZM36.5405 3.74645C36.5007 3.34541 36.33 3.03385 36.0284 2.81179C35.7268 2.58972 35.3175 2.47869 34.8004 2.47869C34.4491 2.47869 34.1525 2.52841 33.9105 2.62784C33.6686 2.72396 33.483 2.85819 33.3537 3.03054C33.2278 3.20289 33.1648 3.39844 33.1648 3.61719C33.1582 3.79948 33.1963 3.95857 33.2791 4.09446C33.3653 4.23035 33.483 4.34801 33.6321 4.44744C33.7813 4.54356 33.9536 4.62808 34.1492 4.70099C34.3447 4.7706 34.5535 4.83026 34.7756 4.87997L35.6903 5.09872C36.1345 5.19815 36.5421 5.33073 36.9134 5.49645C37.2846 5.66217 37.6061 5.866 37.8778 6.10795C38.1496 6.34991 38.3601 6.63494 38.5092 6.96307C38.6617 7.29119 38.7396 7.66738 38.7429 8.09162C38.7396 8.71473 38.5805 9.25497 38.2656 9.71236C37.9541 10.1664 37.5033 10.5194 36.9134 10.7713C36.3267 11.0199 35.6191 11.1442 34.7905 11.1442C33.9685 11.1442 33.2526 11.0182 32.6428 10.7663C32.0362 10.5144 31.5623 10.1416 31.2209 9.64773C30.8828 9.15057 30.7055 8.53575 30.6889 7.80327H32.772C32.7952 8.14465 32.893 8.42969 33.0653 8.65838C33.241 8.88376 33.4747 9.05445 33.7663 9.17045C34.0613 9.28314 34.3944 9.33949 34.7656 9.33949C35.1302 9.33949 35.4467 9.28646 35.7152 9.1804C35.987 9.07434 36.1975 8.92685 36.3466 8.73793C36.4957 8.54901 36.5703 8.33191 36.5703 8.08665C36.5703 7.85795 36.5024 7.66572 36.3665 7.50994C36.2339 7.35417 36.0384 7.22159 35.7798 7.11222C35.5246 7.00284 35.2114 6.90341 34.8402 6.81392L33.7315 6.53551C32.8731 6.3267 32.1953 6.00024 31.6982 5.55611C31.201 5.11198 30.9541 4.51373 30.9574 3.76136C30.9541 3.14489 31.1181 2.6063 31.4496 2.1456C31.7843 1.6849 32.2434 1.32528 32.8267 1.06676C33.41 0.808238 34.0729 0.678977 34.8153 0.678977C35.571 0.678977 36.2306 0.808238 36.794 1.06676C37.3608 1.32528 37.8016 1.6849 38.1165 2.1456C38.4314 2.6063 38.5938 3.13991 38.6037 3.74645H36.5405ZM39.8743 0.818182H42.2855L44.6072 5.20312H44.7067L47.0284 0.818182H49.4396L45.7259 7.40057V11H43.5881V7.40057L39.8743 0.818182ZM56.4189 3.74645C56.3791 3.34541 56.2084 3.03385 55.9068 2.81179C55.6052 2.58972 55.1958 2.47869 54.6788 2.47869C54.3275 2.47869 54.0308 2.52841 53.7889 2.62784C53.5469 2.72396 53.3613 2.85819 53.2321 3.03054C53.1061 3.20289 53.0431 3.39844 53.0431 3.61719C53.0365 3.79948 53.0746 3.95857 53.1575 4.09446C53.2437 4.23035 53.3613 4.34801 53.5105 4.44744C53.6596 4.54356 53.832 4.62808 54.0275 4.70099C54.2231 4.7706 54.4319 4.83026 54.6539 4.87997L55.5687 5.09872C56.0128 5.19815 56.4205 5.33073 56.7917 5.49645C57.1629 5.66217 57.4844 5.866 57.7562 6.10795C58.028 6.34991 58.2385 6.63494 58.3876 6.96307C58.5401 7.29119 58.618 7.66738 58.6213 8.09162C58.618 8.71473 58.4589 9.25497 58.144 9.71236C57.8324 10.1664 57.3817 10.5194 56.7917 10.7713C56.2051 11.0199 55.4975 11.1442 54.6689 11.1442C53.8469 11.1442 53.131 11.0182 52.5211 10.7663C51.9146 10.5144 51.4406 10.1416 51.0992 9.64773C50.7612 9.15057 50.5839 8.53575 50.5673 7.80327H52.6504C52.6736 8.14465 52.7714 8.42969 52.9437 8.65838C53.1194 8.88376 53.353 9.05445 53.6447 9.17045C53.9397 9.28314 54.2728 9.33949 54.644 9.33949C55.0086 9.33949 55.3251 9.28646 55.5936 9.1804C55.8653 9.07434 56.0758 8.92685 56.225 8.73793C56.3741 8.54901 56.4487 8.33191 56.4487 8.08665C56.4487 7.85795 56.3807 7.66572 56.2448 7.50994C56.1123 7.35417 55.9167 7.22159 55.6582 7.11222C55.403 7.00284 55.0898 6.90341 54.7186 6.81392L53.6099 6.53551C52.7515 6.3267 52.0737 6.00024 51.5765 5.55611C51.0794 5.11198 50.8324 4.51373 50.8358 3.76136C50.8324 3.14489 50.9965 2.6063 51.3279 2.1456C51.6627 1.6849 52.1217 1.32528 52.7051 1.06676C53.2884 0.808238 53.9513 0.678977 54.6937 0.678977C55.4494 0.678977 56.109 0.808238 56.6724 1.06676C57.2392 1.32528 57.68 1.6849 57.9948 2.1456C58.3097 2.6063 58.4721 3.13991 58.4821 3.74645H56.4189ZM59.9615 2.59304V0.818182H68.3237V2.59304H65.2065V11H63.0786V2.59304H59.9615ZM69.9808 11V0.818182H76.8416V2.59304H72.1335V5.01918H76.4886V6.79403H72.1335V9.22514H76.8615V11H69.9808ZM78.8331 0.818182H81.4879L84.2919 7.65909H84.4112L87.2152 0.818182H89.87V11H87.7819V4.37287H87.6974L85.0625 10.9503H83.6406L81.0056 4.34801H80.9211V11H78.8331V0.818182Z" fill="url(#paint0_linear_230_74)"/>
<defs>
<linearGradient id="paint0_linear_230_74" x1="1.35897" y1="14" x2="91" y2="14" gradientUnits="userSpaceOnUse">
<stop stop-color="#4AF3F8"/>
<stop offset="1" stop-color="#3CD2F9"/>
</linearGradient>
</defs>
</svg>
